<svg width="168" height="113" viewBox="0 0 168 113" fill="none" xmlns="http://www.w3.org/2000/svg">
<path d="M34.72 65.9054C33.6 64.825 31.36 64.825 30.24 64.825H20.16C13.44 64.825 8.96 70.227 8.96 76.7095C8.96 78.8704 6.72 81.0312 4.48 81.0312C2.24 81.0312 0 78.8704 0 76.7095C0 65.9054 8.96 56.1816 20.16 56.1816H30.24C34.72 56.1816 38.08 57.262 41.44 59.4229C39.2 61.5837 36.96 63.7445 34.72 65.9054ZM4.48 28.0908C4.48 17.2867 13.44 7.56291 25.76 7.56291C38.08 7.56291 47.04 16.2062 47.04 28.0908C47.04 39.9754 36.96 48.6187 24.64 48.6187C12.32 48.6187 4.48 39.9754 4.48 28.0908ZM12.32 28.0908C12.32 34.5733 17.92 39.9754 24.64 39.9754C31.36 39.9754 36.96 34.5733 36.96 28.0908C36.96 21.6083 32.48 16.2062 24.64 16.2062C16.8 16.2062 12.32 21.6083 12.32 28.0908ZM128.8 73.4683C132.16 77.7899 134.4 84.2724 134.4 89.6745V100.479C134.4 106.961 128.8 112.363 122.08 112.363H45.92C39.2 113.444 33.6 108.042 33.6 101.559V90.7549C33.6 84.2724 35.84 78.8704 39.2 74.5487C44.8 66.9858 53.76 62.6641 63.84 62.6641C72.8 62.6641 75.04 65.9054 85.12 65.9054C95.2 65.9054 97.44 62.6641 106.4 62.6641C114.24 61.5837 124.32 65.9054 128.8 73.4683ZM125.44 101.559V90.7549C125.44 86.4333 124.32 82.1116 122.08 78.8704C118.72 73.4683 112 70.227 105.28 70.227C98.56 70.227 95.2 73.4683 84 73.4683C72.8 73.4683 70.56 70.227 62.72 70.227C56 70.227 49.28 73.4683 45.92 77.7899C43.68 82.1116 42.56 85.3529 42.56 89.6745V100.479C42.56 102.64 44.8 104.8 47.04 104.8H123.2C124.32 105.881 125.44 103.72 125.44 101.559ZM54.88 28.0908C54.88 12.965 67.2 0 84 0C100.8 0 113.12 12.965 113.12 28.0908C113.12 43.2166 100.8 56.1816 84 56.1816C67.2 56.1816 54.88 44.2971 54.88 28.0908ZM62.72 28.0908C62.72 38.895 71.68 48.6187 84 48.6187C96.32 48.6187 105.28 39.9754 105.28 28.0908C105.28 16.2062 95.2 8.64333 84 8.64333C72.8 8.64333 62.72 17.2867 62.72 28.0908ZM122.08 28.0908C122.08 17.2867 131.04 7.56291 143.36 7.56291C155.68 7.56291 164.64 16.2062 164.64 28.0908C164.64 39.9754 155.68 48.6187 143.36 48.6187C131.04 48.6187 122.08 39.9754 122.08 28.0908ZM168 76.7095C168 78.8704 165.76 81.0312 163.52 81.0312C161.28 81.0312 159.04 78.8704 159.04 76.7095C159.04 70.227 153.44 64.825 147.84 64.825H137.76C136.64 64.825 134.4 64.825 133.28 65.9054C131.04 63.7445 128.8 61.5837 126.56 60.5033C129.92 58.3425 133.28 57.262 137.76 57.262H147.84C159.04 56.1816 168 65.9054 168 76.7095ZM129.92 28.0908C129.92 34.5733 135.52 39.9754 142.24 39.9754C148.96 39.9754 154.56 34.5733 154.56 28.0908C154.56 21.6083 148.96 16.2062 142.24 16.2062C135.52 16.2062 129.92 21.6083 129.92 28.0908Z" fill="white"/>
</svg>
