<svg width="168" height="113" viewBox="0 0 168 113" fill="none" xmlns="http://www.w3.org/2000/svg">
<path d="M168 56.5C168 57.7556 168 60.2667 166.756 60.2667C150.578 91.6556 119.467 113 84.6222 113C49.7778 113 17.4222 91.6556 1.24444 60.2667C0 60.2667 0 57.7556 0 56.5C0 55.2444 0 52.7333 1.24444 52.7333C17.4222 21.3444 48.5333 0 84.6222 0C120.711 0 151.822 21.3444 168 52.7333C168 52.7333 168 55.2444 168 56.5ZM159.289 56.5C151.822 42.6889 135.644 25.1111 121.956 18.8333C128.178 26.3667 131.911 36.4111 131.911 47.7111C131.911 74.0778 110.756 95.4222 84.6222 95.4222C58.4889 95.4222 37.3333 72.8222 37.3333 47.7111C37.3333 36.4111 41.0667 27.6222 47.2889 18.8333C33.6 26.3667 16.1778 42.6889 9.95556 56.5C24.8889 85.3778 53.5111 104.211 84.6222 104.211C115.733 104.211 144.356 85.3778 159.289 56.5ZM47.2889 47.7111C47.2889 69.0556 63.4667 85.3778 84.6222 85.3778C105.778 85.3778 121.956 69.0556 121.956 47.7111C121.956 26.3667 105.778 10.0444 84.6222 10.0444C63.4667 10.0444 47.2889 26.3667 47.2889 47.7111ZM64.7111 47.7111C64.7111 46.4556 65.9556 46.4556 64.7111 47.7111C65.9556 47.7111 68.4444 47.7111 69.6889 47.7111C77.1556 47.7111 83.3778 41.4333 83.3778 33.9C83.3778 32.6444 83.3778 30.1333 82.1333 28.8778C82.1333 28.8778 82.1333 28.8778 83.3778 28.8778C93.3333 28.8778 102.044 37.6667 102.044 47.7111C102.044 57.7556 94.5778 65.2889 84.6222 65.2889C74.6667 65.2889 64.7111 57.7556 64.7111 47.7111Z" fill="white"/>
</svg>
