<?xml version="1.0" encoding="utf-8"?>
<!-- Generator: Adobe Illustrator 25.4.1, SVG Export Plug-In . SVG Version: 6.00 Build 0)  -->
<svg version="1.1" baseProfile="basic" id="Art" xmlns="http://www.w3.org/2000/svg" xmlns:xlink="http://www.w3.org/1999/xlink"
	 x="0px" y="0px" viewBox="0 0 200 150" xml:space="preserve">
<style type="text/css">
	.st0{fill:#0066FF;}
	.st1{fill:#FFFFFF;}
	.st2{fill:#00CA00;}
	.st3{fill:#FF0097;}
</style>
<polygon class="st1" points="150,25 150,0 125,0 100,0 75,0 50,0 25,0 0,0 0,25 0,50 25,50 50,50 50,75 50,100 50,125 50,150 
	75,150 100,150 100,125 100,100 100,75 100,50 125,50 150,50 "/>
<polygon class="st1" points="175,100 150,100 150,125 150,150 175,150 200,150 200,125 200,100 "/>
</svg>
