<?xml version="1.0" encoding="utf-8"?>
<!-- Generator: Adobe Illustrator 25.4.1, SVG Export Plug-In . SVG Version: 6.00 Build 0)  -->
<svg version="1.1" baseProfile="basic" id="Art" xmlns="http://www.w3.org/2000/svg" xmlns:xlink="http://www.w3.org/1999/xlink"
	 x="0px" y="0px" viewBox="0 0 306 72" xml:space="preserve">
<style type="text/css">
	.st0{fill:#0066FF;}
	.st1{fill:#FFFFFF;}
	.st2{fill:#00CA00;}
	.st3{fill:#FF0097;}
</style>
<rect class="st0" width="306" height="72"/>
<rect x="59" y="45" class="st2" width="17" height="17"/>
<polygon class="st3" points="25,11 8,11 8,28 25,28 25,45 25,62 42,62 42,45 42,28 59,28 59,11 42,11 "/>
<g>
	<path class="st1" d="M133.3,45.6c0,0.6-0.3,1.1-0.9,1.3c-0.6,0.3-1.5,0.5-2.6,0.5c-2.9,0-4.3-1.6-4.3-4.5V31.8h-1.7
		c-0.8,0-1.5-0.7-1.5-1.5c0-0.8,0.7-1.5,1.5-1.5h1.7v-3.5c0-0.9,0.8-1.7,1.7-1.7c0.9,0,1.7,0.8,1.7,1.7v3.5h2.4
		c0.8,0,1.5,0.7,1.5,1.5c0,0.8-0.7,1.5-1.5,1.5h-2.4v10.4c0,1.3,0.6,2.2,1.8,2.2c0.6,0,0.9-0.2,1.2-0.2
		C132.8,44.2,133.3,44.8,133.3,45.6z"/>
	<path class="st1" d="M144,28.4c5.5,0,8.8,4.3,8.8,9c0,1-0.7,1.6-2,1.6h-12.4c0.3,3.1,2.5,5.6,6.2,5.6c1.5,0,3.2-0.5,4.5-1.5
		c0.2-0.2,0.5-0.2,0.8-0.2c0.8,0,1.4,0.6,1.4,1.4c0,0.5-0.2,0.9-0.6,1.1c-1.8,1.3-4,2-6.4,2c-5.4,0-9.4-3.8-9.4-9.6
		C134.9,32.6,138.7,28.4,144,28.4z M138.4,36.6h11.1c-0.1-2.4-1.7-5.4-5.5-5.4C140.4,31.1,138.6,34.1,138.4,36.6z"/>
	<path class="st1" d="M171,45.6c0,0.6-0.5,1.5-1.5,1.5c-0.4,0-0.9-0.2-1.2-0.6l-5.5-6.7l-5.4,6.7c-0.3,0.5-0.8,0.6-1.2,0.6
		c-1.1,0-1.6-0.9-1.6-1.5c0-0.4,0.2-0.7,0.4-1l5.8-7.1l-5.5-6.3c-0.2-0.3-0.4-0.7-0.4-1c0-0.8,0.7-1.6,1.6-1.6
		c0.4,0,0.8,0.2,1.1,0.5l5.1,6.1l5.1-6.1c0.3-0.4,0.7-0.5,1.1-0.5c0.9,0,1.6,0.8,1.6,1.6c0,0.3-0.2,0.7-0.4,1l-5.5,6.3l5.9,7.1
		C170.9,44.9,171,45.3,171,45.6z"/>
	<path class="st1" d="M183.8,45.6c0,0.6-0.3,1.1-0.9,1.3c-0.6,0.3-1.5,0.5-2.6,0.5c-2.9,0-4.3-1.6-4.3-4.5V31.8h-1.7
		c-0.8,0-1.5-0.7-1.5-1.5c0-0.8,0.7-1.5,1.5-1.5h1.7v-3.5c0-0.9,0.8-1.7,1.7-1.7c0.9,0,1.7,0.8,1.7,1.7v3.5h2.4
		c0.8,0,1.5,0.7,1.5,1.5c0,0.8-0.7,1.5-1.5,1.5h-2.4v10.4c0,1.3,0.6,2.2,1.8,2.2c0.6,0,0.9-0.2,1.2-0.2
		C183.2,44.2,183.8,44.8,183.8,45.6z"/>
	<path class="st1" d="M210.3,45.8c0,0.8-0.6,1.4-1.4,1.4c-0.3,0-0.6-0.1-0.8-0.3c-0.6-0.4-1.3-1.1-2.1-1.7c-1.4,1.3-3.2,2.2-5.4,2.2
		c-3.3,0-6-1.8-6-5.3c0-2.9,1.9-4.3,4-5.4c-0.8-1.4-1.3-2.8-1.3-4.1c0-2.5,2.1-4.4,5.1-4.4c2.5,0,4.6,1.4,4.6,3.8
		c0,2.8-2.3,4-4.6,5.2c0.6,0.9,1.3,1.7,1.8,2.3c0.6,0.7,1.2,1.4,1.9,2.1c0.6-0.9,1-1.9,1.4-2.7c0.2-0.5,0.6-0.8,1.2-0.8
		c0.7,0,1.3,0.6,1.3,1.3c0,0.2-0.1,0.4-0.1,0.6c-0.5,1.1-1.2,2.3-2,3.4c0.6,0.5,1.3,1,1.9,1.5C210.2,45,210.3,45.4,210.3,45.8z
		 M204.3,43.6c-1-1-2-1.9-2.4-2.5c-0.7-0.8-1.4-1.7-2.1-2.7c-1.2,0.8-2.1,1.8-2.1,3.4c0,2,1.5,3.2,3.2,3.2
		C202.3,45,203.4,44.4,204.3,43.6z M201.3,35.4c1.8-0.8,3.2-1.7,3.2-3.3c0-1.1-0.8-1.8-1.9-1.8c-1.3,0-2.2,0.9-2.2,2.3
		C200.3,33.4,200.7,34.4,201.3,35.4z"/>
	<path class="st1" d="M241,37.9c0,5.9-3.4,9.6-8.1,9.6c-2.4,0-4.5-1.1-6-3.1v8.1c0,0.9-0.8,1.7-1.7,1.7c-0.9,0-1.7-0.8-1.7-1.7V30.3
		c0-0.9,0.8-1.7,1.7-1.7c0.9,0,1.7,0.8,1.7,1.7v1.1c1.4-1.8,3.5-3,6-3C237.7,28.4,241,31.9,241,37.9z M237.5,37.9
		c0-3.8-2.1-6.5-5.5-6.5c-2.1,0-4.1,1.2-5,2.7v7.7c0.9,1.4,3,2.7,5,2.7C235.4,44.4,237.5,41.7,237.5,37.9z"/>
	<path class="st1" d="M244.3,23c0-1.2,1-2.1,2.2-2.1c1.2,0,2.2,0.9,2.2,2.1c0,1.2-1,2.2-2.2,2.2C245.3,25.2,244.3,24.2,244.3,23z
		 M244.8,45.5V30.3c0-0.9,0.8-1.7,1.7-1.7c0.9,0,1.7,0.8,1.7,1.7v15.2c0,0.9-0.8,1.7-1.7,1.7C245.6,47.2,244.8,46.4,244.8,45.5z"/>
	<path class="st1" d="M268.8,45.6c0,0.6-0.5,1.5-1.5,1.5c-0.4,0-0.9-0.2-1.2-0.6l-5.5-6.7l-5.4,6.7c-0.3,0.5-0.8,0.6-1.2,0.6
		c-1.1,0-1.6-0.9-1.6-1.5c0-0.4,0.2-0.7,0.4-1l5.8-7.1l-5.5-6.3c-0.2-0.3-0.4-0.7-0.4-1c0-0.8,0.7-1.6,1.6-1.6
		c0.4,0,0.8,0.2,1.1,0.5l5.1,6.1l5.1-6.1c0.3-0.4,0.7-0.5,1.1-0.5c0.9,0,1.6,0.8,1.6,1.6c0,0.3-0.2,0.7-0.4,1l-5.5,6.3l5.9,7.1
		C268.7,44.9,268.8,45.3,268.8,45.6z"/>
	<path class="st1" d="M279.9,28.4c5.5,0,8.8,4.3,8.8,9c0,1-0.7,1.6-2,1.6h-12.4c0.3,3.1,2.5,5.6,6.2,5.6c1.5,0,3.2-0.5,4.5-1.5
		c0.2-0.2,0.5-0.2,0.8-0.2c0.8,0,1.4,0.6,1.4,1.4c0,0.5-0.2,0.9-0.6,1.1c-1.8,1.3-4,2-6.4,2c-5.4,0-9.4-3.8-9.4-9.6
		C270.8,32.6,274.6,28.4,279.9,28.4z M274.3,36.6h11.1c-0.1-2.4-1.7-5.4-5.5-5.4C276.2,31.1,274.5,34.1,274.3,36.6z"/>
	<path class="st1" d="M292.6,45.5V23.4c0-0.9,0.8-1.7,1.7-1.7c0.9,0,1.7,0.8,1.7,1.7v22.1c0,0.9-0.8,1.7-1.7,1.7
		C293.4,47.2,292.6,46.4,292.6,45.5z"/>
</g>
</svg>
