<?xml version="1.0" encoding="utf-8"?>
<!-- Generator: Adobe Illustrator 26.2.1, SVG Export Plug-In . SVG Version: 6.00 Build 0)  -->
<svg version="1.1" id="Art" xmlns="http://www.w3.org/2000/svg" xmlns:xlink="http://www.w3.org/1999/xlink" x="0px" y="0px"
	 viewBox="0 0 288 51" style="enable-background:new 0 0 288 51;" xml:space="preserve">
<style type="text/css">
	.st0{fill:#00CA00;}
	.st1{fill:#FF0097;}
	.st2{fill:#FFFFFF;}
</style>
<rect x="50.9" y="34" class="st0" width="17" height="17"/>
<polygon class="st1" points="16.9,0 -0.1,0 -0.1,17 16.9,17 16.9,34 16.9,51 33.9,51 33.9,34 33.9,17 50.9,17 50.9,0 33.9,0 "/>
<g>
	<path class="st2" d="M125.2,34.6c0,0.6-0.3,1.1-0.9,1.3c-0.6,0.3-1.5,0.5-2.6,0.5c-2.9,0-4.3-1.6-4.3-4.5V20.8h-1.7
		c-0.8,0-1.5-0.7-1.5-1.5s0.7-1.5,1.5-1.5h1.7v-3.5c0-0.9,0.8-1.7,1.7-1.7s1.7,0.8,1.7,1.7v3.5h2.4c0.8,0,1.5,0.7,1.5,1.5
		s-0.7,1.5-1.5,1.5h-2.4v10.4c0,1.3,0.6,2.2,1.8,2.2c0.6,0,0.9-0.2,1.2-0.2C124.7,33.2,125.2,33.8,125.2,34.6z"/>
	<path class="st2" d="M135.9,17.4c5.5,0,8.8,4.3,8.8,9c0,1-0.7,1.6-2,1.6h-12.4c0.3,3.1,2.5,5.6,6.2,5.6c1.5,0,3.2-0.5,4.5-1.5
		c0.2-0.2,0.5-0.2,0.8-0.2c0.8,0,1.4,0.6,1.4,1.4c0,0.5-0.2,0.9-0.6,1.1c-1.8,1.3-4,2-6.4,2c-5.4,0-9.4-3.8-9.4-9.6
		C126.8,21.6,130.6,17.4,135.9,17.4z M130.3,25.6h11.1c-0.1-2.4-1.7-5.4-5.5-5.4C132.3,20.1,130.5,23.1,130.3,25.6z"/>
	<path class="st2" d="M162.9,34.6c0,0.6-0.5,1.5-1.5,1.5c-0.4,0-0.9-0.2-1.2-0.6l-5.5-6.7l-5.4,6.7c-0.3,0.5-0.8,0.6-1.2,0.6
		c-1.1,0-1.6-0.9-1.6-1.5c0-0.4,0.2-0.7,0.4-1l5.8-7.1l-5.5-6.3c-0.2-0.3-0.4-0.7-0.4-1c0-0.8,0.7-1.6,1.6-1.6
		c0.4,0,0.8,0.2,1.1,0.5l5.1,6.1l5.1-6.1c0.3-0.4,0.7-0.5,1.1-0.5c0.9,0,1.6,0.8,1.6,1.6c0,0.3-0.2,0.7-0.4,1l-5.5,6.3l5.9,7.1
		C162.8,33.9,162.9,34.3,162.9,34.6z"/>
	<path class="st2" d="M175.7,34.6c0,0.6-0.3,1.1-0.9,1.3c-0.6,0.3-1.5,0.5-2.6,0.5c-2.9,0-4.3-1.6-4.3-4.5V20.8h-1.7
		c-0.8,0-1.5-0.7-1.5-1.5s0.7-1.5,1.5-1.5h1.7v-3.5c0-0.9,0.8-1.7,1.7-1.7s1.7,0.8,1.7,1.7v3.5h2.4c0.8,0,1.5,0.7,1.5,1.5
		s-0.7,1.5-1.5,1.5h-2.4v10.4c0,1.3,0.6,2.2,1.8,2.2c0.6,0,0.9-0.2,1.2-0.2C175.1,33.2,175.7,33.8,175.7,34.6z"/>
	<path class="st2" d="M202.2,34.8c0,0.8-0.6,1.4-1.4,1.4c-0.3,0-0.6-0.1-0.8-0.3c-0.6-0.4-1.3-1.1-2.1-1.7c-1.4,1.3-3.2,2.2-5.4,2.2
		c-3.3,0-6-1.8-6-5.3c0-2.9,1.9-4.3,4-5.4c-0.8-1.4-1.3-2.8-1.3-4.1c0-2.5,2.1-4.4,5.1-4.4c2.5,0,4.6,1.4,4.6,3.8
		c0,2.8-2.3,4-4.6,5.2c0.6,0.9,1.3,1.7,1.8,2.3c0.6,0.7,1.2,1.4,1.9,2.1c0.6-0.9,1-1.9,1.4-2.7c0.2-0.5,0.6-0.8,1.2-0.8
		c0.7,0,1.3,0.6,1.3,1.3c0,0.2-0.1,0.4-0.1,0.6c-0.5,1.1-1.2,2.3-2,3.4c0.6,0.5,1.3,1,1.9,1.5C202.1,34,202.2,34.4,202.2,34.8z
		 M196.2,32.6c-1-1-2-1.9-2.4-2.5c-0.7-0.8-1.4-1.7-2.1-2.7c-1.2,0.8-2.1,1.8-2.1,3.4c0,2,1.5,3.2,3.2,3.2
		C194.2,34,195.3,33.4,196.2,32.6z M193.2,24.4c1.8-0.8,3.2-1.7,3.2-3.3c0-1.1-0.8-1.8-1.9-1.8c-1.3,0-2.2,0.9-2.2,2.3
		C192.2,22.4,192.6,23.4,193.2,24.4z"/>
	<path class="st2" d="M232.9,26.9c0,5.9-3.4,9.6-8.1,9.6c-2.4,0-4.5-1.1-6-3.1v8.1c0,0.9-0.8,1.7-1.7,1.7s-1.7-0.8-1.7-1.7V19.3
		c0-0.9,0.8-1.7,1.7-1.7s1.7,0.8,1.7,1.7v1.1c1.4-1.8,3.5-3,6-3C229.6,17.4,232.9,20.9,232.9,26.9z M229.4,26.9
		c0-3.8-2.1-6.5-5.5-6.5c-2.1,0-4.1,1.2-5,2.7v7.7c0.9,1.4,3,2.7,5,2.7C227.3,33.4,229.4,30.7,229.4,26.9z"/>
	<path class="st2" d="M236.2,12c0-1.2,1-2.1,2.2-2.1s2.2,0.9,2.2,2.1s-1,2.2-2.2,2.2S236.2,13.2,236.2,12z M236.7,34.5V19.3
		c0-0.9,0.8-1.7,1.7-1.7s1.7,0.8,1.7,1.7v15.2c0,0.9-0.8,1.7-1.7,1.7S236.7,35.4,236.7,34.5z"/>
	<path class="st2" d="M260.7,34.6c0,0.6-0.5,1.5-1.5,1.5c-0.4,0-0.9-0.2-1.2-0.6l-5.5-6.7l-5.4,6.7c-0.3,0.5-0.8,0.6-1.2,0.6
		c-1.1,0-1.6-0.9-1.6-1.5c0-0.4,0.2-0.7,0.4-1l5.8-7.1l-5.5-6.3c-0.2-0.3-0.4-0.7-0.4-1c0-0.8,0.7-1.6,1.6-1.6
		c0.4,0,0.8,0.2,1.1,0.5l5.1,6.1l5.1-6.1c0.3-0.4,0.7-0.5,1.1-0.5c0.9,0,1.6,0.8,1.6,1.6c0,0.3-0.2,0.7-0.4,1l-5.5,6.3l5.9,7.1
		C260.6,33.9,260.7,34.3,260.7,34.6z"/>
	<path class="st2" d="M271.8,17.4c5.5,0,8.8,4.3,8.8,9c0,1-0.7,1.6-2,1.6h-12.4c0.3,3.1,2.5,5.6,6.2,5.6c1.5,0,3.2-0.5,4.5-1.5
		c0.2-0.2,0.5-0.2,0.8-0.2c0.8,0,1.4,0.6,1.4,1.4c0,0.5-0.2,0.9-0.6,1.1c-1.8,1.3-4,2-6.4,2c-5.4,0-9.4-3.8-9.4-9.6
		C262.7,21.6,266.5,17.4,271.8,17.4z M266.2,25.6h11.1c-0.1-2.4-1.7-5.4-5.5-5.4C268.1,20.1,266.4,23.1,266.2,25.6z"/>
	<path class="st2" d="M284.5,34.5V12.4c0-0.9,0.8-1.7,1.7-1.7c0.9,0,1.7,0.8,1.7,1.7v22.1c0,0.9-0.8,1.7-1.7,1.7
		S284.5,35.4,284.5,34.5z"/>
</g>
</svg>
