<svg width="288" height="48" viewBox="0 0 288 48" fill="none" xmlns="http://www.w3.org/2000/svg">
<path d="M15.19 0.110001H0V15.3H15.19V0.110001Z" fill="#FF0097"/>
<path d="M30.38 0.110001H15.19V15.3H30.38V0.110001Z" fill="#FF0097"/>
<path d="M30.38 30.5H15.19V45.69H30.38V30.5Z" fill="#FF0097"/>
<path d="M30.38 15.31H15.19V30.5H30.38V15.31Z" fill="#FF0097"/>
<path d="M60.76 30.5H45.57V45.69H60.76V30.5Z" fill="#00CA00"/>
<path d="M45.57 0.110001H30.38V15.3H45.57V0.110001Z" fill="#FF0097"/>
<path d="M89.82 36.93C89.8419 37.2628 89.7567 37.5938 89.5767 37.8746C89.3967 38.1553 89.1315 38.371 88.82 38.49C87.8234 38.9344 86.7409 39.153 85.65 39.13C82.16 39.13 80.38 37.13 80.38 33.68V20.05H78.21C77.7299 20.05 77.2696 19.8593 76.9301 19.5199C76.5907 19.1804 76.4 18.72 76.4 18.24C76.4 17.76 76.5907 17.2996 76.9301 16.9601C77.2696 16.6207 77.7299 16.43 78.21 16.43H80.33V12.2C80.3287 11.9291 80.381 11.6606 80.4841 11.4101C80.5872 11.1596 80.7388 10.932 80.9304 10.7404C81.122 10.5488 81.3496 10.3972 81.6001 10.2941C81.8506 10.191 82.1191 10.1387 82.39 10.14C82.9347 10.1452 83.4557 10.3639 83.8409 10.7491C84.2261 11.1343 84.4448 11.6553 84.45 12.2V16.43H87.34C87.82 16.43 88.2804 16.6207 88.6199 16.9601C88.9593 17.2996 89.15 17.76 89.15 18.24C89.15 18.72 88.9593 19.1804 88.6199 19.5199C88.2804 19.8593 87.82 20.05 87.34 20.05H84.45V32.76C84.45 34.32 85.19 35.47 86.61 35.47C87.39 35.47 87.67 35.19 88.08 35.19C88.3115 35.1785 88.5429 35.2157 88.7592 35.2991C88.9755 35.3825 89.1719 35.5103 89.3358 35.6742C89.4997 35.8381 89.6275 36.0345 89.7109 36.2508C89.7943 36.4671 89.8314 36.6985 89.82 36.93V36.93Z" fill="white"/>
<path d="M102.85 15.87C109.5 15.87 113.63 21.06 113.63 26.87C113.63 28.11 112.76 28.87 111.2 28.87H96.11C96.2085 30.7747 97.0526 32.5641 98.4597 33.8515C99.8669 35.1389 101.724 35.8208 103.63 35.75C105.604 35.7566 107.531 35.1446 109.14 34C109.41 33.8253 109.73 33.7444 110.05 33.77C110.488 33.77 110.907 33.9438 111.217 34.2533C111.526 34.5627 111.7 34.9824 111.7 35.42C111.705 35.693 111.641 35.963 111.513 36.2044C111.386 36.4458 111.199 36.6508 110.97 36.8C108.71 38.4062 105.992 39.2409 103.22 39.18C96.61 39.18 91.75 34.51 91.75 27.53C91.75 21.06 96.38 15.87 102.85 15.87ZM96.06 25.87H109.59C109.598 24.9886 109.429 24.1145 109.092 23.3002C108.754 22.4858 108.256 21.748 107.627 21.1308C106.997 20.5136 106.25 20.0298 105.429 19.7083C104.608 19.3869 103.731 19.2344 102.85 19.26C98.4 19.27 96.29 22.85 96.06 25.88V25.87Z" fill="white"/>
<path d="M135.77 36.93C135.771 37.1773 135.724 37.4223 135.63 37.651C135.536 37.8797 135.397 38.0875 135.222 38.2623C135.047 38.4372 134.84 38.5756 134.611 38.6696C134.382 38.7636 134.137 38.8113 133.89 38.81C133.608 38.8235 133.328 38.7687 133.072 38.6503C132.816 38.5319 132.592 38.3534 132.42 38.13L125.77 29.91L119.21 38C119.042 38.2352 118.822 38.4282 118.567 38.5636C118.312 38.699 118.029 38.7731 117.74 38.78C117.238 38.7801 116.755 38.5833 116.396 38.2319C116.037 37.8804 115.83 37.4023 115.82 36.9C115.824 36.4624 115.983 36.0405 116.27 35.71L123.39 27.04L116.73 19.33C116.455 18.992 116.294 18.5753 116.27 18.14C116.27 17.6215 116.471 17.1231 116.831 16.75C117.191 16.3768 117.682 16.1581 118.2 16.14C118.464 16.133 118.726 16.1871 118.965 16.2981C119.204 16.4091 119.415 16.5741 119.58 16.78L125.82 24.21L132 16.84C132.168 16.6369 132.378 16.474 132.617 16.3632C132.856 16.2524 133.117 16.1967 133.38 16.2C133.91 16.2 134.419 16.4107 134.794 16.7858C135.169 17.1609 135.38 17.6696 135.38 18.2C135.342 18.641 135.163 19.0581 134.87 19.39L128.22 27.1L135.38 35.77C135.645 36.0976 135.783 36.5091 135.77 36.93V36.93Z" fill="white"/>
<path d="M151.33 36.93C151.346 37.2698 151.252 37.6056 151.06 37.8869C150.869 38.1682 150.592 38.3799 150.27 38.49C149.274 38.9357 148.191 39.1543 147.1 39.13C143.62 39.13 141.83 37.13 141.83 33.68V20.05H139.72C139.24 20.05 138.78 19.8593 138.44 19.5199C138.101 19.1804 137.91 18.72 137.91 18.24C137.91 17.76 138.101 17.2996 138.44 16.9601C138.78 16.6207 139.24 16.43 139.72 16.43H141.83V12.2C141.83 11.6537 142.047 11.1297 142.433 10.7434C142.82 10.357 143.344 10.14 143.89 10.14C144.443 10.1347 144.975 10.3484 145.37 10.7344C145.766 11.1205 145.992 11.6474 146 12.2V16.43H148.89C149.37 16.43 149.83 16.6207 150.17 16.9601C150.509 17.2996 150.7 17.76 150.7 18.24C150.7 18.72 150.509 19.1804 150.17 19.5199C149.83 19.8593 149.37 20.05 148.89 20.05H146V32.76C146 34.32 146.73 35.47 148.16 35.47C148.93 35.47 149.16 35.19 149.62 35.19C149.849 35.1828 150.077 35.2232 150.29 35.3085C150.503 35.3938 150.695 35.5222 150.856 35.6856C151.017 35.8491 151.142 36.044 151.223 36.2582C151.305 36.4724 151.341 36.7011 151.33 36.93V36.93Z" fill="white"/>
<path d="M183.65 37.09C183.65 37.3133 183.606 37.5343 183.521 37.7406C183.435 37.9468 183.31 38.1342 183.152 38.2921C182.994 38.4499 182.807 38.5752 182.601 38.6606C182.394 38.746 182.173 38.79 181.95 38.79C181.593 38.7911 181.244 38.683 180.95 38.48C180.24 37.94 179.35 37.19 178.43 36.37C176.653 38.0546 174.299 38.9955 171.85 39C167.85 39 164.53 36.86 164.53 32.54C164.53 29.03 166.88 27.27 169.46 25.9C168.52 24.3926 167.973 22.6734 167.87 20.9C167.87 17.84 170.48 15.52 174.02 15.52C177.12 15.52 179.63 17.22 179.63 20.18C179.63 23.62 176.81 25.08 173.99 26.48C174.74 27.53 175.55 28.48 176.2 29.26C176.924 30.1533 177.696 31.0078 178.51 31.82C179.165 30.7539 179.734 29.637 180.21 28.48C180.326 28.1968 180.524 27.9549 180.779 27.7855C181.034 27.6162 181.334 27.5272 181.64 27.53C181.905 27.519 182.168 27.5779 182.403 27.7009C182.638 27.8239 182.836 28.0066 182.978 28.2306C183.12 28.4546 183.201 28.7121 183.211 28.9771C183.222 29.242 183.163 29.5052 183.04 29.74C182.376 31.1863 181.576 32.5659 180.65 33.86C181.4 34.51 182.19 35.12 182.97 35.7C183.188 35.8591 183.363 36.0687 183.482 36.3109C183.6 36.5531 183.658 36.8205 183.65 37.09V37.09ZM176.34 34.4C175.306 33.4573 174.328 32.4557 173.41 31.4C172.59 30.4 171.71 29.28 170.89 28.13C169.43 29.13 168.34 30.31 168.34 32.21C168.323 32.7319 168.414 33.2517 168.607 33.7369C168.8 34.2222 169.091 34.6624 169.461 35.0303C169.832 35.3981 170.274 35.6856 170.761 35.8748C171.248 36.064 171.768 36.1509 172.29 36.13C173.81 36.0875 175.258 35.4692 176.34 34.4V34.4ZM172.59 24.4C174.74 23.4 176.47 22.29 176.47 20.4C176.483 20.1021 176.431 19.805 176.32 19.5286C176.208 19.2521 176.039 19.0028 175.823 18.7973C175.607 18.5917 175.349 18.4348 175.068 18.3369C174.786 18.2391 174.487 18.2026 174.19 18.23C173.827 18.2244 173.467 18.2926 173.131 18.4304C172.795 18.5683 172.491 18.7729 172.236 19.032C171.982 19.291 171.783 19.599 171.651 19.9373C171.519 20.2756 171.458 20.6372 171.47 21C171.573 22.2051 171.957 23.3694 172.59 24.4Z" fill="white"/>
<path d="M221 27.48C221 34.73 216.92 39.13 211.14 39.13C209.718 39.1316 208.317 38.7908 207.055 38.1363C205.793 37.4818 204.708 36.5329 203.89 35.37V45.19C203.885 45.7374 203.665 46.2609 203.278 46.6479C202.891 47.035 202.367 47.2548 201.82 47.26C201.549 47.26 201.28 47.2064 201.029 47.1022C200.779 46.9981 200.551 46.8455 200.36 46.6531C200.168 46.4608 200.017 46.2325 199.914 45.9814C199.811 45.7303 199.759 45.4614 199.76 45.19V18.26C199.759 17.9891 199.811 17.7206 199.914 17.4701C200.017 17.2196 200.169 16.992 200.36 16.8004C200.552 16.6088 200.78 16.4572 201.03 16.3541C201.281 16.251 201.549 16.1987 201.82 16.2C202.366 16.2026 202.89 16.4202 203.277 16.8056C203.665 17.1911 203.885 17.7135 203.89 18.26V19.54C204.726 18.4026 205.818 17.4777 207.077 16.8402C208.337 16.2026 209.728 15.8703 211.14 15.87C216.92 15.87 221 20.23 221 27.48ZM216.69 27.48C216.69 22.89 214.16 19.54 210.03 19.54C208.821 19.5542 207.632 19.8575 206.564 20.4246C205.496 20.9917 204.579 21.8062 203.89 22.8V32.21C204.584 33.1922 205.497 33.9986 206.558 34.5646C207.619 35.1307 208.798 35.4407 210 35.47C214.16 35.47 216.69 32.11 216.69 27.48Z" fill="white"/>
<path d="M225 9.36C224.994 8.83197 225.145 8.31405 225.433 7.87173C225.722 7.42941 226.135 7.08255 226.62 6.87502C227.106 6.66748 227.642 6.60859 228.161 6.7058C228.68 6.803 229.159 7.05193 229.536 7.42111C229.914 7.79028 230.174 8.26313 230.283 8.77985C230.391 9.29658 230.345 9.83397 230.148 10.3241C229.951 10.8142 229.614 11.235 229.178 11.5333C228.742 11.8316 228.228 11.994 227.7 12C226.993 12.0028 226.314 11.7274 225.809 11.2334C225.304 10.7394 225.013 10.0665 225 9.36V9.36ZM225.65 36.75V18.26C225.642 17.9872 225.689 17.7156 225.79 17.4619C225.89 17.2083 226.042 16.9778 226.235 16.7849C226.428 16.5919 226.658 16.4405 226.912 16.3399C227.166 16.2393 227.437 16.1917 227.71 16.2C228.255 16.2052 228.776 16.4239 229.161 16.8091C229.546 17.1943 229.765 17.7153 229.77 18.26V36.75C229.762 37.3026 229.536 37.8295 229.14 38.2156C228.745 38.6016 228.213 38.8154 227.66 38.81C227.395 38.8061 227.133 38.7496 226.89 38.6435C226.647 38.5375 226.427 38.3842 226.244 38.1925C226.06 38.0008 225.917 37.7745 225.822 37.5269C225.727 37.2792 225.682 37.0151 225.69 36.75H225.65Z" fill="white"/>
<path d="M254.86 36.93C254.861 37.1756 254.814 37.419 254.721 37.6464C254.629 37.8738 254.492 38.0806 254.319 38.2552C254.147 38.4298 253.941 38.5686 253.715 38.6638C253.488 38.759 253.246 38.8087 253 38.81C252.718 38.8226 252.438 38.7675 252.182 38.6491C251.926 38.5308 251.703 38.3528 251.53 38.13L244.88 29.91L238.3 38C238.132 38.2352 237.912 38.4282 237.657 38.5636C237.402 38.699 237.119 38.7731 236.83 38.78C236.328 38.7801 235.845 38.5833 235.486 38.2319C235.127 37.8804 234.92 37.4023 234.91 36.9C234.913 36.4605 235.077 36.0372 235.37 35.71L242.48 27.04L235.83 19.33C235.551 18.9942 235.389 18.5762 235.37 18.14C235.37 17.6231 235.569 17.1262 235.927 16.7533C236.285 16.3805 236.774 16.1607 237.29 16.14C237.554 16.133 237.816 16.1871 238.055 16.2981C238.294 16.4091 238.505 16.5741 238.67 16.78L244.91 24.21L251.1 16.78C251.268 16.5769 251.478 16.414 251.717 16.3032C251.956 16.1924 252.217 16.1367 252.48 16.14C253.01 16.14 253.519 16.3507 253.894 16.7258C254.269 17.1009 254.48 17.6096 254.48 18.14C254.441 18.579 254.266 18.9949 253.98 19.33L247.33 27.04L254.48 35.71C254.755 36.0547 254.891 36.4901 254.86 36.93V36.93Z" fill="white"/>
<path d="M268.34 15.87C274.99 15.87 279.12 21.06 279.12 26.87C279.12 28.11 278.25 28.87 276.69 28.87H261.6C261.699 30.7747 262.543 32.5641 263.95 33.8515C265.357 35.1389 267.214 35.8208 269.12 35.75C271.094 35.7566 273.021 35.1446 274.63 34C274.903 33.8238 275.226 33.7429 275.55 33.77C275.988 33.77 276.407 33.9438 276.717 34.2533C277.026 34.5627 277.2 34.9824 277.2 35.42C277.203 35.6938 277.137 35.964 277.008 36.2053C276.878 36.4467 276.69 36.6513 276.46 36.8C274.201 38.4082 271.482 39.243 268.71 39.18C262.1 39.18 257.24 34.51 257.24 27.53C257.24 21.06 261.87 15.87 268.34 15.87ZM261.55 25.87H275.09C275.096 24.9885 274.924 24.1149 274.585 23.3011C274.246 22.4874 273.747 21.7502 273.117 21.1334C272.487 20.5166 271.74 20.0329 270.919 19.7111C270.098 19.3892 269.221 19.2358 268.34 19.26C263.89 19.27 261.78 22.85 261.55 25.88V25.87Z" fill="white"/>
<path d="M283.87 36.75V9.82C283.869 9.54826 283.921 9.27896 284.025 9.02777C284.129 8.77658 284.281 8.54851 284.474 8.35683C284.667 8.16514 284.895 8.01366 285.147 7.9112C285.399 7.80874 285.668 7.75735 285.94 7.76C286.485 7.76521 287.006 7.98392 287.391 8.36912C287.776 8.75432 287.995 9.27527 288 9.82V36.75C287.995 37.2947 287.776 37.8157 287.391 38.2009C287.006 38.5861 286.485 38.8048 285.94 38.81C285.668 38.8127 285.399 38.7613 285.147 38.6588C284.895 38.5563 284.667 38.4049 284.474 38.2132C284.281 38.0215 284.129 37.7934 284.025 37.5422C283.921 37.291 283.869 37.0217 283.87 36.75Z" fill="white"/>
</svg>
