<svg width="134" height="134" viewBox="0 0 134 134" fill="none" xmlns="http://www.w3.org/2000/svg">
<path d="M129.533 37.9664L36.85 130.65L6.7 134C3.35 134 0 130.65 0 127.3L3.35 97.1497L96.0333 4.46641C102.733 -2.23359 112.783 -2.23359 119.483 4.46641L129.533 14.5164C135.117 21.2164 135.117 32.3831 129.533 37.9664ZM37.9667 117.25V108.316H25.6833V96.0331H16.75L11.1667 100.5L8.93333 116.133L16.75 123.95L33.5 122.833L37.9667 117.25ZM43.55 84.8664L90.45 37.9664L82.6333 30.1497L23.45 88.2164H33.5V100.5H45.7833V109.433L104.967 50.2497L96.0333 43.5497L49.1333 90.4497C46.9 92.6831 44.6667 92.6831 43.55 90.4497C41.3167 89.3331 41.3167 87.0997 43.55 84.8664ZM122.833 20.0997L113.9 11.1664C110.55 7.8164 104.967 7.8164 101.617 11.1664L88.2167 23.4497L109.433 44.6664L122.833 32.3831C126.183 29.0331 126.183 23.4497 122.833 20.0997Z" fill="white"/>
</svg>
