<?xml version="1.0" encoding="utf-8"?>
<!-- Generator: Adobe Illustrator 24.2.3, SVG Export Plug-In . SVG Version: 6.00 Build 0)  -->
<svg version="1.1" id="Layer_1" xmlns="http://www.w3.org/2000/svg" xmlns:xlink="http://www.w3.org/1999/xlink" x="0px" y="0px"
	 viewBox="0 0 3148.5 4138" style="enable-background:new 0 0 3148.5 4138;" xml:space="preserve">
<style type="text/css">
	.st0{opacity:0.85;}
	.st1{opacity:0.85;fill:#FF20A4;enable-background:new    ;}
</style>
<g class="st0">
	<path class="st1" d="M1986.3,348.3c-10.4,8.6-20.8,17.2-31.2,25.8c5.1-2.6,9.9-4,14.6-3.6C1976.2,368,1980.5,358.5,1986.3,348.3z"
		/>
	<path class="st1" d="M1926.3,398.2c-1.9,1.7-3.8,3.1-5.5,4.5c-1.8,2.4-3.5,4.6-5.1,6.9C1919.3,405.5,1922.7,401.8,1926.3,398.2z"/>
	<path class="st1" d="M1870.9,453.7c9.5-7,18.8-16.1,28-25.8C1891.1,432.7,1882,440.6,1870.9,453.7z"/>
	<path class="st1" d="M1913.6,422.1c-2.8-1.3-4.1-4.2,1.9-12.4c0,0,0.2-0.2,0.2-0.4c-5.6,6.2-11.2,12.3-16.9,18.4
		C1904.5,424.3,1909.5,422.4,1913.6,422.1z"/>
	<path class="st1" d="M1913.6,422.1c2.8,1.3,7.5,0.5,9.1,1.4C1920.1,422.2,1917.1,421.8,1913.6,422.1z"/>
	<path class="st1" d="M1889.1,534.8c-5.8,8-1.5-21.6-13-5.7c-26.2,30.6-49.3,62.6-73.2,84.1c-11.5,16-25.4,0.2-36.9,16.2
		c-13.2,15.6-37,47.6-52.7,71.3c-15.7,23.7-23.2,38.9-3.9,20.4c58-56.8,96.3-98.2,148.6-149.4c43.2-48.8,85.1-97.8,129.2-145.5
		c12.2-11.7,23.2-19.3,34.2-27c-14.2,8.3-28.9,16.9-45.2,27.3C1955.1,437.9,1924.3,498,1889.1,534.8z"/>
	<path class="st1" d="M2214.3,170.8c-5.8,7.7-17.5,23.2-17.5,23.2c-21.5-1-48.1,28.5-74.4,58.1c3.1,1.7,6.2,3.4,9.6,4.9
		c14.7-13.8,17.4-23.3,5.3-18.9c27.4-7.2,55-27.8,83.9-54.2C2220.3,177.7,2221.8,168.3,2214.3,170.8z"/>
	<path class="st1" d="M2238.1,167.9c-5.7,5.4-11.4,10.8-17.1,16c0,0.7,0.2,1.3,0.3,2c5.8-6.1,11.6-12,17.3-17.8
		C2238.5,168.1,2238.3,168,2238.1,167.9z"/>
	<path class="st1" d="M1752.2,583.9c-72.9,67.3-141.3,129.6-208.4,190.8c-5.7,10.4-9.7,20.1-16.5,23.4c-4.9,0.2-9.9,2.1-15,5.2
		c-9.8,8.8-19.6,17.9-29.2,26.8c-3.5,3.9-6.9,8-10.5,12.1l-0.2,0.4c-5.8,8.5-4.4,11.2-1.3,11.9c3.6-0.8,6.9-0.7,9.5,0.1
		c-1.7-0.4-6.5,0.6-9.5-0.1c-4.4,0.9-9.3,3.1-15.2,7.5c-9.1,10.3-18.5,20.5-28,28.2c11-13.6,20.2-22.6,28-28.2
		c5.8-6.6,11.3-13.3,16.9-19.9c1.7-2.5,3.2-4.7,5-7.1c-22.3,20.4-44.6,40.9-66.8,61.3c-5.2,5.8-10.1,11.1-14.2,15.9
		c-16.5,19.6-32.8,39.2-41.9,35.9c-3.9,3.7-7.9,7.4-11.9,11.1c0.7,0,1.5-0.1,2.2,0.1c-1.7,1-3.2,1.6-4.4,1.9
		c-16.8,15.6-33.7,31.5-50.7,47.5c-11.4,16.3-23,34.2-34.7,49.7c0,0-7.2-1.1-10.7-1.8c-5,11.4-11.9,22.8-19.7,32.9
		c8.7-1.4,16.6-1,24.1-3.5c10.6,2,27-53.1,39-41.1c-12-12-28.4,43.1-39,41.1c-7.4,2.4-15.2,1.9-24.1,3.5
		c-16.3,21.3-36.9,38.1-53.1,42.6c21.5-33.1,38.5-40.3,53.1-42.6c7.9-10.3,14.7-21.5,19.7-32.9c3.5,0.6,10.7,1.8,10.7,1.8
		c11.6-15.5,23.3-33.4,34.7-49.7c-33.1,31.2-66.8,63.5-101.1,97.1c-55.2,53.4-109.7,108.5-163.8,165.9
		c-54.2,57.4-108.2,116.9-162.6,179.5c-54.3,62.6-109.1,128.3-165,198.8c-28,35.4-56.1,71.9-84.7,110.1
		c-28.5,38.2-57.5,78.3-86.9,120.9c-8,11.4-15.9,23.1-23.8,34.8c-7.9,11.9-15.8,23.7-23.7,35.6c-15.8,24.1-31.5,48.6-47.1,74.2
		c-15.6,25.4-31.2,51.8-46.5,78.9c-15.4,27.4-30.5,55.6-45.5,85c-14.9,29.5-29.6,60.2-43.7,92.4l-5.2,12c-0.9,2-1.8,4.1-2.6,6.1
		l-2.6,6.2l-5.1,12.3l-2.6,6.2l-2.5,6.2l-5,12.6l-2.5,6.4l-2.4,6.4l-4.8,12.9l-2.4,6.5l-2.1,5.9c-22.9,62.8-43.3,126.7-60.7,189.2
		c-17.3,62.4-30.9,123.1-41.2,180.6c-10.2,57.5-17.3,111.9-21.9,163.5c-4.5,51.4-6.7,99.9-7.2,145.7c-0.4,45.8,0.7,89.4,3,131.3
		c2.3,41.9,5.7,82,9.6,121.4c4.1,39.2,8.7,77.7,13.7,115.9c10,76.5,21,152.3,31.6,232.2c4.4,30.1,12.3,62.4,22.6,94.5
		c10.3,32.1,23.1,63.8,37,93.2c13.9,29.5,28.8,56.7,43.2,80.6c14.3,23.9,27.9,44.7,39.1,61.4c20.8,11.2,39,7.7,54-3.1
		c7.5-5.4,14.5-13,20.5-21.3c6.2-8.6,11.7-18.1,16.1-28.1c18.2-40.6,26.9-85.8,27.3-91.4c4.7-40.1,5.1-69,2.3-93
		c-2.8-24-8.8-42.5-16.2-62c-7.4-19.6-16.5-40-25.1-67.6c-8.5-27.6-16.8-62.1-22-110.1c4.6,30.9,3.1,46.2-2.2,49.7
		c-5.2,3.5-14-4.9-23-22.8c-8.9-17.8-18.1-44.9-24-78.2c-5.9-33.2-8.6-72.4-5.5-112.9c5.3-59.9,3.9-112.6-0.9-162.6
		c-0.6-6.2-1.2-12.4-1.9-18.6c-0.7-6.2-1.5-12.2-2.2-18.5c-0.7-6.2-1.6-12.3-2.4-18.3c-0.4-3-0.9-6.1-1.3-9.1
		c-0.4-3-0.9-6.1-1.3-9.1c-0.9-6.1-1.8-12.1-2.7-18.2c-0.9-6-1.8-12.1-2.7-18.2c-0.5-3.1-0.9-6.1-1.4-9.1c-0.4-3-0.9-6.1-1.4-9.1
		c-0.9-6.1-1.9-12.2-2.9-18.3c-0.9-6.1-1.8-12.4-2.6-18.7c-0.4-3-1-6.1-1.4-9.3c-0.3-3.2-0.9-6.3-1.2-9.5
		c-0.9-6.3-1.7-12.6-2.5-18.8c-0.7-6.5-1.5-12.8-2.2-19.2l-0.6-4.7l-0.5-5l-0.9-9.9c-0.5-6.6-1.3-13.1-1.8-19.7l-1.4-20.1
		c-0.4-6.8-0.6-13.8-0.9-20.6c-0.1-3.4-0.3-6.8-0.3-10.4l-0.2-10.6l-0.1-10.5c0-3.6-0.1-7,0.1-10.7c0.1-7.1,0.3-14.4,0.5-21.7
		c0-3.6,0.2-7.3,0.5-11c0.2-3.7,0.4-7.5,0.6-11c0.2-3.7,0.5-7.4,0.7-11.2c0.2-3.7,0.6-7.6,1-11.3c0.7-7.6,1.4-15,2.2-22.5
		c1.9-15.2,3.7-30.5,6.6-46.1c0.7-3.8,1.3-7.6,1.9-11.4c0.3-1.8,0.6-3.8,0.9-5.8c0.3-2,0.7-3.8,1-5.8c1.3-7.6,2.5-15.5,3.6-23.1
		c1.2-7.6,2.5-15.5,3.8-23.3c0.3-2,0.6-3.8,0.9-5.8c0.3-2,0.6-3.8,0.9-5.8c0.8-4,1.3-7.8,2-11.9c2.6-15.9,5.8-32.1,9.1-48.9
		c1.8-8.4,3.7-16.9,5.5-25.5c0.5-2.2,1-4.4,1.6-6.5c0.6-2.2,1.1-4.4,1.6-6.5c1.1-4.4,2.2-8.9,3.3-13.3l1.2-4.3
		c0.4-1.5,0.9-3,1.3-4.5l2.7-8.7c1.8-5.7,3.6-11.7,5.3-17.5c0.8-2.8,1.8-5.7,2.8-8.7l2.8-8.7c1.9-5.7,3.6-11.4,5.5-17.2
		c1.9-5.7,3.9-11.4,5.8-17l2.8-8.4l1.4-4.2l1.5-4.2c2-5.6,4-11.3,6-16.8l3-8.4l0.4-1c0.2-0.4,0.2-0.6,0.3-0.8l0.6-1.4l1.2-3.1
		c6.1-16,13.3-33.2,21.4-51.3c8.1-18.1,17.3-37.1,27.2-56.9c10-19.7,20.8-40.1,32.1-60.5c2.9-5.1,5.7-10.4,8.7-15.5l8.9-15.6
		l9.1-15.6c1.4-2.5,3-5.3,4.6-7.7l4.7-8c12.5-20.9,25.3-42.1,38.5-63c13.2-21.1,26.8-42,40.7-63.1c27.7-41.9,56.4-83.4,86-124.6
		c7.4-10.3,14.8-20.5,22.2-30.7c3.7-5,7.5-10.2,11.2-15.2c3.7-5,7.5-10.2,11.3-15.2c3.7-5,7.6-10.2,11.4-15.1
		c3.8-5,7.7-10.1,11.5-15.1c7.7-10.1,15.3-20,23.1-30.1c61.8-79.7,126-156.8,192.4-230.1c35.2-40,68.5-82.8,100.6-125.2
		c32.2-42.6,63.1-84.7,93.5-123.2c22-25.3,44.7-47,66.2-66.5c21.5-19.5,41.9-37.3,59.8-55.4c56.1-57.1,105-114.4,152.3-171.8
		c-26.1,27.8-48.7,52.8-72,78.8c-23.3,26-47.4,52.6-76.3,83.8c-19.3,20.4-12.1,4.8,3.2-20c15.3-24.8,38.7-58.6,51.8-75.2
		c5.7-8.5,12.3-9.5,19-10.5c6.6-1,13.2-1.8,18.9-10.3c23.8-23.4,46.5-57.3,72.5-89.8c11.4-16.8,8,12.2,13.8,3.7
		c35.2-39.9,64.9-101.1,86.6-114.6c16.5-11.9,31.3-21.9,45.8-31.5c9.3-7.4,18.4-14.8,28.4-25.2c6.3-8,13-16.4,19.5-24.6
		c-4.3-3.8-5.1-12.7-5.9-21.6c9-7,21.4-12.9,30.5-19.8c-9,7-21.4,12.9-30.5,19.8c0.8,8.9,1.6,17.8,5.9,21.6
		c47.3-59.1,101.5-122.4,151.8-178.9c-0.2-0.5-0.3-1.3-0.4-1.8c-29,28.8-56.7,51.6-85,62.1c12.3-5.7,10,3.6-4.9,18.8
		c-3.3-1.3-6.7-2.4-10-3.6c26.3-31.5,52.8-62.9,75.2-64.7c0,0,11.6-16.3,17.3-24.3c7.7-3.4,6.5,5.8,7.4,11.9
		c5.7-5.7,11.4-11.5,17.2-17.4c-5.3-1.6-16.9,1.6-27.2,5.2C1761.2,579.8,1752.2,583.9,1752.2,583.9z"/>
	<path class="st1" d="M1455.2,861.7c4-4.6,8.9-10.1,14.1-15.7c-18.6,16.8-37.3,33.9-56,50.9C1422.3,900.6,1438.8,881,1455.2,861.7z"
		/>
</g>
</svg>
