<?xml version="1.0" encoding="utf-8"?>
<!-- Generator: Adobe Illustrator 24.2.3, SVG Export Plug-In . SVG Version: 6.00 Build 0)  -->
<svg version="1.1" id="Layer_1" xmlns="http://www.w3.org/2000/svg" xmlns:xlink="http://www.w3.org/1999/xlink" x="0px" y="0px"
	 viewBox="0 0 3148.5 4138" style="enable-background:new 0 0 3148.5 4138;" xml:space="preserve">
<style type="text/css">
	.st0{opacity:0.85;}
	.st1{opacity:0.85;fill:#FF20A4;enable-background:new    ;}
</style>
<g class="st0">
	<path class="st1" d="M2044,376.2c-10.7,8.2-21.4,16.5-32,24.7c5.2-2.4,10-3.7,14.7-3.1C2033.2,395.6,2037.9,386.2,2044,376.2z"/>
	<path class="st1" d="M1982.4,424.1c-2,1.6-3.9,3-5.6,4.3c-1.9,2.3-3.7,4.5-5.3,6.7C1975.1,431.2,1978.6,427.6,1982.4,424.1z"/>
	<path class="st1" d="M1925.1,477.7c9.7-6.7,19.3-15.5,28.8-24.8C1946,457.4,1936.7,465,1925.1,477.7z"/>
	<path class="st1" d="M1968.9,447.6c-2.8-1.4-4-4.3,2.3-12.3c0,0,0.2-0.2,0.2-0.4c-5.8,6-11.6,11.9-17.5,17.8
		C1959.7,449.5,1964.8,447.7,1968.9,447.6z"/>
	<path class="st1" d="M1968.9,447.6c2.8,1.4,7.5,0.8,9,1.7C1975.4,447.9,1972.4,447.4,1968.9,447.6z"/>
	<path class="st1" d="M1940.6,559.4c-6.1,7.8-0.8-21.6-12.8-6.1c-27.2,29.7-51.4,60.9-76,81.6c-12,15.6-25.4-0.7-37.4,15
		c-13.7,15.1-38.6,46.3-55.1,69.5s-24.5,38.1-4.6,20.3c59.9-54.8,99.5-94.9,153.5-144.3c44.8-47.3,88.3-94.9,134-141.1
		c12.6-11.3,23.8-18.5,35.1-25.8c-14.5,7.8-29.5,15.9-46.1,25.8C2009.8,464.7,1977,523.8,1940.6,559.4z"/>
	<path class="st1" d="M2277.8,206.5c-6.1,7.5-18.3,22.6-18.3,22.6c-21.5-1.7-49,26.9-76.3,55.6c3,1.8,6.1,3.6,9.4,5.2
		c15.2-13.3,18.2-22.7,5.9-18.7c27.6-6.3,55.9-25.9,85.7-51.4C2283.6,213.6,2285.4,204.2,2277.8,206.5z"/>
	<path class="st1" d="M2301.7,204.4c-5.9,5.2-11.8,10.4-17.6,15.4c0,0.7,0.2,1.3,0.2,2c6-5.9,12-11.6,17.9-17.2
		C2302.1,204.6,2301.9,204.5,2301.7,204.4z"/>
	<path class="st1" d="M1802.1,603.9c-75.1,64.8-145.6,124.8-214.7,183.7c-6,10.2-10.4,19.8-17.3,22.8c-4.9,0-10,1.8-15.2,4.7
		c-10.1,8.5-20.2,17.2-30.1,25.8c-3.6,3.8-7.2,7.8-10.9,11.7l-0.2,0.4c-6.1,8.3-4.8,11-1.7,11.8c3.6-0.7,6.9-0.5,9.5,0.4
		c-1.7-0.5-6.5,0.4-9.5-0.4c-4.4,0.8-9.4,2.8-15.4,7c-9.4,10-19.2,19.9-28.9,27.2c11.4-13.2,20.9-21.9,28.9-27.2
		c6-6.4,11.7-12.9,17.6-19.3c1.8-2.4,3.4-4.6,5.2-6.9c-23,19.6-45.9,39.4-68.8,59c-5.4,5.6-10.5,10.8-14.7,15.4
		c-17.1,19-34.1,38.1-43.1,34.5c-4,3.6-8.1,7.1-12.3,10.7c0.7,0,1.5,0,2.2,0.2c-1.7,0.9-3.3,1.5-4.5,1.8
		c-17.3,15-34.7,30.4-52.3,45.8c-11.9,15.9-24.1,33.4-36.3,48.5c0,0-7.2-1.3-10.6-2.2c-5.4,11.2-12.7,22.4-20.8,32.2
		c8.7-1.1,16.6-0.4,24.2-2.7c10.5,2.4,28.8-52.2,40.4-39.8c-11.6-12.4-29.8,42.1-40.4,39.8c-7.5,2.2-15.3,1.4-24.2,2.7
		c-17,20.7-38.2,36.8-54.5,40.8c22.6-32.4,39.8-39,54.5-40.8c8.2-10,15.4-21,20.8-32.2c3.5,0.7,10.6,2.2,10.6,2.2
		c12.1-15.1,24.4-32.6,36.3-48.5c-34.1,30.1-68.9,61.2-104.3,93.7c-57,51.5-113.3,104.8-169.3,160.3
		c-56.1,55.6-112.1,113.2-168.5,173.9c-56.4,60.7-113.3,124.6-171.6,193.2c-29.2,34.4-58.5,70-88.3,107.2
		c-29.8,37.2-60.1,76.3-90.9,117.9c-8.4,11.1-16.7,22.6-25,34c-8.3,11.6-16.6,23.2-24.9,34.8c-16.6,23.6-33.1,47.5-49.6,72.6
		c-16.4,24.9-32.9,50.7-49.1,77.3c-16.3,26.9-32.3,54.5-48.3,83.4c-15.9,29-31.6,59.2-46.8,90.9l-5.6,11.8c-1,2-1.9,4-2.8,6
		l-2.8,6.1l-5.5,12.1l-2.8,6.1l-2.7,6.1l-5.4,12.4l-2.7,6.3l-2.6,6.3l-5.2,12.7l-2.6,6.4l-2.3,5.8c-25,62-47.5,125.2-67,187.1
		c-19.4,61.8-35,122-47.2,179.1c-12.1,57.1-21,111.3-27.4,162.7c-6.2,51.2-10,99.6-12.1,145.4c-1.9,45.8-2.3,89.4-1.4,131.3
		c0.9,42,2.9,82.1,5.5,121.7c2.8,39.3,6.1,77.9,9.8,116.3c7.4,76.8,15.9,152.9,23.8,233.1c3.4,30.2,10.2,62.8,19.4,95.2
		c9.2,32.4,20.9,64.5,33.9,94.4c12.9,29.9,26.9,57.6,40.5,82c13.5,24.4,26.4,45.6,37,62.7c20.4,11.9,38.7,9,54.1-1.3
		c7.7-5.1,14.9-12.5,21.2-20.6c6.5-8.4,12.3-17.7,17-27.5c19.6-40,29.8-84.9,30.3-90.4c6-39.9,7.4-68.8,5.4-92.9
		s-7.4-42.8-14.1-62.5c-6.7-19.8-15.1-40.5-22.8-68.4c-7.6-27.9-14.7-62.6-18.3-110.8c3.6,31,1.5,46.3-3.9,49.6
		c-5.3,3.3-13.8-5.4-22.2-23.6c-8.3-18.1-16.6-45.5-21.4-79c-4.8-33.4-6.2-72.6-1.7-113c7.3-59.7,7.7-112.4,4.6-162.5
		c-0.4-6.2-0.8-12.4-1.3-18.7c-0.5-6.2-1.1-12.2-1.6-18.6c-0.5-6.2-1.2-12.3-1.8-18.4c-0.3-3-0.7-6.1-1-9.1c-0.3-3-0.7-6.1-1-9.1
		c-0.7-6.1-1.4-12.2-2.1-18.3c-0.7-6-1.4-12.2-2.1-18.3c-0.4-3.1-0.7-6.1-1.1-9.1c-0.3-3-0.7-6.1-1.1-9.1
		c-0.7-6.1-1.5-12.3-2.3-18.4c-0.7-6.1-1.4-12.5-2-18.8c-0.3-3-0.8-6.1-1.1-9.3c-0.2-3.2-0.7-6.3-0.9-9.5
		c-0.7-6.3-1.3-12.6-1.9-18.9c-0.5-6.5-1.1-12.8-1.6-19.3l-0.4-4.7l-0.3-5l-0.6-9.9c-0.3-6.6-0.9-13.1-1.1-19.7l-0.7-20.1
		c-0.2-6.8-0.1-13.8-0.2-20.6c0-3.4-0.1-6.8,0-10.4l0.2-10.6l0.3-10.5c0.1-3.6,0.1-7,0.5-10.7c0.3-7.1,0.8-14.4,1.2-21.7
		c0.1-3.6,0.4-7.3,0.9-11c0.3-3.7,0.7-7.5,1-11c0.3-3.7,0.7-7.4,1.1-11.2c0.3-3.7,0.9-7.6,1.4-11.3c1-7.6,1.9-14.9,3-22.4
		c2.4-15.1,4.7-30.4,8.1-45.9c0.8-3.8,1.6-7.6,2.3-11.3c0.4-1.8,0.7-3.8,1.1-5.8s0.8-3.8,1.2-5.8c1.6-7.6,3-15.4,4.4-23
		c1.5-7.6,3-15.4,4.6-23.2c0.4-2,0.7-3.8,1.1-5.8c0.4-2,0.7-3.8,1.1-5.8c0.9-4,1.6-7.8,2.4-11.8c3.1-15.8,6.9-31.9,10.7-48.6
		c2.1-8.3,4.3-16.8,6.4-25.3c0.6-2.2,1.1-4.4,1.8-6.4c0.7-2.2,1.2-4.4,1.8-6.4c1.2-4.4,2.5-8.8,3.7-13.2l1.3-4.3
		c0.5-1.5,1-3,1.5-4.5l3-8.6c2-5.6,4-11.6,5.9-17.3c0.9-2.8,2-5.6,3.1-8.6l3.1-8.6c2.1-5.6,4-11.3,6.1-17c2.1-5.6,4.3-11.3,6.4-16.8
		l3.1-8.3l1.5-4.2l1.6-4.1c2.2-5.5,4.4-11.2,6.6-16.6l3.3-8.3l0.4-1c0.2-0.4,0.2-0.6,0.3-0.8l0.6-1.4l1.3-3.1
		c6.6-15.8,14.4-32.7,23.1-50.6c8.7-17.8,18.5-36.5,29.1-56c10.7-19.4,22.1-39.4,34.1-59.4c3.1-5,6-10.2,9.2-15.2l9.4-15.3l9.6-15.3
		c1.5-2.5,3.2-5.2,4.9-7.5l5-7.8c13.2-20.5,26.7-41.2,40.6-61.7c13.9-20.6,28.2-41.1,42.8-61.7c29.1-40.9,59.2-81.5,90.1-121.6
		c7.7-10,15.5-20,23.2-29.9c3.9-4.9,7.8-9.9,11.7-14.8s7.8-9.9,11.8-14.8c3.9-4.9,7.9-9.9,11.9-14.7c4-4.9,8-9.8,12-14.7
		c8-9.8,16-19.5,24.1-29.3c64.4-77.6,131.2-152.5,200-223.5c36.5-38.8,71.2-80.5,104.7-121.8c33.6-41.5,65.9-82.5,97.6-120
		c22.8-24.5,46.3-45.5,68.4-64.2c22.1-18.8,43.1-35.9,61.6-53.4c58-55.2,108.8-110.8,158-166.6c-27,26.9-50.4,51.1-74.6,76.3
		c-24.2,25.2-49.1,51-79.1,81.2c-20,19.7-12.3,4.4,3.9-19.9c16.1-24.3,40.6-57.3,54.3-73.4c6-8.3,12.6-9.1,19.3-9.9
		c6.6-0.8,13.3-1.4,19.2-9.7c24.6-22.6,48.4-55.7,75.5-87.3c12-16.4,7.6,12.5,13.7,4.2c36.5-38.7,68.3-98.9,90.4-111.6
		c16.9-11.3,32-20.8,46.8-29.9c9.5-7.1,18.9-14.2,29.2-24.2c6.6-7.8,13.5-16,20.3-23.9c-4.2-3.9-4.7-12.9-5.2-21.8
		c9.2-6.7,21.8-12.2,31.1-18.8c-9.2,6.7-21.8,12.2-31.1,18.8c0.5,8.9,1,17.8,5.2,21.8c49.3-57.5,105.5-118.9,157.7-173.7
		c-0.2-0.5-0.3-1.3-0.3-1.8c-29.9,27.8-58.4,49.7-87,59.2c12.5-5.3,9.9,3.9-5.5,18.6c-3.3-1.4-6.6-2.6-9.9-3.9
		c27.3-30.6,54.9-61.1,77.3-62.1c0,0,12.1-15.9,18.1-23.7c7.8-3.1,6.3,6,7,12.1c5.9-5.5,11.8-11.1,17.8-16.8
		c-5.2-1.8-16.9,1-27.4,4.3C1811.3,600.1,1802.1,603.9,1802.1,603.9z"/>
	<path class="st1" d="M1496,871.6c4.2-4.5,9.2-9.8,14.6-15.2c-19.2,16.2-38.4,32.6-57.7,49C1461.8,909.3,1478.9,890.3,1496,871.6z"
		/>
</g>
</svg>
