<?xml version="1.0" encoding="utf-8"?>
<!-- Generator: Adobe Illustrator 24.2.3, SVG Export Plug-In . SVG Version: 6.00 Build 0)  -->
<svg version="1.1" id="Layer_1" xmlns="http://www.w3.org/2000/svg" xmlns:xlink="http://www.w3.org/1999/xlink" x="0px" y="0px"
	 viewBox="0 0 3148.5 4138" style="enable-background:new 0 0 3148.5 4138;" xml:space="preserve">
<style type="text/css">
	.st0{opacity:0.85;}
	.st1{opacity:0.85;fill:#FF20A4;enable-background:new    ;}
</style>
<g class="st0">
	<path class="st1" d="M1983.3,353.7c-10.4,8.9-20.8,17.8-31.1,26.7c5.1-2.7,9.9-4.2,14.6-3.7
		C1973.2,374.1,1977.5,364.2,1983.3,353.7z"/>
	<path class="st1" d="M1923.4,405.4c-1.9,1.7-3.8,3.2-5.4,4.6c-1.8,2.4-3.5,4.8-5.1,7.1C1916.4,413,1919.8,409.1,1923.4,405.4z"/>
	<path class="st1" d="M1868.1,462.8c9.5-7.3,18.7-16.7,27.9-26.6C1888.3,441.1,1879.3,449.3,1868.1,462.8z"/>
	<path class="st1" d="M1910.8,430.1c-2.8-1.4-4.2-4.3,1.9-12.8c0,0,0.2-0.2,0.2-0.4c-5.6,6.4-11.2,12.7-16.8,19
		C1901.7,432.4,1906.7,430.4,1910.8,430.1z"/>
	<path class="st1" d="M1910.8,430.1c2.8,1.4,7.5,0.6,9.1,1.4C1917.3,430.2,1914.3,429.8,1910.8,430.1z"/>
	<path class="st1" d="M1886.6,546.7c-5.8,8.3-1.6-22.3-13-5.9c-26.1,31.7-49.2,64.8-73,87c-11.4,16.5-25.4,0.2-36.8,16.8
		c-13.1,16.1-36.9,49.2-52.6,73.8c-15.7,24.6-23.1,40.3-3.9,21.2c57.9-58.8,96-101.6,148.2-154.6c43.1-50.5,84.8-101.2,128.8-150.6
		c12.2-12.1,23.1-20,34.1-27.9c-14.2,8.6-28.9,17.5-45.1,28.3C1952.3,446.4,1921.6,508.7,1886.6,546.7z"/>
	<path class="st1" d="M2210.8,170.1c-5.8,8-17.5,24-17.5,24c-21.5-1-48,29.5-74.2,60.2c3.1,1.8,6.2,3.5,9.6,5
		c14.7-14.3,17.4-24.1,5.2-19.5c27.4-7.5,54.9-28.7,83.8-56.1C2216.9,177.2,2218.3,167.4,2210.8,170.1z"/>
	<path class="st1" d="M2234.6,167.1c-5.7,5.6-11.4,11.2-17,16.5c0,0.7,0.2,1.3,0.3,2.1c5.8-6.3,11.6-12.4,17.3-18.4
		C2235,167.2,2234.8,167.2,2234.6,167.1z"/>
	<path class="st1" d="M1749.7,597.6c-72.7,69.6-141,134.1-207.9,197.4c-5.6,10.8-9.7,20.8-16.5,24.2c-4.9,0.2-9.9,2.2-15,5.4
		c-9.8,9.1-19.6,18.5-29.2,27.7c-3.5,4.1-6.9,8.3-10.5,12.5l-0.2,0.4c-5.8,8.8-4.4,11.5-1.3,12.3c3.6-0.8,6.9-0.8,9.5,0.1
		c-1.7-0.5-6.5,0.6-9.5-0.1c-4.4,1-9.3,3.2-15.1,7.8c-9,10.7-18.5,21.2-27.9,29.1c10.9-14,20.1-23.4,27.9-29.1
		c5.8-6.8,11.2-13.7,16.9-20.6c1.7-2.5,3.2-4.9,4.9-7.3c-22.3,21.1-44.5,42.3-66.6,63.4c-5.2,6-10.1,11.5-14.1,16.4
		c-16.4,20.2-32.7,40.6-41.8,37.2c-3.9,3.9-7.8,7.6-11.9,11.5c0.7,0,1.5-0.1,2.2,0.1c-1.7,1-3.2,1.7-4.4,2
		c-16.7,16.1-33.6,32.6-50.6,49.2c-11.3,16.9-22.9,35.4-34.5,51.4c0,0-7.2-1.1-10.7-1.9c-5,11.8-11.9,23.6-19.6,34
		c8.7-1.4,16.6-1,24.1-3.6c10.6,2.1,26.9-55,38.9-42.6c-12-12.4-28.3,44.6-38.9,42.6c-7.4,2.5-15.2,2-24.1,3.6
		c-16.2,22-36.8,39.4-53,44.1c21.4-34.3,38.4-41.7,53-44.1c7.8-10.6,14.6-22.3,19.6-34c3.5,0.6,10.7,1.9,10.7,1.9
		c11.5-16,23.2-34.6,34.5-51.4c-33,32.3-66.7,65.7-100.9,100.5c-55.1,55.2-109.5,112.3-163.4,171.7c-54.1,59.5-108,121-162.1,185.7
		s-108.7,132.8-164.5,205.8c-27.9,36.6-55.9,74.4-84.4,113.9c-28.4,39.5-57.3,81-86.6,125.1c-8,11.8-15.9,24-23.8,36
		c-7.9,12.3-15.8,24.6-23.6,36.9c-15.7,25-31.4,50.3-47,76.8c-15.5,26.3-31.1,53.6-46.3,81.6c-15.3,28.4-30.3,57.5-45.3,87.9
		c-14.8,30.5-29.4,62.3-43.5,95.6l-5.2,12.4c-0.9,2.1-1.8,4.2-2.6,6.3l-2.6,6.4l-5.1,12.7l-2.6,6.4l-2.5,6.4l-4.9,13l-2.5,6.6
		l-2.4,6.6l-4.7,13.3l-2.4,6.7l-2.1,6.1c-22.7,65-43,131.1-60.2,195.8c-17.2,64.6-30.6,127.4-40.7,186.9
		c-10,59.5-17,115.8-21.5,169.2c-4.4,53.2-6.4,103.3-6.9,150.8c-0.2,47.4,0.9,92.5,3.3,135.8c2.4,43.4,5.9,84.8,9.9,125.7
		c4.2,40.5,8.9,80.3,14,119.9c10.2,79.2,21.4,157.6,32.2,240.2c4.5,31.1,12.5,64.6,22.8,97.8c10.4,33.2,23.2,66,37.3,96.4
		c14,30.5,29,58.6,43.4,83.4c14.4,24.8,28,46.2,39.2,63.5c20.8,11.6,39,8,54-3.2c7.5-5.5,14.4-13.4,20.4-22c6.2-8.9,11.7-18.7,16-29
		c18.1-42,26.7-88.8,27-94.5c4.6-41.5,4.9-71.4,2-96.3c-2.9-24.9-8.9-44-16.3-64.1c-7.4-20.2-16.6-41.4-25.3-69.9
		c-8.6-28.6-16.9-64.2-22.3-113.9c4.7,31.9,3.2,47.8-2.1,51.4c-5.2,3.6-14-5.1-23-23.6c-8.9-18.4-18.2-46.5-24.2-80.9
		c-6-34.4-8.8-74.9-5.8-116.8c5.1-62,3.6-116.5-1.3-168.2c-0.6-6.4-1.2-12.8-2-19.3c-0.7-6.4-1.5-12.6-2.3-19.2
		c-0.7-6.4-1.6-12.7-2.5-19c-0.4-3.1-0.9-6.3-1.3-9.4s-0.9-6.3-1.3-9.4c-0.9-6.3-1.8-12.6-2.8-18.9c-0.9-6.2-1.8-12.6-2.8-18.9
		c-0.5-3.2-0.9-6.3-1.4-9.4c-0.4-3.1-0.9-6.3-1.4-9.4c-0.9-6.3-1.9-12.7-3-18.9c-0.9-6.3-1.8-12.9-2.7-19.4c-0.4-3.1-1-6.3-1.4-9.6
		c-0.3-3.3-0.9-6.5-1.2-9.8c-0.9-6.5-1.8-13-2.6-19.5c-0.7-6.7-1.6-13.2-2.3-19.9l-0.6-4.8l-0.5-5.2l-1-10.2
		c-0.5-6.8-1.4-13.5-1.8-20.3l-1.4-20.8c-0.4-7-0.6-14.3-0.9-21.3c-0.1-3.5-0.3-7-0.4-10.8l-0.2-11l-0.1-10.9
		c0-3.7-0.2-7.2,0.1-11.1c0-7.4,0.3-14.9,0.4-22.5c0-3.7,0.1-7.6,0.5-11.4c0.2-3.8,0.4-7.8,0.6-11.4c0.2-3.8,0.4-7.7,0.7-11.6
		c0.2-3.8,0.6-7.9,1-11.7c0.7-7.9,1.4-15.5,2.2-23.3c1.9-15.7,3.6-31.6,6.4-47.7c0.7-4,1.3-7.9,1.9-11.8c0.3-1.9,0.6-4,0.9-6
		c0.3-2.1,0.7-4,1-6c1.3-7.9,2.4-16,3.6-23.9c1.2-7.9,2.4-16,3.8-24.2c0.3-2.1,0.6-4,0.9-6c0.3-2.1,0.6-4,0.9-6
		c0.8-4.2,1.3-8.1,2-12.3c2.5-16.4,5.7-33.2,8.9-50.6c1.8-8.7,3.7-17.5,5.5-26.4c0.5-2.3,0.9-4.6,1.6-6.7c0.6-2.3,1-4.6,1.6-6.7
		c1-4.6,2.2-9.2,3.2-13.8l1.1-4.5c0.4-1.6,0.9-3.1,1.3-4.7l2.7-9c1.8-5.9,3.6-12.1,5.3-18.1c0.8-2.9,1.8-5.9,2.8-9l2.8-9
		c1.9-5.9,3.6-11.8,5.5-17.8c1.9-5.9,3.9-11.8,5.8-17.6l2.8-8.7l1.3-4.4l1.5-4.3c2-5.8,4-11.7,6-17.4l3-8.7l0.4-1
		c0.2-0.4,0.2-0.6,0.3-0.8l0.5-1.5l1.2-3.3c6-16.6,13.2-34.3,21.3-53.1c8.1-18.7,17.2-38.4,27.1-58.9c10-20.4,20.7-41.5,31.9-62.6
		c2.9-5.3,5.6-10.8,8.6-16l8.8-16.1l9-16.2c1.4-2.6,3-5.5,4.6-7.9l4.7-8.2c12.5-21.7,25.2-43.5,38.4-65.2
		c13.1-21.8,26.7-43.5,40.5-65.3c27.6-43.3,56.2-86.3,85.7-128.9c7.3-10.6,14.8-21.2,22.1-31.7c3.7-5.2,7.4-10.5,11.2-15.7
		c3.7-5.2,7.4-10.5,11.3-15.7c3.7-5.2,7.5-10.5,11.4-15.6c3.8-5.2,7.6-10.4,11.5-15.6c7.6-10.4,15.3-20.7,23-31.1
		c61.6-82.5,125.6-162.3,191.8-238.1c35.1-41.4,68.3-85.7,100.2-129.6c32.1-44.1,62.9-87.6,93.2-127.5c21.9-26.1,44.6-48.7,66-68.8
		c21.4-20.2,41.8-38.6,59.6-57.4c56-59.1,104.7-118.4,151.9-177.8c-26,28.8-48.5,54.6-71.8,81.5c-23.3,26.9-47.2,54.4-76.1,86.7
		c-19.3,21.1-12.1,5,3.2-20.7c15.2-25.7,38.5-60.7,51.6-77.8c5.7-8.8,12.3-9.8,18.9-10.9c6.6-1.1,13.2-1.9,18.8-10.7
		c23.8-24.2,46.4-59.3,72.3-92.9c11.4-17.4,8,12.7,13.8,3.9c35.1-41.3,64.7-104.7,86.3-118.6c16.5-12.3,31.2-22.6,45.7-32.6
		c9.2-7.7,18.4-15.3,28.3-26c6.3-8.3,12.9-17,19.4-25.4c-4.3-3.9-5.2-13.2-6-22.4c9-7.2,21.3-13.4,30.4-20.5
		c-9,7.2-21.3,13.4-30.4,20.5c0.8,9.2,1.6,18.4,6,22.4c47.2-61.2,101.1-126.6,151.3-185.1c-0.2-0.5-0.3-1.3-0.4-1.9
		c-28.9,29.8-56.6,53.4-84.8,64.2c12.3-5.9,10,3.7-4.8,19.4c-3.3-1.3-6.7-2.5-10-3.7c26.2-32.6,52.7-65.1,75-66.9
		c0,0,11.5-16.9,17.2-25.1c7.7-3.5,6.5,6,7.4,12.3c5.7-5.9,11.4-11.9,17.2-18c-5.3-1.7-16.9,1.6-27.2,5.4
		C1758.8,593.3,1749.7,597.6,1749.7,597.6z"/>
	<path class="st1" d="M1453.5,885.1c4-4.8,8.8-10.5,14-16.2c-18.6,17.4-37.2,35-55.9,52.7C1420.7,925.3,1437.1,905,1453.5,885.1z"/>
</g>
</svg>
