<svg width="438" height="83" viewBox="0 0 438 83" fill="none" xmlns="http://www.w3.org/2000/svg">
<path d="M27.17 61.055C27.17 61.815 26.9167 62.4483 26.41 62.955C25.9033 63.4617 25.2383 63.8733 24.415 64.19C23.655 64.57 22.7683 64.8233 21.755 64.95C20.7417 65.0767 19.7283 65.14 18.715 65.14C15.295 65.14 12.73 64.2217 11.02 62.385C9.37333 60.485 8.55 57.825 8.55 54.405V24.385H3.42C2.53333 24.385 1.805 24.1 1.235 23.53C0.665 22.8967 0.38 22.105 0.38 21.155C0.38 20.2683 0.665 19.54 1.235 18.97C1.805 18.4 2.53333 18.115 3.42 18.115H8.55V8.425C8.55 7.53833 8.89833 6.74666 9.595 6.05C10.2917 5.35333 11.1783 5.005 12.255 5.005C13.1417 5.005 13.9333 5.35333 14.63 6.05C15.3267 6.74666 15.675 7.53833 15.675 8.425V18.115H22.515C23.4017 18.115 24.13 18.4317 24.7 19.065C25.27 19.635 25.555 20.395 25.555 21.345C25.555 22.2317 25.27 22.96 24.7 23.53C24.13 24.1 23.4017 24.385 22.515 24.385H15.675V52.885C15.675 54.595 16.055 56.02 16.815 57.16C17.575 58.2367 18.7467 58.775 20.33 58.775C20.9633 58.775 21.5967 58.68 22.23 58.49C22.9267 58.2367 23.56 58.11 24.13 58.11C24.9533 58.11 25.65 58.395 26.22 58.965C26.8533 59.535 27.17 60.2317 27.17 61.055ZM76.9448 39.49C76.9448 40.5667 76.5648 41.485 75.8048 42.245C75.0448 43.005 74.1265 43.385 73.0498 43.385H39.8948C40.0215 45.5383 40.4965 47.5967 41.3198 49.56C42.1431 51.46 43.2515 53.1383 44.6448 54.595C46.1015 55.9883 47.8115 57.1283 49.7748 58.015C51.7381 58.8383 53.9548 59.25 56.4248 59.25C58.6415 59.25 60.7948 58.9017 62.8848 58.205C64.9748 57.5083 66.9381 56.4317 68.7748 54.975C69.2815 54.6583 69.8198 54.5 70.3898 54.5C71.0231 54.5 71.6565 54.785 72.2898 55.355C72.9231 55.8617 73.2398 56.5583 73.2398 57.445C73.2398 58.4583 72.8915 59.2183 72.1948 59.725C69.9148 61.5617 67.4131 62.9233 64.6898 63.81C61.9665 64.6967 58.9898 65.14 55.7598 65.14C52.3398 65.14 49.2048 64.57 46.3548 63.43C43.5048 62.2267 41.0348 60.58 38.9448 58.49C36.9181 56.3367 35.3031 53.8033 34.0998 50.89C32.9598 47.9133 32.3898 44.62 32.3898 41.01C32.3898 37.7167 32.9598 34.6133 34.0998 31.7C35.2398 28.7233 36.7915 26.1583 38.7548 24.005C40.7815 21.8517 43.1565 20.1417 45.8798 18.875C48.6665 17.6083 51.7065 16.975 54.9998 16.975C57.8498 16.975 60.4465 17.4183 62.7898 18.305C65.1331 19.1283 67.1915 20.3317 68.9648 21.915C70.8015 23.4983 72.3215 25.3667 73.5248 27.52C74.7915 29.6733 75.7098 32.08 76.2798 34.74C76.4065 35.4367 76.5331 36.1967 76.6598 37.02C76.8498 37.8433 76.9448 38.6667 76.9448 39.49ZM70.0098 38.16C70.0098 36.45 69.6931 34.7083 69.0598 32.935C68.4898 31.0983 67.5715 29.4517 66.3048 27.995C65.1015 26.475 63.5498 25.24 61.6498 24.29C59.7498 23.34 57.5015 22.865 54.9048 22.865C52.4348 22.865 50.2815 23.34 48.4448 24.29C46.6081 25.24 45.0565 26.4433 43.7898 27.9C42.5865 29.3567 41.6365 31.0033 40.9398 32.84C40.3065 34.6133 39.9581 36.3867 39.8948 38.16H70.0098ZM123.73 61.34C123.73 62.1 123.413 62.86 122.78 63.62C122.21 64.3167 121.418 64.665 120.405 64.665C119.898 64.665 119.423 64.5383 118.98 64.285C118.537 64.095 118.157 63.7783 117.84 63.335L104.54 45.19L91.2401 63.335C90.5434 64.2217 89.6884 64.665 88.6751 64.665C87.7884 64.665 86.9967 64.3483 86.3001 63.715C85.6667 63.0183 85.3501 62.2267 85.3501 61.34C85.3501 60.58 85.5717 59.9467 86.0151 59.44L100.17 40.44L86.9651 22.77C86.5217 22.1367 86.3001 21.535 86.3001 20.965C86.3001 20.205 86.5851 19.445 87.1551 18.685C87.7884 17.925 88.6434 17.545 89.7201 17.545C90.7967 17.545 91.6517 17.9567 92.2851 18.78L104.54 35.595L116.7 18.875C117.017 18.4317 117.397 18.115 117.84 17.925C118.283 17.6717 118.758 17.545 119.265 17.545C120.152 17.545 120.943 17.8933 121.64 18.59C122.337 19.2233 122.685 19.9833 122.685 20.87C122.685 21.6933 122.463 22.3583 122.02 22.865L108.91 40.44L123.16 59.44C123.54 60.01 123.73 60.6433 123.73 61.34ZM154.826 61.055C154.826 61.815 154.573 62.4483 154.066 62.955C153.56 63.4617 152.895 63.8733 152.071 64.19C151.311 64.57 150.425 64.8233 149.411 64.95C148.398 65.0767 147.385 65.14 146.371 65.14C142.951 65.14 140.386 64.2217 138.676 62.385C137.03 60.485 136.206 57.825 136.206 54.405V24.385H131.076C130.19 24.385 129.461 24.1 128.891 23.53C128.321 22.8967 128.036 22.105 128.036 21.155C128.036 20.2683 128.321 19.54 128.891 18.97C129.461 18.4 130.19 18.115 131.076 18.115H136.206V8.425C136.206 7.53833 136.555 6.74666 137.251 6.05C137.948 5.35333 138.835 5.005 139.911 5.005C140.798 5.005 141.59 5.35333 142.286 6.05C142.983 6.74666 143.331 7.53833 143.331 8.425V18.115H150.171C151.058 18.115 151.786 18.4317 152.356 19.065C152.926 19.635 153.211 20.395 153.211 21.345C153.211 22.2317 152.926 22.96 152.356 23.53C151.786 24.1 151.058 24.385 150.171 24.385H143.331V52.885C143.331 54.595 143.711 56.02 144.471 57.16C145.231 58.2367 146.403 58.775 147.986 58.775C148.62 58.775 149.253 58.68 149.886 58.49C150.583 58.2367 151.216 58.11 151.786 58.11C152.61 58.11 153.306 58.395 153.876 58.965C154.51 59.535 154.826 60.2317 154.826 61.055ZM216.721 54.352C218.233 52.336 220.681 48.952 221.761 46.432C222.121 45.568 222.337 44.848 222.337 44.272C222.337 42.256 220.609 40.384 218.377 40.384C216.865 40.384 215.425 41.32 214.849 42.688C213.985 44.704 212.905 46.792 211.681 48.664C209.161 45.64 206.641 42.904 203.473 38.584C209.377 35.848 215.281 32.752 215.281 25.408C215.281 19 209.449 15.256 202.681 15.256C194.689 15.256 188.929 20.296 188.929 26.776C188.929 30.016 190.225 33.616 192.097 37.144C186.625 39.88 181.801 43.696 181.801 50.968C181.801 60.256 188.857 64.864 197.641 64.864C202.753 64.864 207.145 63.136 210.745 60.4C211.825 61.624 214.129 64.504 216.577 64.504C218.953 64.504 220.681 62.344 220.681 60.256C220.681 57.736 218.305 56.08 216.721 54.352ZM191.521 50.104C191.521 46.792 193.177 44.56 195.697 42.76C198.793 47.152 200.449 49.312 205.849 55.216C203.761 56.728 201.385 57.664 198.937 57.664C194.977 57.664 191.521 54.784 191.521 50.104ZM203.113 21.88C205.489 21.88 207.361 23.392 207.361 25.912C207.361 29.44 204.193 31.528 200.161 33.472C198.937 31.168 198.073 28.936 198.073 26.992C198.073 24.04 200.305 21.88 203.113 21.88ZM301.272 41.01C301.272 44.7467 300.766 48.1033 299.752 51.08C298.802 54.0567 297.409 56.59 295.572 58.68C293.799 60.77 291.646 62.385 289.112 63.525C286.642 64.6017 283.887 65.14 280.847 65.14C277.681 65.14 274.767 64.4433 272.107 63.05C269.447 61.6567 267.199 59.6617 265.362 57.065V78.63C265.362 79.5167 265.014 80.3083 264.317 81.005C263.621 81.7017 262.766 82.05 261.752 82.05C260.802 82.05 259.979 81.7017 259.282 81.005C258.586 80.3083 258.237 79.5167 258.237 78.63V20.965C258.237 20.0783 258.586 19.2867 259.282 18.59C259.979 17.8933 260.866 17.545 261.942 17.545C262.829 17.545 263.621 17.8933 264.317 18.59C265.014 19.2867 265.362 20.0783 265.362 20.965V24.955C267.009 22.6117 269.194 20.7117 271.917 19.255C274.641 17.735 277.617 16.975 280.847 16.975C283.887 16.975 286.642 17.545 289.112 18.685C291.646 19.7617 293.799 21.345 295.572 23.435C297.409 25.4617 298.802 27.9633 299.752 30.94C300.766 33.9167 301.272 37.2733 301.272 41.01ZM293.767 41.01C293.767 38.4767 293.419 36.1333 292.722 33.98C292.089 31.8267 291.139 29.9583 289.872 28.375C288.606 26.7917 287.054 25.5567 285.217 24.67C283.381 23.7833 281.322 23.34 279.042 23.34C276.192 23.34 273.501 24.0683 270.967 25.525C268.497 26.9183 266.629 28.6283 265.362 30.655V51.365C266.629 53.3917 268.497 55.1333 270.967 56.59C273.501 58.0467 276.192 58.775 279.042 58.775C281.322 58.775 283.381 58.3317 285.217 57.445C287.054 56.5583 288.606 55.3233 289.872 53.74C291.139 52.1567 292.089 50.2883 292.722 48.135C293.419 45.9183 293.767 43.5433 293.767 41.01ZM316.118 1.96499C317.448 1.96499 318.588 2.44 319.538 3.39C320.488 4.34 320.963 5.48 320.963 6.80999C320.963 8.14 320.488 9.28 319.538 10.23C318.588 11.1167 317.448 11.56 316.118 11.56C314.851 11.56 313.743 11.1167 312.793 10.23C311.843 9.28 311.368 8.14 311.368 6.80999C311.368 5.48 311.843 4.34 312.793 3.39C313.743 2.44 314.851 1.96499 316.118 1.96499ZM319.728 61.055C319.728 62.005 319.379 62.8283 318.683 63.525C317.986 64.2217 317.131 64.57 316.118 64.57C315.168 64.57 314.344 64.2217 313.648 63.525C312.951 62.8283 312.603 62.005 312.603 61.055V20.965C312.603 20.0783 312.951 19.2867 313.648 18.59C314.344 17.8933 315.231 17.545 316.308 17.545C317.194 17.545 317.986 17.8933 318.683 18.59C319.379 19.2867 319.728 20.0783 319.728 20.965V61.055ZM369.09 61.34C369.09 62.1 368.774 62.86 368.14 63.62C367.57 64.3167 366.779 64.665 365.765 64.665C365.259 64.665 364.784 64.5383 364.34 64.285C363.897 64.095 363.517 63.7783 363.2 63.335L349.9 45.19L336.6 63.335C335.904 64.2217 335.049 64.665 334.035 64.665C333.149 64.665 332.357 64.3483 331.66 63.715C331.027 63.0183 330.71 62.2267 330.71 61.34C330.71 60.58 330.932 59.9467 331.375 59.44L345.53 40.44L332.325 22.77C331.882 22.1367 331.66 21.535 331.66 20.965C331.66 20.205 331.945 19.445 332.515 18.685C333.149 17.925 334.004 17.545 335.08 17.545C336.157 17.545 337.012 17.9567 337.645 18.78L349.9 35.595L362.06 18.875C362.377 18.4317 362.757 18.115 363.2 17.925C363.644 17.6717 364.119 17.545 364.625 17.545C365.512 17.545 366.304 17.8933 367 18.59C367.697 19.2233 368.045 19.9833 368.045 20.87C368.045 21.6933 367.824 22.3583 367.38 22.865L354.27 40.44L368.52 59.44C368.9 60.01 369.09 60.6433 369.09 61.34ZM418.511 39.49C418.511 40.5667 418.131 41.485 417.371 42.245C416.611 43.005 415.693 43.385 414.616 43.385H381.461C381.588 45.5383 382.063 47.5967 382.886 49.56C383.71 51.46 384.818 53.1383 386.211 54.595C387.668 55.9883 389.378 57.1283 391.341 58.015C393.305 58.8383 395.521 59.25 397.991 59.25C400.208 59.25 402.361 58.9017 404.451 58.205C406.541 57.5083 408.505 56.4317 410.341 54.975C410.848 54.6583 411.386 54.5 411.956 54.5C412.59 54.5 413.223 54.785 413.856 55.355C414.49 55.8617 414.806 56.5583 414.806 57.445C414.806 58.4583 414.458 59.2183 413.761 59.725C411.481 61.5617 408.98 62.9233 406.256 63.81C403.533 64.6967 400.556 65.14 397.326 65.14C393.906 65.14 390.771 64.57 387.921 63.43C385.071 62.2267 382.601 60.58 380.511 58.49C378.485 56.3367 376.87 53.8033 375.666 50.89C374.526 47.9133 373.956 44.62 373.956 41.01C373.956 37.7167 374.526 34.6133 375.666 31.7C376.806 28.7233 378.358 26.1583 380.321 24.005C382.348 21.8517 384.723 20.1417 387.446 18.875C390.233 17.6083 393.273 16.975 396.566 16.975C399.416 16.975 402.013 17.4183 404.356 18.305C406.7 19.1283 408.758 20.3317 410.531 21.915C412.368 23.4983 413.888 25.3667 415.091 27.52C416.358 29.6733 417.276 32.08 417.846 34.74C417.973 35.4367 418.1 36.1967 418.226 37.02C418.416 37.8433 418.511 38.6667 418.511 39.49ZM411.576 38.16C411.576 36.45 411.26 34.7083 410.626 32.935C410.056 31.0983 409.138 29.4517 407.871 27.995C406.668 26.475 405.116 25.24 403.216 24.29C401.316 23.34 399.068 22.865 396.471 22.865C394.001 22.865 391.848 23.34 390.011 24.29C388.175 25.24 386.623 26.4433 385.356 27.9C384.153 29.3567 383.203 31.0033 382.506 32.84C381.873 34.6133 381.525 36.3867 381.461 38.16H411.576ZM437.271 61.055C437.271 62.005 436.923 62.8283 436.226 63.525C435.53 64.2217 434.675 64.57 433.661 64.57C432.711 64.57 431.888 64.2217 431.191 63.525C430.495 62.8283 430.146 62.005 430.146 61.055V3.485C430.146 2.59833 430.495 1.80666 431.191 1.10999C431.888 0.413329 432.775 0.0649964 433.851 0.0649964C434.738 0.0649964 435.53 0.413329 436.226 1.10999C436.923 1.80666 437.271 2.59833 437.271 3.485V61.055Z" fill="white"/>
</svg>
