<svg width="880" height="674" viewBox="0 0 880 674" fill="none" xmlns="http://www.w3.org/2000/svg">
<rect x="453" width="200" height="260" rx="8" fill="#888888"/>
<rect x="463" y="10" width="53" height="156" rx="4" fill="#BBBBBB"/>
<rect x="526" y="10" width="54" height="156" rx="4" fill="#BBBBBB"/>
<rect x="531" y="15" width="28" height="5" rx="2" fill="#EEEEEE"/>
<rect x="531" y="35" width="32" height="5" rx="2" fill="#EEEEEE"/>
<rect x="531" y="25" width="41" height="5" rx="2" fill="#EEEEEE"/>
<rect x="531" y="45" width="37" height="5" rx="2" fill="#EEEEEE"/>
<rect x="590" y="10" width="53" height="156" rx="4" fill="#BBBBBB"/>
<rect x="463" y="174" width="180" height="76" rx="4" fill="#BBBBBB"/>
<rect x="468" y="179" width="70" height="5" rx="2" fill="#EEEEEE"/>
<rect x="468" y="199" width="80" height="5" rx="2" fill="#EEEEEE"/>
<rect x="468" y="189" width="104" height="5" rx="2" fill="#EEEEEE"/>
<rect x="468" y="209" width="93" height="5" rx="2" fill="#EEEEEE"/>
<rect x="468" y="15" width="18" height="15" rx="2" fill="#EEEEEE"/>
<rect x="491" y="15" width="10" height="2" rx="1" fill="#EEEEEE"/>
<rect x="491" y="19" width="20" height="2" rx="1" fill="#EEEEEE"/>
<rect x="491" y="23" width="20" height="2" rx="1" fill="#EEEEEE"/>
<rect x="595" y="15" width="28" height="5" rx="2" fill="#EEEEEE"/>
<rect x="595" y="35" width="32" height="5" rx="2" fill="#EEEEEE"/>
<rect x="595" y="25" width="41" height="5" rx="2" fill="#EEEEEE"/>
<rect x="595" y="45" width="37" height="5" rx="2" fill="#EEEEEE"/>
<rect x="680" width="200" height="260" rx="8" fill="#888888"/>
<rect x="690" y="10" width="180" height="50" rx="4" fill="#BBBBBB"/>
<rect x="690" y="130" width="180" height="59" rx="4" fill="#BBBBBB"/>
<rect x="695" y="135" width="45" height="5" rx="2" fill="#EEEEEE"/>
<rect x="695" y="155" width="80" height="5" rx="2" fill="#EEEEEE"/>
<rect x="695" y="145" width="80" height="5" rx="2" fill="#EEEEEE"/>
<rect x="695" y="165" width="80" height="5" rx="2" fill="#EEEEEE"/>
<rect x="690" y="195" width="180" height="55" rx="4" fill="#BBBBBB"/>
<rect x="695" y="200" width="30" height="5" rx="2" fill="#EEEEEE"/>
<rect x="695" y="220" width="64" height="5" rx="2" fill="#EEEEEE"/>
<rect x="695" y="210" width="64" height="5" rx="2" fill="#EEEEEE"/>
<rect x="695" y="230" width="64" height="5" rx="2" fill="#EEEEEE"/>
<rect x="695" y="15" width="28" height="5" rx="2" fill="#EEEEEE"/>
<rect x="695" y="25" width="36" height="30" rx="2" fill="#EEEEEE"/>
<rect x="736" y="25" width="36" height="30" rx="2" fill="#EEEEEE"/>
<rect x="777" y="25" width="36" height="30" rx="2" fill="#EEEEEE"/>
<rect x="690" y="70" width="180" height="50" rx="4" fill="#BBBBBB"/>
<rect x="695" y="75" width="55" height="5" rx="2" fill="#EEEEEE"/>
<rect x="695" y="85" width="36" height="30" rx="2" fill="#EEEEEE"/>
<rect x="736" y="85" width="36" height="30" rx="2" fill="#EEEEEE"/>
<rect x="777" y="85" width="36" height="30" rx="2" fill="#EEEEEE"/>
<rect x="818" y="85" width="36" height="30" rx="2" fill="#EEEEEE"/>
<rect x="227" width="200" height="260" rx="8" fill="#888888"/>
<rect x="237" y="10" width="180" height="76" rx="4" fill="#BBBBBB"/>
<rect x="237" y="96" width="85" height="76" rx="4" fill="#BBBBBB"/>
<rect x="237" y="182" width="180" height="68" rx="4" fill="#BBBBBB"/>
<rect x="332" y="96" width="85" height="76" rx="4" fill="#BBBBBB"/>
<rect x="247" y="106" width="29" height="5" rx="2" fill="#EEEEEE"/>
<rect x="247" y="126" width="35" height="5" rx="2" fill="#EEEEEE"/>
<rect x="247" y="116" width="42" height="5" rx="2" fill="#EEEEEE"/>
<rect x="247" y="192" width="29" height="5" rx="2" fill="#EEEEEE"/>
<rect x="247" y="202" width="42" height="5" rx="2" fill="#EEEEEE"/>
<rect x="247" y="136" width="49" height="5" rx="2" fill="#EEEEEE"/>
<rect x="342" y="106" width="29" height="5" rx="2" fill="#EEEEEE"/>
<rect x="342" y="126" width="35" height="5" rx="2" fill="#EEEEEE"/>
<rect x="342" y="116" width="42" height="5" rx="2" fill="#EEEEEE"/>
<rect x="342" y="136" width="49" height="5" rx="2" fill="#EEEEEE"/>
<rect x="334" y="22" width="73" height="53" rx="2" fill="#EEEEEE"/>
<rect x="346" y="55.854" width="13.0317" height="2.24685" rx="1.12342" transform="rotate(-45 346 55.854)" fill="#AAAAAA"/>
<rect x="384.196" y="48.2148" width="13.0317" height="2.24685" rx="1.12342" transform="rotate(-45 384.196 48.2148)" fill="#AAAAAA"/>
<rect x="355.229" y="46.6394" width="13.0317" height="2.24685" rx="1.12342" transform="rotate(45 355.229 46.6394)" fill="#AAAAAA"/>
<rect x="377.696" y="39.4495" width="13.0317" height="2.24685" rx="1.12342" transform="rotate(45 377.696 39.4495)" fill="#AAAAAA"/>
<rect x="361.278" y="55.854" width="22.8007" height="2.24685" rx="1.12342" transform="rotate(-45 361.278 55.854)" fill="#AAAAAA"/>
<rect x="247" y="22" width="73" height="53" rx="2" fill="#EEEEEE"/>
<rect x="259" y="55.854" width="13.0317" height="2.24685" rx="1.12342" transform="rotate(-45 259 55.854)" fill="#AAAAAA"/>
<rect x="297.196" y="48.2148" width="13.0317" height="2.24685" rx="1.12342" transform="rotate(-45 297.196 48.2148)" fill="#AAAAAA"/>
<rect x="268.229" y="46.6394" width="13.0317" height="2.24685" rx="1.12342" transform="rotate(45 268.229 46.6394)" fill="#AAAAAA"/>
<rect x="290.696" y="39.4495" width="13.0317" height="2.24685" rx="1.12342" transform="rotate(45 290.696 39.4495)" fill="#AAAAAA"/>
<rect x="274.278" y="55.854" width="22.8007" height="2.24685" rx="1.12342" transform="rotate(-45 274.278 55.854)" fill="#AAAAAA"/>
<rect width="200" height="260" rx="8" fill="#888888"/>
<rect x="10" y="10" width="180" height="76" rx="4" fill="#BBBBBB"/>
<rect x="10" y="96" width="85" height="76" rx="4" fill="#BBBBBB"/>
<rect x="10" y="182" width="85" height="68" rx="4" fill="#BBBBBB"/>
<rect x="105" y="96" width="85" height="76" rx="4" fill="#BBBBBB"/>
<circle cx="10" cy="48" r="7" fill="#EEEEEE"/>
<circle cx="190" cy="48" r="7" fill="#EEEEEE"/>
<path d="M6.5 48.866C5.83333 48.4811 5.83333 47.5189 6.5 47.134L11 44.5359C11.6667 44.151 12.5 44.6321 12.5 45.4019L12.5 50.5981C12.5 51.3679 11.6667 51.849 11 51.4641L6.5 48.866Z" fill="#C4C4C4"/>
<path d="M193.5 47.134C194.167 47.5189 194.167 48.4811 193.5 48.866L189 51.4641C188.333 51.849 187.5 51.3679 187.5 50.5981L187.5 45.4019C187.5 44.6321 188.333 44.151 189 44.5359L193.5 47.134Z" fill="#C4C4C4"/>
<rect x="20" y="106" width="29" height="5" rx="2" fill="#EEEEEE"/>
<rect x="20" y="126" width="35" height="5" rx="2" fill="#EEEEEE"/>
<rect x="20" y="116" width="42" height="5" rx="2" fill="#EEEEEE"/>
<rect x="20" y="192" width="29" height="5" rx="2" fill="#EEEEEE"/>
<rect x="20" y="202" width="42" height="5" rx="2" fill="#EEEEEE"/>
<rect x="20" y="136" width="49" height="5" rx="2" fill="#EEEEEE"/>
<rect x="115" y="106" width="29" height="5" rx="2" fill="#EEEEEE"/>
<rect x="115" y="126" width="35" height="5" rx="2" fill="#EEEEEE"/>
<rect x="115" y="116" width="42" height="5" rx="2" fill="#EEEEEE"/>
<rect x="115" y="136" width="49" height="5" rx="2" fill="#EEEEEE"/>
<rect x="45" y="66.5061" width="29" height="5" rx="2" transform="rotate(-45 45 66.5061)" fill="#EEEEEE"/>
<rect x="130" y="49.5061" width="29" height="5" rx="2" transform="rotate(-45 130 49.5061)" fill="#EEEEEE"/>
<rect x="65.5352" y="46" width="29" height="5" rx="2" transform="rotate(45 65.5352 46)" fill="#EEEEEE"/>
<rect x="115.535" y="30" width="29" height="5" rx="2" transform="rotate(45 115.535 30)" fill="#EEEEEE"/>
<rect x="79" y="66.5061" width="50.7392" height="5" rx="2" transform="rotate(-45 79 66.5061)" fill="#EEEEEE"/>
<rect x="340" y="414" width="200" height="260" rx="8" fill="#888888"/>
<rect x="349" y="424" width="180" height="50" rx="4" fill="#BBBBBB"/>
<rect x="350" y="484" width="40" height="137" rx="4" fill="#BBBBBB"/>
<rect x="355" y="489" width="29" height="5" rx="2" fill="#EEEEEE"/>
<rect x="355" y="499" width="29" height="5" rx="2" fill="#EEEEEE"/>
<rect x="355" y="509" width="29" height="5" rx="2" fill="#EEEEEE"/>
<rect x="355" y="519" width="29" height="5" rx="2" fill="#EEEEEE"/>
<rect x="400" y="484" width="130" height="137" rx="4" fill="#BBBBBB"/>
<rect x="410" y="522" width="110" height="72" rx="2" fill="#EEEEEE"/>
<rect width="21.2442" height="3.6628" rx="1.8314" transform="matrix(0.713024 -0.70114 0.713024 0.70114 425 570.243)" fill="#AAAAAA"/>
<rect width="21.2442" height="3.6628" rx="1.8314" transform="matrix(0.713024 -0.70114 0.713024 0.70114 487.789 557.895)" fill="#AAAAAA"/>
<rect width="21.2442" height="3.6628" rx="1.8314" transform="matrix(0.713024 0.70114 -0.713024 0.70114 440.17 555.349)" fill="#AAAAAA"/>
<rect width="21.2442" height="3.6628" rx="1.8314" transform="matrix(0.713024 0.70114 -0.713024 0.70114 477.104 543.727)" fill="#AAAAAA"/>
<rect width="37.1695" height="3.6628" rx="1.8314" transform="matrix(0.713024 -0.70114 0.713024 0.70114 450.115 570.243)" fill="#AAAAAA"/>
<path d="M414.54 496.36V508H417.68V496.36H421.96V493.72H410.26V496.36H414.54ZM423.607 493.72V508H426.747V493.72H423.607ZM432.665 496.36V508H435.805V496.36H440.085V493.72H428.385V496.36H432.665ZM441.732 493.72V508H451.832V505.36H444.872V493.72H441.732ZM453.587 493.72V508H464.427V505.36H456.727V501.86H463.647V499.42H456.727V496.36H464.267V493.72H453.587Z" fill="white"/>
<rect x="350" y="631" width="180" height="33" rx="4" fill="#BBBBBB"/>
<path d="M372.583 449.18V445.16H376.023C376.743 445.16 377.283 445.32 377.643 445.64C378.003 445.947 378.183 446.447 378.183 447.14C378.183 447.86 378.003 448.38 377.643 448.7C377.283 449.02 376.743 449.18 376.023 449.18H372.583ZM369.443 442.72V457H372.583V451.42H375.723C376.509 451.42 377.076 451.593 377.423 451.94C377.769 452.287 377.996 452.833 378.103 453.58C378.183 454.153 378.243 454.753 378.283 455.38C378.323 456.007 378.429 456.547 378.603 457H381.743C381.596 456.8 381.483 456.56 381.403 456.28C381.336 455.987 381.283 455.68 381.243 455.36C381.216 455.04 381.196 454.727 381.183 454.42C381.169 454.113 381.156 453.847 381.143 453.62C381.116 453.26 381.063 452.9 380.983 452.54C380.916 452.18 380.803 451.853 380.643 451.56C380.483 451.253 380.276 450.993 380.023 450.78C379.769 450.553 379.449 450.387 379.063 450.28V450.24C379.863 449.92 380.436 449.453 380.783 448.84C381.143 448.227 381.323 447.5 381.323 446.66C381.323 446.113 381.223 445.607 381.023 445.14C380.836 444.66 380.556 444.24 380.183 443.88C379.823 443.52 379.383 443.24 378.863 443.04C378.356 442.827 377.783 442.72 377.143 442.72H369.443ZM383.876 442.72V457H394.716V454.36H387.016V450.86H393.936V448.42H387.016V445.36H394.556V442.72H383.876ZM399.985 449.44V445.16H402.425C402.785 445.16 403.132 445.187 403.465 445.24C403.798 445.293 404.092 445.4 404.345 445.56C404.598 445.707 404.798 445.92 404.945 446.2C405.105 446.48 405.185 446.847 405.185 447.3C405.185 447.753 405.105 448.12 404.945 448.4C404.798 448.68 404.598 448.9 404.345 449.06C404.092 449.207 403.798 449.307 403.465 449.36C403.132 449.413 402.785 449.44 402.425 449.44H399.985ZM396.845 442.72V457H399.985V451.88H403.285C404.178 451.88 404.938 451.753 405.565 451.5C406.192 451.233 406.698 450.887 407.085 450.46C407.485 450.033 407.772 449.547 407.945 449C408.132 448.44 408.225 447.873 408.225 447.3C408.225 446.713 408.132 446.147 407.945 445.6C407.772 445.053 407.485 444.567 407.085 444.14C406.698 443.713 406.192 443.373 405.565 443.12C404.938 442.853 404.178 442.72 403.285 442.72H396.845ZM412.705 449.92C412.705 449.293 412.771 448.687 412.905 448.1C413.051 447.513 413.278 446.993 413.585 446.54C413.891 446.073 414.291 445.707 414.785 445.44C415.278 445.16 415.878 445.02 416.585 445.02C417.291 445.02 417.891 445.16 418.385 445.44C418.878 445.707 419.278 446.073 419.585 446.54C419.891 446.993 420.111 447.513 420.245 448.1C420.391 448.687 420.465 449.293 420.465 449.92C420.465 450.52 420.391 451.107 420.245 451.68C420.111 452.24 419.891 452.747 419.585 453.2C419.278 453.653 418.878 454.02 418.385 454.3C417.891 454.567 417.291 454.7 416.585 454.7C415.878 454.7 415.278 454.567 414.785 454.3C414.291 454.02 413.891 453.653 413.585 453.2C413.278 452.747 413.051 452.24 412.905 451.68C412.771 451.107 412.705 450.52 412.705 449.92ZM409.565 449.92C409.565 450.96 409.725 451.933 410.045 452.84C410.365 453.733 410.825 454.513 411.425 455.18C412.025 455.847 412.758 456.373 413.625 456.76C414.505 457.133 415.491 457.32 416.585 457.32C417.691 457.32 418.678 457.133 419.545 456.76C420.411 456.373 421.145 455.847 421.745 455.18C422.345 454.513 422.805 453.733 423.125 452.84C423.445 451.933 423.605 450.96 423.605 449.92C423.605 448.853 423.445 447.867 423.125 446.96C422.805 446.04 422.345 445.24 421.745 444.56C421.145 443.88 420.411 443.347 419.545 442.96C418.678 442.573 417.691 442.38 416.585 442.38C415.491 442.38 414.505 442.573 413.625 442.96C412.758 443.347 412.025 443.88 411.425 444.56C410.825 445.24 410.365 446.04 410.045 446.96C409.725 447.867 409.565 448.853 409.565 449.92ZM428.891 449.18V445.16H432.331C433.051 445.16 433.591 445.32 433.951 445.64C434.311 445.947 434.491 446.447 434.491 447.14C434.491 447.86 434.311 448.38 433.951 448.7C433.591 449.02 433.051 449.18 432.331 449.18H428.891ZM425.751 442.72V457H428.891V451.42H432.031C432.818 451.42 433.384 451.593 433.731 451.94C434.078 452.287 434.304 452.833 434.411 453.58C434.491 454.153 434.551 454.753 434.591 455.38C434.631 456.007 434.738 456.547 434.911 457H438.051C437.904 456.8 437.791 456.56 437.711 456.28C437.644 455.987 437.591 455.68 437.551 455.36C437.524 455.04 437.504 454.727 437.491 454.42C437.478 454.113 437.464 453.847 437.451 453.62C437.424 453.26 437.371 452.9 437.291 452.54C437.224 452.18 437.111 451.853 436.951 451.56C436.791 451.253 436.584 450.993 436.331 450.78C436.078 450.553 435.758 450.387 435.371 450.28V450.24C436.171 449.92 436.744 449.453 437.091 448.84C437.451 448.227 437.631 447.5 437.631 446.66C437.631 446.113 437.531 445.607 437.331 445.14C437.144 444.66 436.864 444.24 436.491 443.88C436.131 443.52 435.691 443.24 435.171 443.04C434.664 442.827 434.091 442.72 433.451 442.72H425.751ZM442.993 445.36V457H446.133V445.36H450.413V442.72H438.713V445.36H442.993ZM460.766 449.44V445.16H463.206C463.566 445.16 463.913 445.187 464.246 445.24C464.579 445.293 464.873 445.4 465.126 445.56C465.379 445.707 465.579 445.92 465.726 446.2C465.886 446.48 465.966 446.847 465.966 447.3C465.966 447.753 465.886 448.12 465.726 448.4C465.579 448.68 465.379 448.9 465.126 449.06C464.873 449.207 464.579 449.307 464.246 449.36C463.913 449.413 463.566 449.44 463.206 449.44H460.766ZM457.626 442.72V457H460.766V451.88H464.066C464.959 451.88 465.719 451.753 466.346 451.5C466.973 451.233 467.479 450.887 467.866 450.46C468.266 450.033 468.553 449.547 468.726 449C468.913 448.44 469.006 447.873 469.006 447.3C469.006 446.713 468.913 446.147 468.726 445.6C468.553 445.053 468.266 444.567 467.866 444.14C467.479 443.713 466.973 443.373 466.346 443.12C465.719 442.853 464.959 442.72 464.066 442.72H457.626ZM473.082 451.48L474.942 446.24H474.982L476.782 451.48H473.082ZM473.382 442.72L467.982 457H471.142L472.262 453.82H477.602L478.682 457H481.942L476.602 442.72H473.382ZM493.493 455.38L493.813 457H495.813V449.28H489.813V451.62H492.973C492.88 452.62 492.546 453.387 491.973 453.92C491.413 454.44 490.613 454.7 489.573 454.7C488.866 454.7 488.266 454.567 487.773 454.3C487.28 454.02 486.88 453.653 486.573 453.2C486.266 452.747 486.04 452.24 485.893 451.68C485.76 451.107 485.693 450.52 485.693 449.92C485.693 449.293 485.76 448.687 485.893 448.1C486.04 447.513 486.266 446.993 486.573 446.54C486.88 446.073 487.28 445.707 487.773 445.44C488.266 445.16 488.866 445.02 489.573 445.02C490.333 445.02 490.98 445.22 491.513 445.62C492.046 446.02 492.406 446.62 492.593 447.42H495.593C495.513 446.607 495.293 445.887 494.933 445.26C494.573 444.633 494.113 444.107 493.553 443.68C493.006 443.253 492.386 442.933 491.693 442.72C491.013 442.493 490.306 442.38 489.573 442.38C488.48 442.38 487.493 442.573 486.613 442.96C485.746 443.347 485.013 443.88 484.413 444.56C483.813 445.24 483.353 446.04 483.033 446.96C482.713 447.867 482.553 448.853 482.553 449.92C482.553 450.96 482.713 451.933 483.033 452.84C483.353 453.733 483.813 454.513 484.413 455.18C485.013 455.847 485.746 456.373 486.613 456.76C487.493 457.133 488.48 457.32 489.573 457.32C490.266 457.32 490.953 457.18 491.633 456.9C492.313 456.607 492.933 456.1 493.493 455.38ZM498.349 442.72V457H509.189V454.36H501.489V450.86H508.409V448.42H501.489V445.36H509.029V442.72H498.349Z" fill="white"/>
<rect x="680" y="414" width="200" height="260" rx="8" fill="#888888"/>
<rect x="689" y="424" width="180" height="50" rx="4" fill="#BBBBBB"/>
<path d="M740.655 452.26H737.615C737.601 453.14 737.761 453.9 738.095 454.54C738.428 455.18 738.875 455.707 739.435 456.12C740.008 456.533 740.661 456.833 741.395 457.02C742.141 457.22 742.908 457.32 743.695 457.32C744.668 457.32 745.521 457.207 746.255 456.98C747.001 456.753 747.621 456.44 748.115 456.04C748.621 455.627 749.001 455.14 749.255 454.58C749.508 454.02 749.635 453.413 749.635 452.76C749.635 451.96 749.461 451.307 749.115 450.8C748.781 450.28 748.381 449.867 747.915 449.56C747.448 449.253 746.975 449.033 746.495 448.9C746.028 448.753 745.661 448.653 745.395 448.6C744.501 448.373 743.775 448.187 743.215 448.04C742.668 447.893 742.235 447.747 741.915 447.6C741.608 447.453 741.401 447.293 741.295 447.12C741.188 446.947 741.135 446.72 741.135 446.44C741.135 446.133 741.201 445.88 741.335 445.68C741.468 445.48 741.635 445.313 741.835 445.18C742.048 445.047 742.281 444.953 742.535 444.9C742.788 444.847 743.041 444.82 743.295 444.82C743.681 444.82 744.035 444.853 744.355 444.92C744.688 444.987 744.981 445.1 745.235 445.26C745.488 445.42 745.688 445.64 745.835 445.92C745.995 446.2 746.088 446.553 746.115 446.98H749.155C749.155 446.153 748.995 445.453 748.675 444.88C748.368 444.293 747.948 443.813 747.415 443.44C746.881 443.067 746.268 442.8 745.575 442.64C744.895 442.467 744.181 442.38 743.435 442.38C742.795 442.38 742.155 442.467 741.515 442.64C740.875 442.813 740.301 443.08 739.795 443.44C739.288 443.8 738.875 444.253 738.555 444.8C738.248 445.333 738.095 445.967 738.095 446.7C738.095 447.353 738.215 447.913 738.455 448.38C738.708 448.833 739.035 449.213 739.435 449.52C739.835 449.827 740.288 450.08 740.795 450.28C741.301 450.467 741.821 450.627 742.355 450.76C742.875 450.907 743.388 451.04 743.895 451.16C744.401 451.28 744.855 451.42 745.255 451.58C745.655 451.74 745.975 451.94 746.215 452.18C746.468 452.42 746.595 452.733 746.595 453.12C746.595 453.48 746.501 453.78 746.315 454.02C746.128 454.247 745.895 454.427 745.615 454.56C745.335 454.693 745.035 454.787 744.715 454.84C744.395 454.88 744.095 454.9 743.815 454.9C743.401 454.9 743.001 454.853 742.615 454.76C742.228 454.653 741.888 454.5 741.595 454.3C741.315 454.087 741.088 453.813 740.915 453.48C740.741 453.147 740.655 452.74 740.655 452.26ZM751.503 442.72V457H762.343V454.36H754.643V450.86H761.563V448.42H754.643V445.36H762.183V442.72H751.503ZM768.072 451.48L769.932 446.24H769.972L771.772 451.48H768.072ZM768.372 442.72L762.972 457H766.132L767.252 453.82H772.592L773.672 457H776.932L771.592 442.72H768.372ZM781.303 449.18V445.16H784.743C785.463 445.16 786.003 445.32 786.363 445.64C786.723 445.947 786.903 446.447 786.903 447.14C786.903 447.86 786.723 448.38 786.363 448.7C786.003 449.02 785.463 449.18 784.743 449.18H781.303ZM778.163 442.72V457H781.303V451.42H784.443C785.23 451.42 785.797 451.593 786.143 451.94C786.49 452.287 786.717 452.833 786.823 453.58C786.903 454.153 786.963 454.753 787.003 455.38C787.043 456.007 787.15 456.547 787.323 457H790.463C790.317 456.8 790.203 456.56 790.123 456.28C790.057 455.987 790.003 455.68 789.963 455.36C789.937 455.04 789.917 454.727 789.903 454.42C789.89 454.113 789.877 453.847 789.863 453.62C789.837 453.26 789.783 452.9 789.703 452.54C789.637 452.18 789.523 451.853 789.363 451.56C789.203 451.253 788.997 450.993 788.743 450.78C788.49 450.553 788.17 450.387 787.783 450.28V450.24C788.583 449.92 789.157 449.453 789.503 448.84C789.863 448.227 790.043 447.5 790.043 446.66C790.043 446.113 789.943 445.607 789.743 445.14C789.557 444.66 789.277 444.24 788.903 443.88C788.543 443.52 788.103 443.24 787.583 443.04C787.077 442.827 786.503 442.72 785.863 442.72H778.163ZM802.117 447.52H805.157C805.063 446.693 804.837 445.96 804.477 445.32C804.117 444.68 803.657 444.147 803.097 443.72C802.55 443.28 801.923 442.947 801.217 442.72C800.523 442.493 799.783 442.38 798.997 442.38C797.903 442.38 796.917 442.573 796.037 442.96C795.17 443.347 794.437 443.88 793.837 444.56C793.237 445.24 792.777 446.04 792.457 446.96C792.137 447.867 791.977 448.853 791.977 449.92C791.977 450.96 792.137 451.933 792.457 452.84C792.777 453.733 793.237 454.513 793.837 455.18C794.437 455.847 795.17 456.373 796.037 456.76C796.917 457.133 797.903 457.32 798.997 457.32C799.877 457.32 800.683 457.187 801.417 456.92C802.15 456.653 802.79 456.267 803.337 455.76C803.883 455.253 804.323 454.64 804.657 453.92C804.99 453.2 805.197 452.393 805.277 451.5H802.237C802.117 452.46 801.783 453.233 801.237 453.82C800.703 454.407 799.957 454.7 798.997 454.7C798.29 454.7 797.69 454.567 797.197 454.3C796.703 454.02 796.303 453.653 795.997 453.2C795.69 452.747 795.463 452.24 795.317 451.68C795.183 451.107 795.117 450.52 795.117 449.92C795.117 449.293 795.183 448.687 795.317 448.1C795.463 447.513 795.69 446.993 795.997 446.54C796.303 446.073 796.703 445.707 797.197 445.44C797.69 445.16 798.29 445.02 798.997 445.02C799.383 445.02 799.75 445.087 800.097 445.22C800.457 445.34 800.777 445.513 801.057 445.74C801.337 445.967 801.57 446.233 801.757 446.54C801.943 446.833 802.063 447.16 802.117 447.52ZM807.421 442.72V457H810.561V450.84H816.341V457H819.481V442.72H816.341V448.2H810.561V442.72H807.421Z" fill="white"/>
<rect x="690" y="484" width="40" height="137" rx="4" fill="#BBBBBB"/>
<rect x="695" y="489" width="29" height="5" rx="2" fill="#EEEEEE"/>
<rect x="740" y="525" width="129" height="96" rx="4" fill="#BBBBBB"/>
<rect x="745" y="530" width="30" height="25" rx="2" fill="#EEEEEE"/>
<rect x="780" y="530" width="23" height="5" rx="2" fill="#EEEEEE"/>
<rect x="780" y="540" width="83" height="5" rx="2" fill="#EEEEEE"/>
<rect x="780" y="550" width="83" height="5" rx="2" fill="#EEEEEE"/>
<rect x="745" y="560" width="30" height="25" rx="2" fill="#EEEEEE"/>
<rect x="780" y="560" width="23" height="5" rx="2" fill="#EEEEEE"/>
<rect x="780" y="570" width="83" height="5" rx="2" fill="#EEEEEE"/>
<rect x="780" y="580" width="83" height="5" rx="2" fill="#EEEEEE"/>
<rect x="745" y="590" width="30" height="25" rx="2" fill="#EEEEEE"/>
<rect x="780" y="590" width="23" height="5" rx="2" fill="#EEEEEE"/>
<rect x="780" y="600" width="83" height="5" rx="2" fill="#EEEEEE"/>
<rect x="780" y="610" width="83" height="5" rx="2" fill="#EEEEEE"/>
<rect x="695" y="499" width="29" height="5" rx="2" fill="#EEEEEE"/>
<rect x="695" y="509" width="29" height="5" rx="2" fill="#EEEEEE"/>
<rect x="695" y="519" width="29" height="5" rx="2" fill="#EEEEEE"/>
<rect x="740" y="484" width="130" height="31" rx="4" fill="#BBBBBB"/>
<rect x="690" y="631" width="180" height="33" rx="4" fill="#BBBBBB"/>
<rect y="414" width="200" height="260" rx="8" fill="#888888"/>
<rect x="10" y="424" width="180" height="50" rx="4" fill="#BBBBBB"/>
<rect x="10" y="484" width="180" height="137" rx="4" fill="#BBBBBB"/>
<rect x="20" y="522" width="46" height="30" rx="2" fill="#EEEEEE"/>
<rect width="8.85177" height="1.52617" rx="0.763083" transform="matrix(0.713024 -0.70114 0.713024 0.70114 26.25 542.101)" fill="#AAAAAA"/>
<rect width="8.85177" height="1.52617" rx="0.763083" transform="matrix(0.713024 -0.70114 0.713024 0.70114 52.4121 536.956)" fill="#AAAAAA"/>
<rect width="8.85177" height="1.52617" rx="0.763083" transform="matrix(0.713024 0.70114 -0.713024 0.70114 32.5703 535.895)" fill="#AAAAAA"/>
<rect width="8.85177" height="1.52617" rx="0.763083" transform="matrix(0.713024 0.70114 -0.713024 0.70114 47.96 531.053)" fill="#AAAAAA"/>
<rect width="15.4873" height="1.52617" rx="0.763083" transform="matrix(0.713024 -0.70114 0.713024 0.70114 36.7148 542.101)" fill="#AAAAAA"/>
<rect x="76" y="522" width="46" height="30" rx="2" fill="#EEEEEE"/>
<rect width="8.85177" height="1.52617" rx="0.763083" transform="matrix(0.713024 -0.70114 0.713024 0.70114 82.25 542.101)" fill="#AAAAAA"/>
<rect width="8.85177" height="1.52617" rx="0.763083" transform="matrix(0.713024 -0.70114 0.713024 0.70114 108.412 536.956)" fill="#AAAAAA"/>
<rect width="8.85177" height="1.52617" rx="0.763083" transform="matrix(0.713024 0.70114 -0.713024 0.70114 88.5703 535.895)" fill="#AAAAAA"/>
<rect width="8.85177" height="1.52617" rx="0.763083" transform="matrix(0.713024 0.70114 -0.713024 0.70114 103.96 531.053)" fill="#AAAAAA"/>
<rect width="15.4873" height="1.52617" rx="0.763083" transform="matrix(0.713024 -0.70114 0.713024 0.70114 92.7148 542.101)" fill="#AAAAAA"/>
<rect x="132" y="522" width="46" height="30" rx="2" fill="#EEEEEE"/>
<rect width="8.85177" height="1.52617" rx="0.763083" transform="matrix(0.713024 -0.70114 0.713024 0.70114 138.25 542.101)" fill="#AAAAAA"/>
<rect width="8.85177" height="1.52617" rx="0.763083" transform="matrix(0.713024 -0.70114 0.713024 0.70114 164.412 536.956)" fill="#AAAAAA"/>
<rect width="8.85177" height="1.52617" rx="0.763083" transform="matrix(0.713024 0.70114 -0.713024 0.70114 144.57 535.895)" fill="#AAAAAA"/>
<rect width="8.85177" height="1.52617" rx="0.763083" transform="matrix(0.713024 0.70114 -0.713024 0.70114 159.96 531.053)" fill="#AAAAAA"/>
<rect width="15.4873" height="1.52617" rx="0.763083" transform="matrix(0.713024 -0.70114 0.713024 0.70114 148.715 542.101)" fill="#AAAAAA"/>
<rect x="20" y="562" width="46" height="30" rx="2" fill="#EEEEEE"/>
<rect width="8.85177" height="1.52617" rx="0.763083" transform="matrix(0.713024 -0.70114 0.713024 0.70114 26.25 582.101)" fill="#AAAAAA"/>
<rect width="8.85177" height="1.52617" rx="0.763083" transform="matrix(0.713024 -0.70114 0.713024 0.70114 52.4121 576.956)" fill="#AAAAAA"/>
<rect width="8.85177" height="1.52617" rx="0.763083" transform="matrix(0.713024 0.70114 -0.713024 0.70114 32.5703 575.895)" fill="#AAAAAA"/>
<rect width="8.85177" height="1.52617" rx="0.763083" transform="matrix(0.713024 0.70114 -0.713024 0.70114 47.96 571.053)" fill="#AAAAAA"/>
<rect width="15.4873" height="1.52617" rx="0.763083" transform="matrix(0.713024 -0.70114 0.713024 0.70114 36.7148 582.101)" fill="#AAAAAA"/>
<rect x="76" y="562" width="46" height="30" rx="2" fill="#EEEEEE"/>
<rect width="8.85177" height="1.52617" rx="0.763083" transform="matrix(0.713024 -0.70114 0.713024 0.70114 82.25 582.101)" fill="#AAAAAA"/>
<rect width="8.85177" height="1.52617" rx="0.763083" transform="matrix(0.713024 -0.70114 0.713024 0.70114 108.412 576.956)" fill="#AAAAAA"/>
<rect width="8.85177" height="1.52617" rx="0.763083" transform="matrix(0.713024 0.70114 -0.713024 0.70114 88.5703 575.895)" fill="#AAAAAA"/>
<rect width="8.85177" height="1.52617" rx="0.763083" transform="matrix(0.713024 0.70114 -0.713024 0.70114 103.96 571.053)" fill="#AAAAAA"/>
<rect width="15.4873" height="1.52617" rx="0.763083" transform="matrix(0.713024 -0.70114 0.713024 0.70114 92.7148 582.101)" fill="#AAAAAA"/>
<rect x="132" y="562" width="46" height="30" rx="2" fill="#EEEEEE"/>
<rect width="8.85177" height="1.52617" rx="0.763083" transform="matrix(0.713024 -0.70114 0.713024 0.70114 138.25 582.101)" fill="#AAAAAA"/>
<rect width="8.85177" height="1.52617" rx="0.763083" transform="matrix(0.713024 -0.70114 0.713024 0.70114 164.412 576.956)" fill="#AAAAAA"/>
<rect width="8.85177" height="1.52617" rx="0.763083" transform="matrix(0.713024 0.70114 -0.713024 0.70114 144.57 575.895)" fill="#AAAAAA"/>
<rect width="8.85177" height="1.52617" rx="0.763083" transform="matrix(0.713024 0.70114 -0.713024 0.70114 159.96 571.053)" fill="#AAAAAA"/>
<rect width="15.4873" height="1.52617" rx="0.763083" transform="matrix(0.713024 -0.70114 0.713024 0.70114 148.715 582.101)" fill="#AAAAAA"/>
<path d="M46.4469 446.52H49.4869C49.3935 445.693 49.1669 444.96 48.8069 444.32C48.4469 443.68 47.9869 443.147 47.4269 442.72C46.8802 442.28 46.2535 441.947 45.5469 441.72C44.8535 441.493 44.1135 441.38 43.3269 441.38C42.2335 441.38 41.2469 441.573 40.3669 441.96C39.5002 442.347 38.7669 442.88 38.1669 443.56C37.5669 444.24 37.1069 445.04 36.7869 445.96C36.4669 446.867 36.3069 447.853 36.3069 448.92C36.3069 449.96 36.4669 450.933 36.7869 451.84C37.1069 452.733 37.5669 453.513 38.1669 454.18C38.7669 454.847 39.5002 455.373 40.3669 455.76C41.2469 456.133 42.2335 456.32 43.3269 456.32C44.2069 456.32 45.0135 456.187 45.7469 455.92C46.4802 455.653 47.1202 455.267 47.6669 454.76C48.2135 454.253 48.6535 453.64 48.9869 452.92C49.3202 452.2 49.5269 451.393 49.6069 450.5H46.5669C46.4469 451.46 46.1135 452.233 45.5669 452.82C45.0335 453.407 44.2869 453.7 43.3269 453.7C42.6202 453.7 42.0202 453.567 41.5269 453.3C41.0335 453.02 40.6335 452.653 40.3269 452.2C40.0202 451.747 39.7935 451.24 39.6469 450.68C39.5135 450.107 39.4469 449.52 39.4469 448.92C39.4469 448.293 39.5135 447.687 39.6469 447.1C39.7935 446.513 40.0202 445.993 40.3269 445.54C40.6335 445.073 41.0335 444.707 41.5269 444.44C42.0202 444.16 42.6202 444.02 43.3269 444.02C43.7135 444.02 44.0802 444.087 44.4269 444.22C44.7869 444.34 45.1069 444.513 45.3869 444.74C45.6669 444.967 45.9002 445.233 46.0869 445.54C46.2735 445.833 46.3935 446.16 46.4469 446.52ZM55.3511 450.48L57.2111 445.24H57.2511L59.0511 450.48H55.3511ZM55.6511 441.72L50.2511 456H53.4111L54.5311 452.82H59.8711L60.9511 456H64.2111L58.8711 441.72H55.6511ZM66.7666 444.36V456H69.9066V444.36H74.1866V441.72H62.4866V444.36H66.7666ZM75.8331 441.72V456H86.6731V453.36H78.9731V449.86H85.8931V447.42H78.9731V444.36H86.5131V441.72H75.8331ZM99.1219 454.38L99.4419 456H101.442V448.28H95.4419V450.62H98.6019C98.5085 451.62 98.1752 452.387 97.6019 452.92C97.0419 453.44 96.2419 453.7 95.2019 453.7C94.4952 453.7 93.8952 453.567 93.4019 453.3C92.9085 453.02 92.5085 452.653 92.2019 452.2C91.8952 451.747 91.6685 451.24 91.5219 450.68C91.3885 450.107 91.3219 449.52 91.3219 448.92C91.3219 448.293 91.3885 447.687 91.5219 447.1C91.6685 446.513 91.8952 445.993 92.2019 445.54C92.5085 445.073 92.9085 444.707 93.4019 444.44C93.8952 444.16 94.4952 444.02 95.2019 444.02C95.9619 444.02 96.6085 444.22 97.1419 444.62C97.6752 445.02 98.0352 445.62 98.2219 446.42H101.222C101.142 445.607 100.922 444.887 100.562 444.26C100.202 443.633 99.7419 443.107 99.1819 442.68C98.6352 442.253 98.0152 441.933 97.3219 441.72C96.6419 441.493 95.9352 441.38 95.2019 441.38C94.1085 441.38 93.1219 441.573 92.2419 441.96C91.3752 442.347 90.6419 442.88 90.0419 443.56C89.4419 444.24 88.9819 445.04 88.6619 445.96C88.3419 446.867 88.1819 447.853 88.1819 448.92C88.1819 449.96 88.3419 450.933 88.6619 451.84C88.9819 452.733 89.4419 453.513 90.0419 454.18C90.6419 454.847 91.3752 455.373 92.2419 455.76C93.1219 456.133 94.1085 456.32 95.2019 456.32C95.8952 456.32 96.5819 456.18 97.2619 455.9C97.9419 455.607 98.5619 455.1 99.1219 454.38ZM106.498 448.92C106.498 448.293 106.564 447.687 106.698 447.1C106.844 446.513 107.071 445.993 107.378 445.54C107.684 445.073 108.084 444.707 108.578 444.44C109.071 444.16 109.671 444.02 110.378 444.02C111.084 444.02 111.684 444.16 112.178 444.44C112.671 444.707 113.071 445.073 113.378 445.54C113.684 445.993 113.904 446.513 114.038 447.1C114.184 447.687 114.258 448.293 114.258 448.92C114.258 449.52 114.184 450.107 114.038 450.68C113.904 451.24 113.684 451.747 113.378 452.2C113.071 452.653 112.671 453.02 112.178 453.3C111.684 453.567 111.084 453.7 110.378 453.7C109.671 453.7 109.071 453.567 108.578 453.3C108.084 453.02 107.684 452.653 107.378 452.2C107.071 451.747 106.844 451.24 106.698 450.68C106.564 450.107 106.498 449.52 106.498 448.92ZM103.358 448.92C103.358 449.96 103.518 450.933 103.838 451.84C104.158 452.733 104.618 453.513 105.218 454.18C105.818 454.847 106.551 455.373 107.418 455.76C108.298 456.133 109.284 456.32 110.378 456.32C111.484 456.32 112.471 456.133 113.338 455.76C114.204 455.373 114.938 454.847 115.538 454.18C116.138 453.513 116.598 452.733 116.918 451.84C117.238 450.933 117.398 449.96 117.398 448.92C117.398 447.853 117.238 446.867 116.918 445.96C116.598 445.04 116.138 444.24 115.538 443.56C114.938 442.88 114.204 442.347 113.338 441.96C112.471 441.573 111.484 441.38 110.378 441.38C109.284 441.38 108.298 441.573 107.418 441.96C106.551 442.347 105.818 442.88 105.218 443.56C104.618 444.24 104.158 445.04 103.838 445.96C103.518 446.867 103.358 447.853 103.358 448.92ZM122.684 448.18V444.16H126.124C126.844 444.16 127.384 444.32 127.744 444.64C128.104 444.947 128.284 445.447 128.284 446.14C128.284 446.86 128.104 447.38 127.744 447.7C127.384 448.02 126.844 448.18 126.124 448.18H122.684ZM119.544 441.72V456H122.684V450.42H125.824C126.611 450.42 127.177 450.593 127.524 450.94C127.871 451.287 128.097 451.833 128.204 452.58C128.284 453.153 128.344 453.753 128.384 454.38C128.424 455.007 128.531 455.547 128.704 456H131.844C131.697 455.8 131.584 455.56 131.504 455.28C131.437 454.987 131.384 454.68 131.344 454.36C131.317 454.04 131.297 453.727 131.284 453.42C131.271 453.113 131.257 452.847 131.244 452.62C131.217 452.26 131.164 451.9 131.084 451.54C131.017 451.18 130.904 450.853 130.744 450.56C130.584 450.253 130.377 449.993 130.124 449.78C129.871 449.553 129.551 449.387 129.164 449.28V449.24C129.964 448.92 130.537 448.453 130.884 447.84C131.244 447.227 131.424 446.5 131.424 445.66C131.424 445.113 131.324 444.607 131.124 444.14C130.937 443.66 130.657 443.24 130.284 442.88C129.924 442.52 129.484 442.24 128.964 442.04C128.457 441.827 127.884 441.72 127.244 441.72H119.544ZM133.978 441.72V456H137.118V441.72H133.978ZM139.876 441.72V456H150.716V453.36H143.016V449.86H149.936V447.42H143.016V444.36H150.556V441.72H139.876ZM154.985 451.26H151.945C151.932 452.14 152.092 452.9 152.425 453.54C152.758 454.18 153.205 454.707 153.765 455.12C154.338 455.533 154.992 455.833 155.725 456.02C156.472 456.22 157.238 456.32 158.025 456.32C158.998 456.32 159.852 456.207 160.585 455.98C161.332 455.753 161.952 455.44 162.445 455.04C162.952 454.627 163.332 454.14 163.585 453.58C163.838 453.02 163.965 452.413 163.965 451.76C163.965 450.96 163.792 450.307 163.445 449.8C163.112 449.28 162.712 448.867 162.245 448.56C161.778 448.253 161.305 448.033 160.825 447.9C160.358 447.753 159.992 447.653 159.725 447.6C158.832 447.373 158.105 447.187 157.545 447.04C156.998 446.893 156.565 446.747 156.245 446.6C155.938 446.453 155.732 446.293 155.625 446.12C155.518 445.947 155.465 445.72 155.465 445.44C155.465 445.133 155.532 444.88 155.665 444.68C155.798 444.48 155.965 444.313 156.165 444.18C156.378 444.047 156.612 443.953 156.865 443.9C157.118 443.847 157.372 443.82 157.625 443.82C158.012 443.82 158.365 443.853 158.685 443.92C159.018 443.987 159.312 444.1 159.565 444.26C159.818 444.42 160.018 444.64 160.165 444.92C160.325 445.2 160.418 445.553 160.445 445.98H163.485C163.485 445.153 163.325 444.453 163.005 443.88C162.698 443.293 162.278 442.813 161.745 442.44C161.212 442.067 160.598 441.8 159.905 441.64C159.225 441.467 158.512 441.38 157.765 441.38C157.125 441.38 156.485 441.467 155.845 441.64C155.205 441.813 154.632 442.08 154.125 442.44C153.618 442.8 153.205 443.253 152.885 443.8C152.578 444.333 152.425 444.967 152.425 445.7C152.425 446.353 152.545 446.913 152.785 447.38C153.038 447.833 153.365 448.213 153.765 448.52C154.165 448.827 154.618 449.08 155.125 449.28C155.632 449.467 156.152 449.627 156.685 449.76C157.205 449.907 157.718 450.04 158.225 450.16C158.732 450.28 159.185 450.42 159.585 450.58C159.985 450.74 160.305 450.94 160.545 451.18C160.798 451.42 160.925 451.733 160.925 452.12C160.925 452.48 160.832 452.78 160.645 453.02C160.458 453.247 160.225 453.427 159.945 453.56C159.665 453.693 159.365 453.787 159.045 453.84C158.725 453.88 158.425 453.9 158.145 453.9C157.732 453.9 157.332 453.853 156.945 453.76C156.558 453.653 156.218 453.5 155.925 453.3C155.645 453.087 155.418 452.813 155.245 452.48C155.072 452.147 154.985 451.74 154.985 451.26Z" fill="white"/>
<path d="M24.52 505.36V496.36H26.76C27.5333 496.36 28.18 496.473 28.7 496.7C29.2333 496.913 29.66 497.227 29.98 497.64C30.3 498.053 30.5267 498.553 30.66 499.14C30.8067 499.713 30.88 500.36 30.88 501.08C30.88 501.867 30.78 502.533 30.58 503.08C30.38 503.627 30.1133 504.073 29.78 504.42C29.4467 504.753 29.0667 504.993 28.64 505.14C28.2133 505.287 27.7733 505.36 27.32 505.36H24.52ZM21.38 493.72V508H27.54C28.6333 508 29.58 507.82 30.38 507.46C31.1933 507.087 31.8667 506.58 32.4 505.94C32.9467 505.3 33.3533 504.54 33.62 503.66C33.8867 502.78 34.02 501.82 34.02 500.78C34.02 499.593 33.8533 498.56 33.52 497.68C33.2 496.8 32.7467 496.067 32.16 495.48C31.5867 494.893 30.9 494.453 30.1 494.16C29.3133 493.867 28.46 493.72 27.54 493.72H21.38ZM36.2042 493.72V508H47.0442V505.36H39.3442V501.86H46.2642V499.42H39.3442V496.36H46.8842V493.72H36.2042ZM51.313 503.26H48.273C48.2596 504.14 48.4196 504.9 48.753 505.54C49.0863 506.18 49.533 506.707 50.093 507.12C50.6663 507.533 51.3196 507.833 52.053 508.02C52.7996 508.22 53.5663 508.32 54.353 508.32C55.3263 508.32 56.1796 508.207 56.913 507.98C57.6596 507.753 58.2796 507.44 58.773 507.04C59.2796 506.627 59.6596 506.14 59.913 505.58C60.1663 505.02 60.293 504.413 60.293 503.76C60.293 502.96 60.1196 502.307 59.773 501.8C59.4396 501.28 59.0396 500.867 58.573 500.56C58.1063 500.253 57.633 500.033 57.153 499.9C56.6863 499.753 56.3196 499.653 56.053 499.6C55.1596 499.373 54.433 499.187 53.873 499.04C53.3263 498.893 52.893 498.747 52.573 498.6C52.2663 498.453 52.0596 498.293 51.953 498.12C51.8463 497.947 51.793 497.72 51.793 497.44C51.793 497.133 51.8596 496.88 51.993 496.68C52.1263 496.48 52.293 496.313 52.493 496.18C52.7063 496.047 52.9396 495.953 53.193 495.9C53.4463 495.847 53.6996 495.82 53.953 495.82C54.3396 495.82 54.693 495.853 55.013 495.92C55.3463 495.987 55.6396 496.1 55.893 496.26C56.1463 496.42 56.3463 496.64 56.493 496.92C56.653 497.2 56.7463 497.553 56.773 497.98H59.813C59.813 497.153 59.653 496.453 59.333 495.88C59.0263 495.293 58.6063 494.813 58.073 494.44C57.5396 494.067 56.9263 493.8 56.233 493.64C55.553 493.467 54.8396 493.38 54.093 493.38C53.453 493.38 52.813 493.467 52.173 493.64C51.533 493.813 50.9596 494.08 50.453 494.44C49.9463 494.8 49.533 495.253 49.213 495.8C48.9063 496.333 48.753 496.967 48.753 497.7C48.753 498.353 48.873 498.913 49.113 499.38C49.3663 499.833 49.693 500.213 50.093 500.52C50.493 500.827 50.9463 501.08 51.453 501.28C51.9596 501.467 52.4796 501.627 53.013 501.76C53.533 501.907 54.0463 502.04 54.553 502.16C55.0596 502.28 55.513 502.42 55.913 502.58C56.313 502.74 56.633 502.94 56.873 503.18C57.1263 503.42 57.253 503.733 57.253 504.12C57.253 504.48 57.1596 504.78 56.973 505.02C56.7863 505.247 56.553 505.427 56.273 505.56C55.993 505.693 55.693 505.787 55.373 505.84C55.053 505.88 54.753 505.9 54.473 505.9C54.0596 505.9 53.6596 505.853 53.273 505.76C52.8863 505.653 52.5463 505.5 52.253 505.3C51.973 505.087 51.7463 504.813 51.573 504.48C51.3996 504.147 51.313 503.74 51.313 503.26ZM71.6813 498.52H74.7213C74.6279 497.693 74.4013 496.96 74.0413 496.32C73.6813 495.68 73.2213 495.147 72.6613 494.72C72.1146 494.28 71.4879 493.947 70.7812 493.72C70.0879 493.493 69.3479 493.38 68.5613 493.38C67.4679 493.38 66.4813 493.573 65.6013 493.96C64.7346 494.347 64.0013 494.88 63.4013 495.56C62.8013 496.24 62.3413 497.04 62.0213 497.96C61.7013 498.867 61.5413 499.853 61.5413 500.92C61.5413 501.96 61.7013 502.933 62.0213 503.84C62.3413 504.733 62.8013 505.513 63.4013 506.18C64.0013 506.847 64.7346 507.373 65.6013 507.76C66.4813 508.133 67.4679 508.32 68.5613 508.32C69.4413 508.32 70.2479 508.187 70.9813 507.92C71.7146 507.653 72.3546 507.267 72.9013 506.76C73.4479 506.253 73.8879 505.64 74.2213 504.92C74.5546 504.2 74.7613 503.393 74.8413 502.5H71.8012C71.6813 503.46 71.3479 504.233 70.8013 504.82C70.2679 505.407 69.5213 505.7 68.5613 505.7C67.8546 505.7 67.2546 505.567 66.7613 505.3C66.2679 505.02 65.8679 504.653 65.5613 504.2C65.2546 503.747 65.0279 503.24 64.8813 502.68C64.7479 502.107 64.6813 501.52 64.6813 500.92C64.6813 500.293 64.7479 499.687 64.8813 499.1C65.0279 498.513 65.2546 497.993 65.5613 497.54C65.8679 497.073 66.2679 496.707 66.7613 496.44C67.2546 496.16 67.8546 496.02 68.5613 496.02C68.9479 496.02 69.3146 496.087 69.6613 496.22C70.0213 496.34 70.3413 496.513 70.6213 496.74C70.9013 496.967 71.1346 497.233 71.3213 497.54C71.5079 497.833 71.6279 498.16 71.6813 498.52ZM80.1255 500.18V496.16H83.5655C84.2855 496.16 84.8255 496.32 85.1855 496.64C85.5455 496.947 85.7255 497.447 85.7255 498.14C85.7255 498.86 85.5455 499.38 85.1855 499.7C84.8255 500.02 84.2855 500.18 83.5655 500.18H80.1255ZM76.9855 493.72V508H80.1255V502.42H83.2655C84.0521 502.42 84.6188 502.593 84.9655 502.94C85.3121 503.287 85.5388 503.833 85.6455 504.58C85.7255 505.153 85.7855 505.753 85.8255 506.38C85.8655 507.007 85.9721 507.547 86.1455 508H89.2855C89.1388 507.8 89.0255 507.56 88.9455 507.28C88.8788 506.987 88.8255 506.68 88.7855 506.36C88.7588 506.04 88.7388 505.727 88.7255 505.42C88.7121 505.113 88.6988 504.847 88.6855 504.62C88.6588 504.26 88.6055 503.9 88.5255 503.54C88.4588 503.18 88.3455 502.853 88.1855 502.56C88.0255 502.253 87.8188 501.993 87.5655 501.78C87.3121 501.553 86.9921 501.387 86.6055 501.28V501.24C87.4055 500.92 87.9788 500.453 88.3255 499.84C88.6855 499.227 88.8655 498.5 88.8655 497.66C88.8655 497.113 88.7655 496.607 88.5655 496.14C88.3788 495.66 88.0988 495.24 87.7255 494.88C87.3655 494.52 86.9255 494.24 86.4055 494.04C85.8988 493.827 85.3255 493.72 84.6855 493.72H76.9855ZM91.4191 493.72V508H94.5591V493.72H91.4191ZM100.458 500.44V496.16H102.898C103.258 496.16 103.604 496.187 103.938 496.24C104.271 496.293 104.564 496.4 104.818 496.56C105.071 496.707 105.271 496.92 105.418 497.2C105.578 497.48 105.658 497.847 105.658 498.3C105.658 498.753 105.578 499.12 105.418 499.4C105.271 499.68 105.071 499.9 104.818 500.06C104.564 500.207 104.271 500.307 103.938 500.36C103.604 500.413 103.258 500.44 102.898 500.44H100.458ZM97.3175 493.72V508H100.458V502.88H103.758C104.651 502.88 105.411 502.753 106.037 502.5C106.664 502.233 107.171 501.887 107.558 501.46C107.958 501.033 108.244 500.547 108.418 500C108.604 499.44 108.698 498.873 108.698 498.3C108.698 497.713 108.604 497.147 108.418 496.6C108.244 496.053 107.958 495.567 107.558 495.14C107.171 494.713 106.664 494.373 106.037 494.12C105.411 493.853 104.651 493.72 103.758 493.72H97.3175ZM113.817 496.36V508H116.957V496.36H121.237V493.72H109.537V496.36H113.817ZM122.884 493.72V508H126.024V493.72H122.884ZM131.302 500.92C131.302 500.293 131.369 499.687 131.502 499.1C131.649 498.513 131.876 497.993 132.182 497.54C132.489 497.073 132.889 496.707 133.382 496.44C133.876 496.16 134.476 496.02 135.182 496.02C135.889 496.02 136.489 496.16 136.982 496.44C137.476 496.707 137.876 497.073 138.182 497.54C138.489 497.993 138.709 498.513 138.842 499.1C138.989 499.687 139.062 500.293 139.062 500.92C139.062 501.52 138.989 502.107 138.842 502.68C138.709 503.24 138.489 503.747 138.182 504.2C137.876 504.653 137.476 505.02 136.982 505.3C136.489 505.567 135.889 505.7 135.182 505.7C134.476 505.7 133.876 505.567 133.382 505.3C132.889 505.02 132.489 504.653 132.182 504.2C131.876 503.747 131.649 503.24 131.502 502.68C131.369 502.107 131.302 501.52 131.302 500.92ZM128.162 500.92C128.162 501.96 128.322 502.933 128.642 503.84C128.962 504.733 129.422 505.513 130.022 506.18C130.622 506.847 131.356 507.373 132.222 507.76C133.102 508.133 134.089 508.32 135.182 508.32C136.289 508.32 137.276 508.133 138.142 507.76C139.009 507.373 139.742 506.847 140.342 506.18C140.942 505.513 141.402 504.733 141.722 503.84C142.042 502.933 142.202 501.96 142.202 500.92C142.202 499.853 142.042 498.867 141.722 497.96C141.402 497.04 140.942 496.24 140.342 495.56C139.742 494.88 139.009 494.347 138.142 493.96C137.276 493.573 136.289 493.38 135.182 493.38C134.089 493.38 133.102 493.573 132.222 493.96C131.356 494.347 130.622 494.88 130.022 495.56C129.422 496.24 128.962 497.04 128.642 497.96C128.322 498.867 128.162 499.853 128.162 500.92ZM144.349 493.72V508H147.289V498.44H147.329L153.269 508H156.409V493.72H153.469V503.3H153.429L147.469 493.72H144.349Z" fill="white"/>
<rect x="10" y="631" width="180" height="33" rx="4" fill="#BBBBBB"/>
<path d="M60.0714 639.72V654H63.2114V648.1H69.1914V645.66H63.2114V642.36H70.1114V639.72H60.0714ZM74.4469 646.92C74.4469 646.293 74.5135 645.687 74.6469 645.1C74.7935 644.513 75.0202 643.993 75.3269 643.54C75.6335 643.073 76.0335 642.707 76.5269 642.44C77.0202 642.16 77.6202 642.02 78.3269 642.02C79.0335 642.02 79.6335 642.16 80.1269 642.44C80.6202 642.707 81.0202 643.073 81.3269 643.54C81.6335 643.993 81.8535 644.513 81.9869 645.1C82.1335 645.687 82.2069 646.293 82.2069 646.92C82.2069 647.52 82.1335 648.107 81.9869 648.68C81.8535 649.24 81.6335 649.747 81.3269 650.2C81.0202 650.653 80.6202 651.02 80.1269 651.3C79.6335 651.567 79.0335 651.7 78.3269 651.7C77.6202 651.7 77.0202 651.567 76.5269 651.3C76.0335 651.02 75.6335 650.653 75.3269 650.2C75.0202 649.747 74.7935 649.24 74.6469 648.68C74.5135 648.107 74.4469 647.52 74.4469 646.92ZM71.3069 646.92C71.3069 647.96 71.4669 648.933 71.7869 649.84C72.1069 650.733 72.5669 651.513 73.1669 652.18C73.7669 652.847 74.5002 653.373 75.3669 653.76C76.2469 654.133 77.2335 654.32 78.3269 654.32C79.4335 654.32 80.4202 654.133 81.2869 653.76C82.1535 653.373 82.8869 652.847 83.4869 652.18C84.0869 651.513 84.5469 650.733 84.8669 649.84C85.1869 648.933 85.3469 647.96 85.3469 646.92C85.3469 645.853 85.1869 644.867 84.8669 643.96C84.5469 643.04 84.0869 642.24 83.4869 641.56C82.8869 640.88 82.1535 640.347 81.2869 639.96C80.4202 639.573 79.4335 639.38 78.3269 639.38C77.2335 639.38 76.2469 639.573 75.3669 639.96C74.5002 640.347 73.7669 640.88 73.1669 641.56C72.5669 642.24 72.1069 643.04 71.7869 643.96C71.4669 644.867 71.3069 645.853 71.3069 646.92ZM90.0133 646.92C90.0133 646.293 90.0799 645.687 90.2133 645.1C90.3599 644.513 90.5866 643.993 90.8933 643.54C91.1999 643.073 91.5999 642.707 92.0933 642.44C92.5866 642.16 93.1866 642.02 93.8933 642.02C94.5999 642.02 95.1999 642.16 95.6933 642.44C96.1866 642.707 96.5866 643.073 96.8933 643.54C97.1999 643.993 97.4199 644.513 97.5533 645.1C97.6999 645.687 97.7733 646.293 97.7733 646.92C97.7733 647.52 97.6999 648.107 97.5533 648.68C97.4199 649.24 97.1999 649.747 96.8933 650.2C96.5866 650.653 96.1866 651.02 95.6933 651.3C95.1999 651.567 94.5999 651.7 93.8933 651.7C93.1866 651.7 92.5866 651.567 92.0933 651.3C91.5999 651.02 91.1999 650.653 90.8933 650.2C90.5866 649.747 90.3599 649.24 90.2133 648.68C90.0799 648.107 90.0133 647.52 90.0133 646.92ZM86.8733 646.92C86.8733 647.96 87.0333 648.933 87.3533 649.84C87.6733 650.733 88.1333 651.513 88.7333 652.18C89.3333 652.847 90.0666 653.373 90.9333 653.76C91.8133 654.133 92.7999 654.32 93.8933 654.32C94.9999 654.32 95.9866 654.133 96.8533 653.76C97.7199 653.373 98.4533 652.847 99.0533 652.18C99.6533 651.513 100.113 650.733 100.433 649.84C100.753 648.933 100.913 647.96 100.913 646.92C100.913 645.853 100.753 644.867 100.433 643.96C100.113 643.04 99.6533 642.24 99.0533 641.56C98.4533 640.88 97.7199 640.347 96.8533 639.96C95.9866 639.573 94.9999 639.38 93.8933 639.38C92.7999 639.38 91.8133 639.573 90.9333 639.96C90.0666 640.347 89.3333 640.88 88.7333 641.56C88.1333 642.24 87.6733 643.04 87.3533 643.96C87.0333 644.867 86.8733 645.853 86.8733 646.92ZM106.22 642.36V654H109.36V642.36H113.64V639.72H101.94V642.36H106.22ZM115.286 639.72V654H126.126V651.36H118.426V647.86H125.346V645.42H118.426V642.36H125.966V639.72H115.286ZM131.395 646.18V642.16H134.835C135.555 642.16 136.095 642.32 136.455 642.64C136.815 642.947 136.995 643.447 136.995 644.14C136.995 644.86 136.815 645.38 136.455 645.7C136.095 646.02 135.555 646.18 134.835 646.18H131.395ZM128.255 639.72V654H131.395V648.42H134.535C135.322 648.42 135.888 648.593 136.235 648.94C136.582 649.287 136.808 649.833 136.915 650.58C136.995 651.153 137.055 651.753 137.095 652.38C137.135 653.007 137.242 653.547 137.415 654H140.555C140.408 653.8 140.295 653.56 140.215 653.28C140.148 652.987 140.095 652.68 140.055 652.36C140.028 652.04 140.008 651.727 139.995 651.42C139.982 651.113 139.968 650.847 139.955 650.62C139.928 650.26 139.875 649.9 139.795 649.54C139.728 649.18 139.615 648.853 139.455 648.56C139.295 648.253 139.088 647.993 138.835 647.78C138.582 647.553 138.262 647.387 137.875 647.28V647.24C138.675 646.92 139.248 646.453 139.595 645.84C139.955 645.227 140.135 644.5 140.135 643.66C140.135 643.113 140.035 642.607 139.835 642.14C139.648 641.66 139.368 641.24 138.995 640.88C138.635 640.52 138.195 640.24 137.675 640.04C137.168 639.827 136.595 639.72 135.955 639.72H128.255Z" fill="white"/>
<rect x="127" y="387" width="8" height="24" transform="rotate(-45 127 387)" fill="#555555"/>
<rect x="163.3" y="381.4" width="8" height="24" transform="rotate(45 163.3 381.4)" fill="#555555"/>
<rect x="144" y="182" width="8" height="222" fill="#555555"/>
<rect x="163" y="182" width="8" height="148" fill="#555555"/>
<rect x="163" y="330" width="7.99997" height="633" transform="rotate(-90 163 330)" fill="#555555"/>
<rect x="771" y="387" width="8" height="24" transform="rotate(-45 771 387)" fill="#555555"/>
<rect x="807.3" y="381.4" width="8" height="24" transform="rotate(45 807.3 381.4)" fill="#555555"/>
<rect x="788" y="330" width="8" height="74" fill="#555555"/>
<rect x="313" y="557.957" width="8" height="24" transform="rotate(-135 313 557.957)" fill="#555555"/>
<rect x="307.4" y="521.657" width="8" height="24" transform="rotate(-45 307.4 521.657)" fill="#555555"/>
<rect x="184" y="541" width="7.99999" height="146" transform="rotate(-90 184 541)" fill="#555555"/>
</svg>
