<svg width="870" height="1316" viewBox="0 0 870 1316" fill="none" xmlns="http://www.w3.org/2000/svg">
<g clip-path="url(#clip0_1430_307)">
<path d="M510.134 562.352H486.623V140.949C486.623 137.269 485.897 133.626 484.486 130.228C483.074 126.831 481.006 123.745 478.399 121.149C475.792 118.552 472.698 116.496 469.295 115.098C465.891 113.7 462.245 112.988 458.566 113.003H354.876V29.0547C355.179 21.733 352.594 14.585 347.678 9.15051C342.762 3.71603 335.908 0.429908 328.593 0L196.402 0C192.731 0.114671 189.119 0.951637 185.772 2.46305C182.425 3.97446 179.409 6.13068 176.896 8.80844C174.383 11.4862 172.422 14.633 171.126 18.0689C169.83 21.5049 169.224 25.1625 169.342 28.8329V113.225H65.2084C61.5291 113.21 57.8831 113.922 54.4797 115.32C51.0763 116.718 47.9824 118.774 45.3756 121.37C42.7687 123.967 40.7003 127.052 39.2889 130.45C37.8775 133.848 37.151 137.491 37.1511 141.17V562.574H14.0841C10.3488 562.574 6.76643 564.058 4.12515 566.699C1.48386 569.34 0 572.923 0 576.658L0 599.724H523.774V577.545C524.081 573.825 522.899 570.135 520.487 567.286C518.075 564.438 514.63 562.663 510.91 562.352H510.134ZM205.606 82.7282C205.662 80.893 206.416 79.1481 207.714 77.8497C209.012 76.5514 210.757 75.7975 212.593 75.7418H243.09V46.2435C243.144 44.4267 243.882 42.6973 245.157 41.4017C246.432 40.1062 248.15 39.3402 249.966 39.2571H273.033C274.868 39.3128 276.613 40.0667 277.911 41.365C279.21 42.6634 279.964 44.4082 280.019 46.2435V76.7399H310.516C312.322 76.7955 314.039 77.5377 315.317 78.8153C316.594 80.0928 317.336 81.8095 317.392 83.6154V106.682C317.364 108.507 316.634 110.251 315.354 111.553C314.074 112.854 312.341 113.611 310.516 113.668H280.463V144.164C280.407 145.97 279.665 147.687 278.387 148.965C277.11 150.242 275.393 150.984 273.587 151.04H250.409C248.682 150.878 247.074 150.089 245.889 148.822C244.704 147.556 244.024 145.899 243.977 144.164V113.225H212.593C210.757 113.169 209.012 112.415 207.714 111.117C206.416 109.818 205.662 108.073 205.606 106.238V82.7282ZM149.491 239.535C149.491 235.8 150.975 232.217 153.617 229.576C156.258 226.935 159.84 225.451 163.576 225.451H209.82C213.556 225.451 217.138 226.935 219.779 229.576C222.421 232.217 223.904 235.8 223.904 239.535V285.778C223.789 289.436 222.255 292.906 219.626 295.452C216.997 297.998 213.48 299.42 209.82 299.419H163.576C159.84 299.419 156.258 297.935 153.617 295.294C150.975 292.652 149.491 289.07 149.491 285.335V239.535ZM210.707 412.643H164.019C160.284 412.643 156.701 411.159 154.06 408.518C151.419 405.877 149.935 402.295 149.935 398.559V352.316C149.935 348.581 151.419 344.998 154.06 342.357C156.701 339.716 160.284 338.232 164.019 338.232H210.707C214.443 338.232 218.025 339.716 220.666 342.357C223.308 344.998 224.792 348.581 224.792 352.316V398.559C224.792 402.295 223.308 405.877 220.666 408.518C218.025 411.159 214.443 412.643 210.707 412.643ZM299.426 562.352H224.348V464.099C224.348 460.364 225.832 456.781 228.473 454.14C231.114 451.499 234.697 450.015 238.432 450.015H284.677C288.412 450.015 291.995 451.499 294.636 454.14C297.277 456.781 298.761 460.364 298.761 464.099L299.426 562.352ZM374.283 398.559C374.283 400.409 373.919 402.24 373.211 403.949C372.503 405.658 371.466 407.21 370.158 408.518C368.85 409.826 367.297 410.863 365.589 411.571C363.88 412.279 362.048 412.643 360.199 412.643H313.732C311.864 412.673 310.009 412.33 308.274 411.635C306.54 410.941 304.961 409.908 303.63 408.597C302.298 407.287 301.241 405.724 300.519 404.001C299.798 402.277 299.426 400.428 299.426 398.559V352.316C299.426 348.581 300.91 344.998 303.552 342.357C306.193 339.716 309.775 338.232 313.511 338.232H359.755C363.491 338.232 367.073 339.716 369.714 342.357C372.356 344.998 373.839 348.581 373.839 352.316L374.283 398.559ZM374.283 286.222C374.283 288.071 373.919 289.903 373.211 291.612C372.503 293.32 371.466 294.873 370.158 296.181C368.85 297.488 367.297 298.526 365.589 299.234C363.88 299.941 362.048 300.306 360.199 300.306H313.732C311.864 300.335 310.009 299.993 308.274 299.298C306.54 298.603 304.961 297.571 303.63 296.26C302.298 294.949 301.241 293.387 300.519 291.663C299.798 289.94 299.426 288.09 299.426 286.222V240.089C299.426 236.354 300.91 232.772 303.552 230.131C306.193 227.489 309.775 226.006 313.511 226.006H359.755C363.491 226.006 367.073 227.489 369.714 230.131C372.356 232.772 373.839 236.354 373.839 240.089L374.283 286.222Z" fill="white"/>
<path d="M546.181 1149.54L543.963 1137.68C725.837 1102.19 857.918 938.954 857.918 749.544C857.918 531.634 684.361 354.201 470.992 354.201V341.891C691.015 341.891 870.227 524.758 870.227 749.322C870.006 944.72 733.822 1112.95 546.181 1149.54Z" fill="white"/>
<path d="M424.744 1219.85H271.482C269.116 1220.11 266.927 1221.23 265.337 1223C263.746 1224.77 262.867 1227.07 262.867 1229.45C262.867 1231.83 263.746 1234.12 265.337 1235.89C266.927 1237.66 269.116 1238.78 271.482 1239.04H424.744C427.11 1238.78 429.299 1237.66 430.889 1235.89C432.479 1234.12 433.359 1231.83 433.359 1229.45C433.359 1227.07 432.479 1224.77 430.889 1223C429.299 1221.23 427.11 1220.11 424.744 1219.85ZM424.744 1258.22H271.482C269.116 1258.48 266.927 1259.6 265.337 1261.37C263.746 1263.14 262.867 1265.44 262.867 1267.82C262.867 1270.2 263.746 1272.49 265.337 1274.26C266.927 1276.03 269.116 1277.15 271.482 1277.41H424.744C427.11 1277.15 429.299 1276.03 430.889 1274.26C432.479 1272.49 433.359 1270.2 433.359 1267.82C433.359 1265.44 432.479 1263.14 430.889 1261.37C429.299 1259.6 427.11 1258.48 424.744 1258.22ZM99.1453 1219.85C93.4332 1219.83 87.8432 1221.51 83.0846 1224.67C78.326 1227.83 74.6131 1232.33 72.4171 1237.6C70.221 1242.87 69.6406 1248.68 70.7496 1254.28C71.8587 1259.89 74.607 1265.04 78.6462 1269.07C82.6853 1273.11 87.8331 1275.86 93.4366 1276.97C99.0401 1278.08 104.847 1277.5 110.12 1275.3C115.393 1273.11 119.895 1269.39 123.055 1264.64C126.215 1259.88 127.89 1254.29 127.868 1248.58C127.839 1240.97 124.803 1233.68 119.423 1228.3C114.043 1222.92 106.754 1219.88 99.1453 1219.85ZM99.1453 1258.22C97.2325 1258.25 95.3564 1257.7 93.7552 1256.65C92.1541 1255.61 90.9002 1254.11 90.1529 1252.35C89.4056 1250.58 89.1987 1248.64 89.5583 1246.76C89.918 1244.88 90.828 1243.15 92.1728 1241.79C93.5176 1240.43 95.2365 1239.5 97.111 1239.12C98.9855 1238.74 100.931 1238.92 102.701 1239.65C104.47 1240.38 105.983 1241.62 107.049 1243.2C108.114 1244.79 108.682 1246.66 108.683 1248.58C108.727 1249.86 108.514 1251.14 108.056 1252.34C107.598 1253.55 106.904 1254.64 106.016 1255.57C105.127 1256.5 104.062 1257.25 102.882 1257.76C101.702 1258.27 100.431 1258.54 99.1453 1258.56V1258.22ZM99.1453 1104.97C93.4645 1104.97 87.9113 1106.65 83.1878 1109.81C78.4644 1112.96 74.7829 1117.45 72.609 1122.7C70.435 1127.94 69.8662 1133.72 70.9745 1139.29C72.0827 1144.86 74.8183 1149.98 78.8353 1154C82.8522 1158.01 87.9701 1160.75 93.5418 1161.86C99.1135 1162.97 104.889 1162.4 110.137 1160.22C115.385 1158.05 119.871 1154.37 123.027 1149.64C126.184 1144.92 127.868 1139.37 127.868 1133.69C127.781 1126.13 124.716 1118.91 119.339 1113.59C113.962 1108.28 106.706 1105.3 99.1453 1105.3V1104.97ZM99.1453 1143.34C97.2325 1143.36 95.3564 1142.81 93.7552 1141.76C92.1541 1140.72 90.9002 1139.22 90.1529 1137.46C89.4056 1135.7 89.1987 1133.75 89.5583 1131.87C89.918 1130 90.828 1128.27 92.1728 1126.91C93.5176 1125.55 95.2365 1124.62 97.111 1124.23C98.9855 1123.85 100.931 1124.04 102.701 1124.76C104.47 1125.49 105.983 1126.73 107.049 1128.32C108.114 1129.9 108.682 1131.77 108.683 1133.69C108.727 1134.97 108.514 1136.25 108.056 1137.46C107.598 1138.66 106.904 1139.76 106.016 1140.69C105.127 1141.62 104.062 1142.36 102.882 1142.87C101.702 1143.38 100.431 1143.65 99.1453 1143.67V1143.34ZM424.744 1028.67H271.482C269.116 1028.92 266.927 1030.04 265.337 1031.82C263.746 1033.59 262.867 1035.88 262.867 1038.26C262.867 1040.64 263.746 1042.94 265.337 1044.71C266.927 1046.48 269.116 1047.6 271.482 1047.85H424.744C427.11 1047.6 429.299 1046.48 430.889 1044.71C432.479 1042.94 433.359 1040.64 433.359 1038.26C433.359 1035.88 432.479 1033.59 430.889 1031.82C429.299 1030.04 427.11 1028.92 424.744 1028.67ZM424.744 990.41H271.482C269.116 990.665 266.927 991.785 265.337 993.556C263.746 995.327 262.867 997.623 262.867 1000C262.867 1002.38 263.746 1004.68 265.337 1006.45C266.927 1008.22 269.116 1009.34 271.482 1009.6H424.744C427.11 1009.34 429.299 1008.22 430.889 1006.45C432.479 1004.68 433.359 1002.38 433.359 1000C433.359 997.623 432.479 995.327 430.889 993.556C429.299 991.785 427.11 990.665 424.744 990.41ZM424.744 1143.67H271.482C268.952 1143.67 266.527 1144.67 264.738 1146.46C262.949 1148.25 261.945 1150.68 261.945 1153.21C261.945 1155.73 262.949 1158.16 264.738 1159.95C266.527 1161.74 268.952 1162.74 271.482 1162.74H424.744C427.273 1162.74 429.699 1161.74 431.488 1159.95C433.276 1158.16 434.281 1155.73 434.281 1153.21C434.281 1150.68 433.276 1148.25 431.488 1146.46C429.699 1144.67 427.273 1143.67 424.744 1143.67ZM491.283 1038.32V999.947C491.224 991.125 488.729 982.49 484.075 974.996V974.108L424.855 878.96C420.532 872.092 414.522 866.447 407.396 862.565C400.271 858.682 392.269 856.69 384.155 856.781H139.623C131.509 856.69 123.507 858.682 116.382 862.565C109.257 866.447 103.246 872.092 98.9235 878.96L39.7036 974.108C34.8617 981.653 32.2831 990.428 32.2734 999.393V1037.76C32.3163 1045.22 34.1038 1052.56 37.4929 1059.21C40.8821 1065.85 45.7788 1071.61 51.7916 1076.02C45.7638 1080.45 40.8579 1086.22 37.468 1092.88C34.0782 1099.55 32.299 1106.92 32.2734 1114.39V1153.32C32.29 1160.78 34.066 1168.13 37.4573 1174.78C40.8485 1181.43 45.7595 1187.18 51.7916 1191.58C45.7638 1196 40.8579 1201.77 37.468 1208.44C34.0782 1215.1 32.299 1222.47 32.2734 1229.95V1268.2C32.3027 1280.9 37.3596 1293.07 46.3378 1302.05C55.316 1311.02 67.4846 1316.08 80.1817 1316.11H443.597C456.294 1316.08 468.462 1311.02 477.44 1302.05C486.419 1293.07 491.476 1280.9 491.505 1268.2V1229.83C491.501 1222.37 489.743 1215 486.372 1208.34C483.001 1201.67 478.111 1195.89 472.098 1191.46C478.141 1187.1 483.069 1181.37 486.48 1174.74C489.891 1168.11 491.689 1160.77 491.727 1153.32V1115.06C491.723 1107.59 489.964 1100.23 486.593 1093.56C483.222 1086.9 478.333 1081.12 472.319 1076.69C478.346 1072.27 483.245 1066.49 486.617 1059.83C489.99 1053.16 491.74 1045.79 491.727 1038.32H491.283ZM115.226 889.051C117.825 884.991 121.423 881.666 125.676 879.394C129.928 877.122 134.692 875.98 139.512 876.077H384.266C389.151 876.052 393.961 877.283 398.233 879.652C402.506 882.021 406.097 885.449 408.663 889.606L448.143 953.149C446.719 952.848 445.273 952.663 443.818 952.595H79.9599C78.5063 952.67 77.0604 952.855 75.6348 953.149L115.226 889.051ZM472.541 1229.83V1268.09C472.541 1271.88 471.791 1275.64 470.334 1279.14C468.876 1282.64 466.741 1285.81 464.05 1288.48C461.359 1291.15 458.167 1293.26 454.656 1294.69C451.146 1296.12 447.387 1296.84 443.597 1296.82H79.9599C72.3421 1296.82 65.0364 1293.79 59.6498 1288.4C54.2632 1283.02 51.2371 1275.71 51.2371 1268.09V1229.83C51.2371 1222.22 54.2632 1214.91 59.6498 1209.52C65.0364 1204.14 72.3421 1201.11 79.9599 1201.11H443.597C447.387 1201.08 451.146 1201.8 454.656 1203.23C458.167 1204.66 461.359 1206.78 464.05 1209.45C466.741 1212.12 468.876 1215.29 470.334 1218.79C471.791 1222.29 472.541 1226.04 472.541 1229.83ZM472.541 1114.95V1153.32C472.527 1157.1 471.766 1160.84 470.302 1164.32C468.838 1167.81 466.7 1170.97 464.011 1173.63C461.322 1176.29 458.134 1178.39 454.631 1179.82C451.128 1181.24 447.378 1181.96 443.597 1181.93H79.9599C72.3613 1181.93 65.0723 1178.92 59.6889 1173.55C54.3055 1168.19 51.2664 1160.91 51.2371 1153.32V1115.06C51.2371 1107.43 54.2596 1100.11 59.643 1094.71C65.0264 1089.3 72.3319 1086.25 79.9599 1086.22H443.597C447.383 1086.21 451.135 1086.94 454.639 1088.38C458.143 1089.81 461.33 1091.92 464.018 1094.59C466.705 1097.26 468.841 1100.43 470.304 1103.92C471.766 1107.41 472.527 1111.16 472.541 1114.95ZM472.541 1038.32C472.541 1042.11 471.791 1045.86 470.334 1049.36C468.876 1052.86 466.741 1056.04 464.05 1058.71C461.359 1061.38 458.167 1063.49 454.656 1064.92C451.146 1066.35 447.387 1067.07 443.597 1067.04H79.9599C72.3421 1067.04 65.0364 1064.01 59.6498 1058.63C54.2632 1053.24 51.2371 1045.93 51.2371 1038.32V999.947C51.2371 996.175 51.98 992.44 53.4235 988.956C54.867 985.471 56.9827 982.305 59.6498 979.638C62.317 976.971 65.4833 974.855 68.9681 973.412C72.4529 971.968 76.1879 971.225 79.9599 971.225H443.597C447.369 971.225 451.104 971.968 454.588 973.412C458.073 974.855 461.239 976.971 463.907 979.638C466.574 982.305 468.69 985.471 470.133 988.956C471.576 992.44 472.319 996.175 472.319 999.947L472.541 1038.32ZM424.744 1104.85H271.482C269.116 1105.11 266.927 1106.23 265.337 1108C263.746 1109.77 262.867 1112.07 262.867 1114.45C262.867 1116.83 263.746 1119.12 265.337 1120.89C266.927 1122.66 269.116 1123.78 271.482 1124.04H424.744C427.11 1123.78 429.299 1122.66 430.889 1120.89C432.479 1119.12 433.359 1116.83 433.359 1114.45C433.359 1112.07 432.479 1109.77 430.889 1108C429.299 1106.23 427.11 1105.11 424.744 1104.85ZM99.1453 990.41C93.4645 990.41 87.9113 992.095 83.1878 995.251C78.4644 998.407 74.7829 1002.89 72.609 1008.14C70.435 1013.39 69.8662 1019.16 70.9745 1024.74C72.0827 1030.31 74.8183 1035.42 78.8353 1039.44C82.8522 1043.46 87.9701 1046.19 93.5418 1047.3C99.1135 1048.41 104.889 1047.84 110.137 1045.67C115.385 1043.49 119.871 1039.81 123.027 1035.09C126.184 1030.37 127.868 1024.81 127.868 1019.13C127.868 1011.51 124.842 1004.21 119.455 998.823C114.069 993.436 106.763 990.41 99.1453 990.41ZM99.1453 1028.67C97.259 1028.67 95.4151 1028.11 93.8467 1027.06C92.2783 1026.01 91.0559 1024.52 90.334 1022.78C89.6122 1021.04 89.4233 1019.12 89.7913 1017.27C90.1593 1015.42 91.0676 1013.72 92.4015 1012.39C93.7353 1011.05 95.4347 1010.15 97.2847 1009.78C99.1348 1009.41 101.052 1009.6 102.795 1010.32C104.538 1011.04 106.027 1012.27 107.075 1013.83C108.123 1015.4 108.683 1017.25 108.683 1019.13C108.683 1021.66 107.678 1024.09 105.889 1025.88C104.101 1027.66 101.675 1028.67 99.1453 1028.67Z" fill="white"/>
<path fill-rule="evenodd" clip-rule="evenodd" d="M604.168 1207.77L472.531 1134.02L604.168 1060.27V1207.77Z" fill="white"/>
</g>
<defs>
<clipPath id="clip0_1430_307">
<rect width="870" height="1316" fill="white"/>
</clipPath>
</defs>
</svg>
