<svg width="878" height="689" viewBox="0 0 878 689" fill="none" xmlns="http://www.w3.org/2000/svg">
<path d="M750 524.875C717.891 524.875 691.875 551.125 691.875 583C691.875 615.109 717.891 641.125 750 641.125C781.875 641.125 808.125 615.109 808.125 583C808.125 551.125 781.875 524.875 750 524.875ZM750 629.875C723.984 629.875 703.125 609.016 703.125 583C703.125 557.219 723.984 536.125 750 536.125C775.781 536.125 796.875 557.219 796.875 583C796.875 609.016 775.781 629.875 750 629.875ZM759.844 605.5C759.844 600.109 755.391 595.656 750 595.656C744.375 595.656 740.156 600.109 740.156 605.5C740.156 611.125 744.375 615.344 750 615.344C755.391 615.344 759.844 611.125 759.844 605.5ZM740.625 556.047L742.266 587.922C742.266 589.328 743.672 590.5 745.078 590.5H754.688C756.094 590.5 757.5 589.328 757.5 587.922L759.141 556.047C759.141 554.406 757.969 553 756.328 553H743.438C741.797 553 740.625 554.406 740.625 556.047Z" fill="white"/>
<path d="M690 293.5C647.188 293.5 612.5 328.5 612.5 371C612.5 413.812 647.188 448.5 690 448.5C732.5 448.5 767.5 413.812 767.5 371C767.5 328.5 732.5 293.5 690 293.5ZM690 308.5C724.375 308.5 752.5 336.625 752.5 371C752.5 405.688 724.375 433.5 690 433.5C655.312 433.5 627.5 405.688 627.5 371C627.5 336.625 655.312 308.5 690 308.5ZM733.75 349.438L726.562 342.25C725.312 340.688 722.812 340.688 721.25 342.25L677.188 386L658.438 367.25C656.875 365.688 654.688 365.688 653.125 367.25L645.938 374.125C644.688 375.688 644.688 378.188 645.938 379.438L674.375 408.188C675.938 409.75 678.125 409.75 679.688 408.188L733.75 354.75C735 353.188 735 350.688 733.75 349.438Z" fill="white"/>
<rect y="371" width="211.885" height="211.885" fill="white"/>
<rect x="21.1875" y="392.188" width="169.508" height="169.508" fill="#003366"/>
<rect x="152.027" y="476.942" width="211.885" height="211.885" fill="white"/>
<rect x="173.215" y="498.131" width="169.508" height="169.508" fill="#FCBA19"/>
<rect x="305.117" y="371" width="211.885" height="211.885" fill="white"/>
<rect x="326.301" y="392.188" width="169.508" height="169.508" fill="#606060"/>
<path d="M110.5 158.7L77.52 73.02C74.46 65.03 66.64 59.42 57.63 59.42C48.45 59.42 40.8 65.03 37.74 73.02L4.59 158.7C4.25 159.89 3.74 161.42 3.74 162.95C3.74 169.75 9.18 175.19 15.98 175.19C21.25 175.19 26.01 171.79 27.54 167.03L32.13 153.77H83.13L87.72 167.03C89.25 171.79 93.84 175.19 99.11 175.19C105.91 175.19 111.52 169.75 111.52 162.95C111.52 161.42 111.01 159.89 110.5 158.7ZM39.61 132.86L57.63 81.52L75.65 132.86H39.61ZM139.185 174H187.975C209.565 174 220.955 160.4 220.955 143.4C220.955 129.12 211.265 117.39 199.195 115.52C209.905 113.31 218.745 103.79 218.745 89.51C218.745 74.38 207.695 60.61 186.105 60.61H139.185C131.025 60.61 126.435 65.2 126.435 73.36V161.08C126.435 169.41 131.025 174 139.185 174ZM150.575 106.17V81.18H180.835C188.995 81.18 194.095 86.62 194.095 93.59C194.095 100.9 188.995 106.17 180.835 106.17H150.575ZM150.575 153.43V126.74H181.685C191.205 126.74 196.305 132.86 196.305 140C196.305 148.16 190.865 153.43 181.685 153.43H150.575ZM293.219 176.04C311.919 176.04 324.669 168.9 333.679 159.04C335.549 157.17 336.569 154.45 336.569 151.56C336.569 145.27 331.469 140.17 325.179 140.17C321.779 140.17 318.719 141.7 316.679 143.91C310.899 150.54 302.739 154.62 293.219 154.62C273.499 154.62 258.539 138.81 258.539 117.39C258.539 95.97 273.499 80.16 293.219 80.16C302.739 80.16 310.899 84.41 316.509 90.7C318.719 93.25 321.779 94.61 325.179 94.61C331.469 94.61 336.569 89.51 336.569 83.22C336.569 80.33 335.549 77.44 333.679 75.57C324.669 65.71 311.919 58.74 293.219 58.74C260.069 58.74 233.719 82.54 233.719 117.39C233.719 152.24 260.069 176.04 293.219 176.04ZM366.958 174H398.918C434.448 174 459.098 151.56 459.098 117.39C459.098 83.22 434.448 60.61 398.918 60.61H366.958C358.798 60.61 354.208 65.2 354.208 73.36V161.08C354.208 169.41 358.798 174 366.958 174ZM378.348 152.75V81.86H398.918C422.208 81.86 434.448 97.33 434.448 117.39C434.448 136.6 421.358 152.75 398.918 152.75H378.348ZM511.08 175.19C517.71 175.19 523.15 169.58 523.15 163.12V73.36C523.15 65.71 516.86 59.42 509.21 59.42C505.3 59.42 501.73 60.95 499.18 63.5L472.32 90.36C470.62 92.23 469.43 94.61 469.43 97.5C469.43 102.94 473.85 107.53 479.46 107.53C482.18 107.53 484.73 106.34 486.6 104.47L499.01 91.72V163.12C499.01 169.58 504.28 175.19 511.08 175.19ZM552.084 174H616.514C622.294 174 627.224 169.24 627.224 163.29C627.224 157.51 622.294 152.75 616.514 152.75H578.774C609.204 131.33 625.184 114.5 625.184 95.12C625.184 72.51 605.974 58.91 581.834 58.91C569.424 58.91 556.504 62.48 545.964 70.47C543.414 72.34 541.544 75.57 541.544 79.14C541.544 85.09 546.304 89.85 552.254 89.85C554.464 89.85 556.504 89.17 558.204 87.98C565.004 83.22 572.824 80.33 582.174 80.33C591.694 80.33 600.704 85.26 600.704 95.12C600.704 108.72 587.954 119.94 544.774 151.39C541.714 153.6 539.504 157.34 539.504 161.42C539.504 168.39 545.284 174 552.084 174ZM681.258 176.04C708.458 176.04 725.968 162.27 725.968 142.72C725.968 125.72 711.008 116.71 699.448 115.52C712.028 113.31 724.268 103.96 724.268 89.68C724.268 70.81 707.948 58.91 681.428 58.91C665.958 58.91 653.888 63.67 644.708 70.81C642.328 72.68 640.628 75.57 640.628 78.8C640.628 84.24 645.218 88.83 650.658 88.83C652.698 88.83 654.568 88.15 656.098 87.13C663.068 82.37 670.718 79.99 678.878 79.99C690.778 79.99 699.958 84.58 699.958 93.59C699.958 102.09 691.628 106.17 679.048 106.17H674.118C668.508 106.17 663.748 110.76 663.748 116.37C663.748 122.32 668.508 126.91 674.288 126.91H679.048C694.858 126.91 701.828 131.16 701.828 140.34C701.828 149.01 694.178 154.96 680.408 154.96C672.078 154.96 663.238 152.41 655.588 147.31C653.888 146.12 651.848 145.44 649.978 145.44C644.028 145.44 639.268 150.2 639.268 155.98C639.268 159.38 641.138 162.61 643.688 164.48C652.868 171.45 665.618 176.04 681.258 176.04ZM820.339 129.29H815.579V80.5C815.579 68.94 806.229 59.42 794.669 59.42C787.019 59.42 780.559 63.5 776.819 69.28L738.059 130.14C736.869 132.18 736.019 134.56 736.019 137.28C736.019 144.59 742.139 150.54 749.279 150.54H791.439V163.12C791.439 169.58 796.879 175.19 803.679 175.19C810.309 175.19 815.579 169.58 815.579 163.12V150.54H820.509C826.459 150.54 831.389 145.95 831.389 139.83C831.389 133.88 826.289 129.29 820.339 129.29ZM760.839 129.29L791.439 82.03V129.29H760.839Z" fill="white"/>
</svg>
