<svg width="98" height="97" viewBox="0 0 98 97" fill="none" xmlns="http://www.w3.org/2000/svg">
<path d="M49 0.0625C22.2422 0.0625 0.5625 21.7422 0.5625 48.5C0.5625 75.2578 22.2422 96.9375 49 96.9375C75.7578 96.9375 97.4375 75.2578 97.4375 48.5C97.4375 21.7422 75.7578 0.0625 49 0.0625ZM91.1875 48.5C91.1875 71.7422 72.2422 90.6875 49 90.6875C25.7578 90.6875 6.8125 71.9375 6.8125 48.5C6.8125 25.4531 25.5625 6.3125 49 6.3125C72.0469 6.3125 91.1875 25.2578 91.1875 48.5ZM62.0859 65.8828C63.0625 66.6641 64.625 66.2734 65.2109 65.2969L66.9688 63.1484C67.75 61.9766 67.3594 60.6094 66.3828 59.8281L52.7109 49.8672V21.1562C52.7109 19.9844 51.5391 18.8125 50.3672 18.8125H47.6328C46.2656 18.8125 45.2891 19.9844 45.2891 21.1562V52.4062C45.2891 53.1875 45.4844 53.7734 46.0703 54.3594L62.0859 65.8828Z" fill="white"/>
</svg>
