<svg width="100" height="89" viewBox="0 0 100 89" fill="none" xmlns="http://www.w3.org/2000/svg">
<path d="M90.625 0.75H9.375C4.10156 0.75 0 5.04688 0 10.125V78.875C0 84.1484 4.10156 88.25 9.375 88.25H90.625C95.7031 88.25 100 84.1484 100 78.875V10.125C100 5.04688 95.7031 0.75 90.625 0.75ZM6.25 10.125C6.25 8.5625 7.61719 7 9.375 7H18.75V19.5H6.25V10.125ZM93.75 78.875C93.75 80.6328 92.1875 82 90.625 82H9.375C7.61719 82 6.25 80.6328 6.25 78.875V25.75H93.75V78.875ZM93.75 19.5H25V7H90.625C92.1875 7 93.75 8.5625 93.75 10.125V19.5Z" fill="white"/>
</svg>
