<svg width="111" height="104" viewBox="0 0 111 104" fill="none" xmlns="http://www.w3.org/2000/svg">
<path d="M45.2578 15.8047C50.1406 7.79688 61.6641 7.99219 66.5469 15.8047L75.5312 30.2578L65.375 27.9141C64.0078 27.5234 62.8359 28.3047 62.4453 29.6719L62.25 31.0391C61.8594 32.4062 62.6406 33.5781 64.0078 33.9688L82.1719 38.0703C83.5391 38.4609 84.7109 37.6797 85.1016 36.3125L89.2031 18.1484C89.5938 16.7812 88.8125 15.6094 87.4453 15.2188L86.0781 14.8281C84.7109 14.6328 83.5391 15.4141 83.1484 16.5859L80.8047 26.9375L71.8203 12.4844C64.3984 0.570312 47.4062 0.570312 39.9844 12.4844L31.5859 25.9609C30.8047 27.1328 31.1953 28.5 32.3672 29.2812L33.5391 30.0625C34.7109 30.6484 36.0781 30.4531 36.8594 29.2812L45.2578 15.8047ZM103.07 62.4844L92.7188 45.8828C91.9375 44.7109 90.5703 44.5156 89.3984 45.1016L88.2266 45.8828C87.0547 46.6641 86.6641 48.0312 87.4453 49.2031L97.7969 65.8047C102.875 74.0078 97.0156 84.75 87.0547 84.75H66.5469L73.9688 77.5234C74.9453 76.5469 74.9453 74.9844 73.9688 74.2031L72.7969 73.0312C72.0156 72.0547 70.4531 72.0547 69.4766 73.0312L56.1953 86.3125C55.4141 87.2891 55.4141 88.6562 56.1953 89.6328L69.4766 102.914C70.4531 103.891 72.0156 103.891 72.7969 102.914L73.9688 101.742C74.9453 100.961 74.9453 99.3984 73.9688 98.4219L66.5469 91H87.0547C101.898 91 110.883 74.9844 103.07 62.4844ZM14.0078 65.8047L24.9453 48.2266L27.2891 58.3828C27.6797 59.75 28.8516 60.5312 30.2188 60.1406L31.5859 59.9453C32.9531 59.5547 33.7344 58.3828 33.3438 57.0156L29.2422 38.6562C28.8516 37.4844 27.6797 36.7031 26.3125 37.0938L8.14844 41.1953C6.78125 41.5859 6 42.7578 6.39062 44.125L6.58594 45.4922C6.97656 46.8594 8.14844 47.6406 9.51562 47.25L19.6719 44.9062L8.73438 62.4844C0.921875 74.7891 9.90625 91 24.75 91H44.2812C45.4531 91 46.625 90.0234 46.625 88.6562V87.0938C46.625 85.9219 45.4531 84.75 44.2812 84.75H24.75C14.7891 84.75 8.92969 74.0078 14.0078 65.8047Z" fill="white"/>
</svg>
