<svg width="160" height="140" viewBox="0 0 160 140" fill="none" xmlns="http://www.w3.org/2000/svg">
<path d="M92.5 0C88.125 0 85 3.4375 85 7.5V57.5C85 61.875 88.125 65 92.5 65H152.5C156.562 65 160 61.875 160 57.5V7.5C160 3.4375 156.562 0 152.5 0H92.5ZM67.5 0H7.5C3.125 0 0 3.4375 0 7.5V57.5C0 61.875 3.125 65 7.5 65H67.5C71.5625 65 75 61.875 75 57.5V7.5C75 3.4375 71.5625 0 67.5 0ZM0 82.5V132.5C0 136.875 3.125 140 7.5 140H67.5C71.5625 140 75 136.875 75 132.5V82.5C75 78.4375 71.5625 75 67.5 75H7.5C3.125 75 0 78.4375 0 82.5ZM92.5 140H152.5C156.562 140 160 136.875 160 132.5V82.5C160 78.4375 156.562 75 152.5 75H92.5C88.125 75 85 78.4375 85 82.5V132.5C85 136.875 88.125 140 92.5 140Z" fill="#FCBA19"/>
</svg>
