<svg width="160" height="160" viewBox="0 0 160 160" fill="none" xmlns="http://www.w3.org/2000/svg">
<path d="M130 40V10C130 4.6875 125.312 0 120 0H10C4.375 0 0 4.6875 0 10V40C0 45.625 4.375 50 10 50H120C125.312 50 130 45.625 130 40ZM140 20V60C140 65.625 135.312 70 130 70H80C68.75 70 60 79.0625 60 90V100C54.375 100 50 104.688 50 110V150C50 155.625 54.375 160 60 160H80C85.3125 160 90 155.625 90 150V110C90 104.688 85.3125 100 80 100V90H130C146.562 90 160 76.875 160 60V40C160 29.0625 150.938 20 140 20Z" fill="#FCBA19"/>
</svg>
