<svg width="164" height="163" viewBox="0 0 164 163" fill="none" xmlns="http://www.w3.org/2000/svg">
<path d="M39.25 71.75C40.1875 72.6875 41.75 73.3125 42.6875 73.3125C43.9375 73.3125 45.5 72.6875 46.4375 71.75L76.75 40.5C85.5 31.4375 84.875 16.4375 75.1875 8C66.4375 0.8125 53.9375 2.0625 45.8125 10.1875L43 13.3125L39.875 10.1875C32.0625 2.0625 19.25 0.8125 10.5 8C0.8125 16.4375 0.1875 31.4375 8.9375 40.5L39.25 71.75ZM84.25 103H69.25L67.0625 98.625C65.8125 95.5 62.375 93 58.9375 93H36.75C33.3125 93 29.875 95.5 28.625 98.625L26.4375 103H11.4375C6.75 103 3 107.062 3 111.75V154.562C3 159.25 6.75 163 11.4375 163H84.25C88.9375 163 93 159.25 93 154.562V111.75C93 107.062 88.9375 103 84.25 103ZM48 149.25C38.9375 149.25 31.75 142.062 31.75 133C31.75 124.25 38.9375 116.75 48 116.75C56.75 116.75 64.25 124.25 64.25 133C64.25 142.062 56.75 149.25 48 149.25ZM158.938 113.312H139.875L147.062 97.375C147.688 95.1875 145.812 93.3125 143.312 93.3125H119.562C117.688 93.3125 115.812 94.5625 115.5 96.125L110.5 129.562C110.188 131.438 111.75 133.312 114.25 133.312H133.625L126.125 159.25C125.5 161.125 127.375 163 129.875 163C130.188 163 130.188 163 130.188 163C131.125 163 132.688 162.375 133.312 161.438L162.375 118C163.938 115.812 162.062 113.312 158.938 113.312ZM152.375 3.3125L105.812 10.5C101.125 11.125 98 15.1875 98 20.1875V53.625C96.4375 53.3125 94.25 53 93 53C81.75 53 73 59.875 73 68C73 76.4375 81.75 83 93 83C103.938 83 112.688 76.4375 113 68.3125V34.25L148 28.9375V43.625C146.438 43.3125 144.25 43 143 43C131.75 43 123 49.875 123 58C123 66.4375 131.75 73 143 73C153.938 73 162.688 66.4375 163 58.3125V13C163 7.0625 158 2.375 152.375 3.3125Z" fill="#FCBA19"/>
</svg>
