<svg width="1839" height="669" viewBox="0 0 1839 669" fill="none" xmlns="http://www.w3.org/2000/svg">
<path d="M0 367H17.93L23.65 348.3H52.25L57.97 367H75.9L48.07 288.13H27.72L0 367ZM33.44 316.07C34.21 313.87 36.96 304.52 37.95 300.34C39.05 304.63 41.47 312.44 42.57 316.07L48.29 334.33H27.83L33.44 316.07ZM85.8473 367H115.217C132.927 367 144.037 358.42 144.037 344.23C144.037 331.8 137.767 327.62 129.957 325.86V325.31C137.767 323.99 142.057 317.28 142.057 308.37C142.057 293.52 131.057 288.46 110.267 288.46H85.8473V367ZM102.457 332.79H112.797C123.357 332.79 126.767 336.75 126.767 342.58C126.767 349.07 123.357 353.25 113.347 353.25H102.457V332.79ZM111.257 302.1C120.827 302.1 125.007 304.52 125.007 310.57C125.007 316.62 121.817 319.59 112.137 319.59H102.457V302.1H111.257ZM193.084 301.22C198.804 301.22 204.854 303.64 210.684 306.39L216.074 292.86C208.924 289.45 200.894 287.36 193.084 287.36C169.434 287.36 156.234 304.08 156.234 327.84C156.234 352.04 167.124 368.1 191.544 368.1C199.904 368.1 206.174 366.78 213.104 364.03V350.06C205.624 352.7 199.354 354.24 193.084 354.24C179.334 354.24 173.394 344.67 173.394 327.95C173.394 311.34 180.324 301.22 193.084 301.22ZM294.913 326.96C294.913 301.88 278.963 288.46 254.433 288.46H229.793V367H252.013C278.963 367 294.913 353.47 294.913 326.96ZM277.643 327.4C277.643 344.67 269.613 353.25 253.553 353.25H246.403V302.1H255.313C269.833 302.1 277.643 310.13 277.643 327.4ZM311.218 367H356.428V353.25H327.828V333.01H354.448V319.37H327.828V302.1H356.428V288.46H311.218V367ZM372.771 367H389.161V335.98H415.781V322.34H389.161V302.1H417.761V288.46H372.771V367ZM462.952 336.75H477.802V353.14C474.832 353.69 471.972 354.24 467.242 354.24C452.722 354.24 446.782 343.35 446.782 327.95C446.782 311.78 456.022 301.22 470.542 301.22C477.252 301.22 483.632 302.98 488.472 305.51L493.972 292.2C487.372 289.23 479.012 287.36 470.652 287.36C444.142 287.36 429.622 303.09 429.622 327.62C429.622 354.02 442.712 368.1 466.142 368.1C477.252 368.1 485.832 366.34 494.082 363.59V322.89H462.952V336.75ZM512.742 288.46V367H529.352V333.12H560.482V367H577.092V288.46H560.482V319.26H529.352V288.46H512.742ZM590.473 288.46V297.92L600.043 302.32V353.14L590.473 357.54V367H626.223V357.54L616.653 353.14V302.32L626.223 297.92V288.46H590.473ZM631.357 390.1C646.097 390.1 656.217 382.29 656.217 361.94V288.46H639.607V362.05C639.607 373.71 635.207 376.13 629.377 376.13C626.407 376.13 623.877 375.58 621.567 375.03V388.89C623.877 389.66 627.067 390.1 631.357 390.1ZM676.023 367H692.633V338.95L699.673 333.89L720.243 367H739.163L711.553 323.22L738.943 288.46H720.463L699.233 315.19L692.633 324.43V288.46H676.023V367ZM797.58 367V353.25H765.68V288.46H749.07V367H797.58ZM859.777 367L880.017 305.51H880.457C880.237 309.69 879.687 322.67 879.687 329.82V367H895.197V288.46H872.537L852.847 348.52H852.517L833.927 288.46H811.267V367H826.117V330.48C826.117 322.78 825.347 309.47 825.127 305.4H825.567L844.487 367H859.777ZM915.037 367H929.887V330.04L928.897 307.6H929.337L963.547 367H984.667V288.46H969.707V325.64C969.817 333.01 970.147 340.16 970.477 347.31H970.147L936.047 288.46H915.037V367ZM1075.8 327.62C1075.8 303.2 1064.03 287.25 1038.51 287.25C1012.77 287.25 1001 303.2 1001 327.51C1001 351.93 1012.77 368.1 1038.4 368.1C1064.03 368.1 1075.8 351.93 1075.8 327.62ZM1018.49 327.62C1018.49 311.23 1024.43 301.11 1038.51 301.11C1052.59 301.11 1058.31 311.23 1058.31 327.62C1058.31 344.01 1052.59 354.13 1038.4 354.13C1024.43 354.13 1018.49 344.01 1018.49 327.62ZM1108.68 367V339.06H1115.83C1138.71 339.06 1146.3 326.85 1146.3 312.99C1146.3 297.7 1137.39 288.46 1117.15 288.46H1092.07V367H1108.68ZM1108.68 302.1H1116.27C1125.07 302.1 1129.47 305.95 1129.47 313.54C1129.47 321.9 1123.53 325.42 1114.18 325.42H1108.68V302.1ZM1232.42 327.62C1232.42 303.2 1220.65 287.25 1195.13 287.25C1169.39 287.25 1157.62 303.2 1157.62 327.51C1157.62 351.93 1169.39 368.1 1195.02 368.1H1196.23L1210.64 385.7H1231.98L1213.06 364.58C1226.26 358.75 1232.42 345.22 1232.42 327.62ZM1175.11 327.62C1175.11 311.23 1181.05 301.11 1195.13 301.11C1209.21 301.11 1214.93 311.23 1214.93 327.62C1214.93 344.01 1209.21 354.13 1195.02 354.13C1181.05 354.13 1175.11 344.01 1175.11 327.62ZM1265.3 367V336.86H1274.21L1292.91 367H1311.39L1288.29 332.79C1295.99 329.27 1302.92 322.78 1302.92 312C1302.92 296.16 1293.02 288.46 1271.57 288.46H1248.69V367H1265.3ZM1265.3 302.1H1270.36C1281.03 302.1 1286.09 304.96 1286.09 312.44C1286.09 319.59 1281.69 323.33 1270.69 323.33H1265.3V302.1ZM1367.62 345.22C1367.62 332.9 1360.47 327.4 1348.48 321.68C1343.53 319.37 1339.9 317.39 1337.37 315.74C1334.84 314.09 1333.63 311.89 1333.63 309.14C1333.63 304.41 1337.15 301.22 1343.42 301.22C1349.47 301.22 1354.75 302.87 1361.9 305.84L1367.29 292.86C1359.04 289.34 1352.22 287.36 1343.97 287.36C1327.58 287.36 1317.35 295.61 1317.35 309.69C1317.35 323.99 1328.79 329.71 1336.05 333.12C1344.74 337.3 1351.34 340.05 1351.34 345.99C1351.34 350.83 1348.26 354.35 1340.01 354.35C1332.09 354.35 1323.95 351.05 1316.47 347.86V363.37C1322.96 366.56 1330.44 368.1 1338.69 368.1C1357.17 368.1 1367.62 359.19 1367.62 345.22ZM1374.19 302.32H1395.53V367H1412.14V302.32H1433.48V288.46H1374.19V302.32ZM1445.04 288.46V339.06C1445.04 356.55 1456.15 368.1 1476.94 368.1C1498.83 368.1 1509.5 355.56 1509.5 339.28V288.46H1492.89V336.42C1492.89 348.63 1488.27 354.13 1477.38 354.13C1466.93 354.13 1461.65 349.62 1461.65 336.53V288.46H1445.04ZM1518.84 288.46L1545.46 367H1563.61L1590.34 288.46H1573.51L1558.66 335.21C1557.89 337.41 1555.25 347.97 1554.59 352.48C1553.93 347.97 1550.96 337.41 1550.41 335.21L1535.67 288.46H1518.84ZM1610.4 367H1629.32L1639.88 325.86C1640.76 322.45 1643.18 311.34 1643.51 307.38C1643.73 311.23 1646.37 322.78 1647.14 325.75L1657.81 367H1676.73L1696.75 288.46H1680.36L1670.35 331.36C1669.25 336.53 1667.16 346.65 1666.5 351.93C1665.84 346.87 1663.86 336.2 1662.87 332.46L1651.43 288.46H1635.7L1624.26 332.46C1623.16 336.2 1621.29 346.65 1620.63 351.93C1619.97 346.87 1618.1 336.2 1616.78 331.36L1606.77 288.46H1590.38L1610.4 367ZM1696.73 367H1714.55L1732.81 337.3L1751.07 367H1770.1L1743.59 327.4L1768.23 288.46H1750.3L1733.69 316.73L1716.75 288.46H1698.38L1722.8 326.52L1696.73 367ZM1770.1 288.46L1796.17 336.97V367H1812.67V336.42L1838.74 288.46H1820.81L1804.42 320.8L1788.14 288.46H1770.1ZM23.21 518.1C33.22 518.1 37.95 515.35 43.12 508.86H43.56L46.75 517H58.19V476.96C58.19 462.55 49.39 455.73 33.22 455.73C24.75 455.73 16.5 457.93 10.23 461.12L15.62 472.23C21.23 469.7 26.73 467.83 32.56 467.83C38.39 467.83 41.91 470.69 41.91 476.96V479.6L31.46 479.93C13.53 480.7 4.62 486.31 4.62 499.07C4.62 512.16 12.54 518.1 23.21 518.1ZM21.45 499.18C21.45 493.46 24.97 489.72 35.53 489.39L41.91 489.17V494.12C41.91 501.71 36.41 506.11 29.37 506.11C24.64 506.11 21.45 504.13 21.45 499.18ZM87.5067 517L90.2567 510.4H91.3567C94.5467 514.36 99.1667 518.1 107.967 518.1C121.717 518.1 131.067 507.43 131.067 486.86C131.067 466.51 121.937 455.84 108.407 455.84C99.7167 455.84 94.5467 459.8 91.3567 464.75H90.6967C91.0267 462.22 91.3567 457.38 91.3567 452.87V433.4H74.9667V517H87.5067ZM91.3567 484.99C91.4667 474.32 94.6567 468.93 103.127 468.93C110.057 468.93 114.347 474.87 114.347 486.64C114.347 498.41 110.057 504.79 103.347 504.79C94.2167 504.79 91.3567 498.3 91.3567 486.75V484.99ZM168.996 518.1C177.356 518.1 182.306 516.78 187.256 513.59V499.62C182.306 502.81 177.356 504.79 170.426 504.79C162.396 504.79 157.666 499.18 157.666 487.19C157.666 475.09 161.956 469.04 170.426 469.04C174.826 469.04 179.116 470.47 184.286 472.56L189.126 459.91C184.616 457.71 178.676 455.84 170.426 455.84C153.046 455.84 140.946 465.3 140.946 487.3C140.946 508.75 151.066 518.1 168.996 518.1ZM220.11 518.1C228.8 518.1 233.97 514.14 237.16 509.19H237.82L241.01 517H253.55V433.4H237.16V452.65C237.16 457.38 237.93 462.33 238.37 464.64H237.82C234.63 459.69 229.24 455.84 220.55 455.84C206.8 455.84 197.45 466.51 197.45 487.08C197.45 497.31 199.54 505.01 203.83 510.18C208.01 515.46 213.4 518.1 220.11 518.1ZM225.83 505.01C218.35 505.01 214.06 499.07 214.06 487.3C214.06 475.53 218.46 469.15 225.61 469.15C235.29 469.15 238.26 475.64 238.26 487.19V488.95C237.93 499.62 234.74 505.01 225.83 505.01ZM295.439 455.84C278.499 455.84 267.059 466.51 267.059 487.41C267.059 508.2 279.929 518.1 297.859 518.1C307.099 518.1 312.929 516.78 318.979 513.81V501.16C312.269 504.35 306.219 505.89 298.629 505.89C289.389 505.89 283.999 500.28 283.669 491.04H322.389V483.12C322.389 465.63 312.049 455.84 295.439 455.84ZM295.549 467.5C303.139 467.5 306.879 473 306.989 480.15H283.999C284.769 471.46 289.059 467.5 295.549 467.5ZM329.3 469.26H338.32V517H354.71V469.26H368.9V456.94H354.71V453.2C354.71 448.91 356.8 445.83 361.31 445.83C364.94 445.83 367.91 446.6 370.44 447.37L374.62 435.38C371.43 434.06 365.82 432.85 359.55 432.85C346.57 432.85 338.32 437.25 338.32 452.54V456.94L329.3 461.34V469.26ZM397.689 455.84C383.279 455.84 374.589 467.39 374.589 487.08C374.589 506.55 383.059 518.1 397.249 518.1C404.399 518.1 410.229 515.46 414.299 509.19H414.739C414.409 511.28 414.299 514.25 414.299 516.56V517.77C414.299 526.9 410.119 531.41 401.649 531.41C393.399 531.41 385.589 529.87 378.219 526.79V539.88C385.149 542.52 392.189 543.4 400.659 543.4C420.459 543.4 430.689 534.27 430.689 517.11V456.94H416.829L415.509 464.64H415.069C410.889 458.81 405.059 455.84 397.689 455.84ZM402.859 469.15C411.659 469.15 415.399 474.32 415.399 487.19V489.17C415.399 501.05 411.439 505.23 403.079 505.23C395.269 505.23 391.309 499.29 391.309 487.3C391.309 475.2 395.159 469.15 402.859 469.15ZM447.828 433.4V517H464.218V488.73C464.218 475.97 467.408 468.93 477.198 468.93C483.688 468.93 486.878 473.22 486.878 481.91V517H503.268V477.84C503.268 462.44 494.578 455.84 481.708 455.84C474.338 455.84 468.178 458.48 464.328 464.64H463.448C463.778 462.44 464.218 456.5 464.218 450.45V433.4H447.828ZM528.373 433.4C523.423 433.4 519.463 435.27 519.463 441.43C519.463 447.48 523.423 449.46 528.373 449.46C533.213 449.46 537.283 447.48 537.283 441.43C537.283 435.27 533.213 433.4 528.373 433.4ZM520.123 456.94V517H536.513V456.94H520.123ZM552.979 441.43C552.979 447.48 556.939 449.46 561.889 449.46C566.729 449.46 570.799 447.48 570.799 441.43C570.799 435.27 566.729 433.4 561.889 433.4C556.939 433.4 552.979 435.27 552.979 441.43ZM548.799 543.4C564.199 543.4 570.029 534.49 570.029 523.49V456.94H553.639V521.07C553.639 528.22 550.119 530.2 545.719 530.2C542.749 530.2 540.659 529.98 538.019 529.21V542.08C540.659 542.85 544.949 543.4 548.799 543.4ZM603.544 517V498.3L610.584 492.69L627.854 517H646.774L621.474 483.01L645.344 456.94H626.864L610.034 475.2C607.614 477.84 605.524 480.59 603.544 483.45C603.324 483.67 603.104 484 602.884 484.33H602.664C603.104 479.82 603.544 475.31 603.544 470.8V433.4H587.154V517H603.544ZM671.757 433.4H655.367V517H671.757V433.4ZM688.883 517H705.273V488.73C705.273 475.97 708.133 468.93 717.263 468.93C723.313 468.93 726.283 473.22 726.283 481.91V517H742.673V486.86C742.673 475.31 745.973 468.93 754.663 468.93C760.713 468.93 763.683 473.22 763.683 481.91V517H780.073V477.84C780.073 462.44 773.033 455.84 759.393 455.84C752.463 455.84 745.313 458.48 741.683 464.64H740.253C736.843 458.59 730.793 455.84 721.993 455.84C715.063 455.84 708.133 458.48 704.503 464.64H703.623L701.423 456.94H688.883V517ZM813.339 517V488.73C813.339 475.97 816.309 468.93 826.319 468.93C833.029 468.93 835.999 473.22 835.999 481.91V517H852.389V477.84C852.389 462.44 843.919 455.84 831.049 455.84C823.569 455.84 816.419 458.48 812.569 464.64H811.689L809.489 456.94H796.949V517H813.339ZM923.804 486.86C923.804 467.06 911.704 455.84 894.874 455.84C876.724 455.84 865.614 466.95 865.614 486.86C865.614 506.88 877.824 518.1 894.544 518.1C903.564 518.1 910.714 515.35 915.994 509.96C921.164 504.57 923.804 496.87 923.804 486.86ZM882.334 486.86C882.334 474.98 885.964 469.04 894.654 469.04C903.454 469.04 907.084 474.98 907.084 486.86C907.084 498.74 903.454 504.9 894.764 504.9C885.964 504.9 882.334 498.74 882.334 486.86ZM937.35 543.4H953.74V519.2C953.74 516.45 953.41 513.48 952.86 510.4H953.74C956.93 514.36 961.66 518.1 970.35 518.1C983.88 518.1 993.45 507.43 993.45 486.86C993.45 466.51 984.32 455.84 970.79 455.84C962.1 455.84 956.93 459.91 953.74 464.75H952.97L950.66 456.94H937.35V543.4ZM953.74 484.99C953.85 474.32 957.04 468.93 965.51 468.93C972.99 468.93 976.73 474.87 976.73 486.64C976.73 498.41 973.21 504.79 965.73 504.79C956.6 504.79 953.74 498.3 953.74 486.75V484.99ZM1059.43 543.4V456.94H1045.57L1044.14 464.64H1043.7C1040.29 459.69 1035.12 455.84 1026.32 455.84C1019.5 455.84 1014 458.48 1009.71 463.76C1005.42 469.04 1003.33 476.85 1003.33 487.08C1003.33 507.43 1012.46 518.1 1025.99 518.1C1034.79 518.1 1039.96 514.14 1043.04 509.19H1043.7C1043.26 512.16 1043.04 515.24 1043.04 518.21V543.4H1059.43ZM1031.82 505.23C1024.01 505.23 1020.05 499.29 1020.05 487.3C1020.05 475.53 1023.79 469.15 1031.6 469.15C1041.17 469.15 1044.14 475.64 1044.14 487.19V489.17C1043.81 499.84 1040.95 505.23 1031.82 505.23ZM1110.12 455.84C1102.09 455.84 1095.71 460.9 1092.19 467.06H1091.42L1089 456.94H1076.57V517H1092.96V486.42C1092.96 475.09 1101.1 471.13 1109.57 471.13C1111 471.13 1113.2 471.35 1114.41 471.68L1115.62 456.28C1114.3 455.95 1111.77 455.84 1110.12 455.84ZM1168.43 499.18C1168.43 488.51 1162.05 484.66 1151.71 480.48C1141.15 476.08 1139.17 474.87 1139.17 471.9C1139.17 469.26 1141.59 467.94 1146.43 467.94C1151.82 467.94 1156.99 469.81 1162.82 472.34L1167.77 460.57C1160.62 457.16 1154.13 455.84 1146.65 455.84C1132.24 455.84 1122.89 461.45 1122.89 472.56C1122.89 482.79 1127.95 486.64 1139.28 491.48C1150.94 496.32 1152.26 497.86 1152.26 500.94C1152.26 504.02 1149.62 506.11 1143.35 506.11C1137.63 506.11 1129.49 504.02 1123 501.05V514.58C1129.05 517.11 1134.44 518.1 1142.8 518.1C1159.85 518.1 1168.43 511.39 1168.43 499.18ZM1182.96 469.26V498.19C1182.96 513.7 1191.1 518.1 1201.77 518.1C1207.93 518.1 1213.32 517 1216.84 515.35V503.14C1213.43 504.35 1210.13 505.01 1206.5 505.01C1202.21 505.01 1199.35 502.7 1199.35 498.19V469.26H1216.18V456.94H1199.35V444.18H1188.9L1184.17 456.83L1175.15 462.33V469.26H1182.96ZM1228.56 496.1C1228.56 511.5 1237.03 518.1 1249.9 518.1C1257.38 518.1 1264.53 515.46 1268.38 509.3H1269.26L1271.46 517H1284V456.94H1267.61V485.21C1267.61 497.97 1264.64 505.01 1254.63 505.01C1247.92 505.01 1244.95 500.72 1244.95 492.03V456.94H1228.56V496.1ZM1292.61 456.94L1315.49 517H1332.32L1355.2 456.94H1338.04L1326.49 491.15C1325.06 495.44 1324.29 499.51 1324.07 503.47H1323.63C1323.3 499.95 1322.64 495.22 1321.32 491.15L1309.77 456.94H1292.61ZM1356.33 456.94L1373.38 517H1390.98L1395.82 496.21C1396.92 491.15 1401.1 473.66 1401.98 469.48H1402.42C1403.3 473.66 1407.48 491.26 1408.58 495.99L1413.2 517H1431.02L1448.29 456.94H1432.23L1425.08 483.56C1423.65 489.06 1422 499.73 1421.56 503.25H1421.12C1420.9 499.29 1419.14 488.73 1418.48 485.76L1411.44 456.94H1393.4L1386.03 485.76C1385.48 487.96 1383.61 499.18 1383.28 503.25H1382.84C1382.18 499.29 1380.97 489.06 1379.54 483.56L1372.61 456.94H1356.33ZM1449.99 517H1468.58L1481.23 496.43L1493.88 517H1512.47L1492.01 486.31L1511.59 456.94H1493L1481.23 476.08L1469.57 456.94H1450.98L1470.34 486.31L1449.99 517ZM1536.91 516.56L1535.92 519.53C1533.83 525.36 1530.2 530.2 1523.27 530.2C1520.74 530.2 1518.21 529.87 1516.78 529.54V542.52C1518.87 542.96 1521.29 543.4 1525.14 543.4C1536.58 543.4 1545.49 537.13 1550.22 524.7L1575.63 456.94H1558.03L1546.92 490.71C1545.71 494.12 1545.05 497.31 1544.61 501.16H1544.28C1543.95 497.31 1543.51 494.12 1542.3 490.71L1530.97 456.94H1513.04L1536.91 516.56ZM1626.04 504.46H1597.99L1625.05 467.61V456.94H1580.28V469.48H1606.46L1578.63 507.32V517H1626.04V504.46ZM45.43 588.46H31.79L6.49 608.59L14.52 618.6L23.54 611.34C25.63 609.58 28.49 606.83 29.26 605.95C29.15 608.26 29.04 611.01 28.93 614.09C28.82 617.28 28.82 619.7 28.82 621.57V667H45.43V588.46ZM122.239 653.03H88.0292V652.26L98.1492 642.8C112.009 630.04 120.039 621.68 120.039 608.59C120.039 596.6 110.469 587.36 95.1792 587.36C81.0992 587.36 73.8392 592.75 67.1292 598.58L76.1492 609.25C82.4192 604.08 87.9192 601.22 93.9692 601.22C99.7992 601.22 103.539 604.3 103.539 610.57C103.539 618.38 99.0292 623.11 87.0392 635.54L67.3492 655.45V667H122.239V653.03ZM182.108 606.06C182.108 594.18 171.988 587.36 155.818 587.36C144.378 587.36 136.348 590.66 130.188 595.06L137.888 606.5C141.518 604.19 147.128 600.78 154.608 600.78C162.638 600.78 165.828 604.08 165.828 609.69C165.828 615.74 162.748 620.25 148.228 620.25H142.178V633.01H148.118C162.858 633.01 167.038 636.64 167.038 643.13C167.038 650.61 162.858 654.9 150.978 654.9C144.488 654.9 136.788 653.14 130.078 649.73V663.81C136.678 666.67 144.268 668.1 152.738 668.1C174.738 668.1 184.418 657.76 184.418 644.12C184.418 633.89 177.598 627.62 165.168 625.97V625.64C169.898 624.43 173.968 622.23 177.268 619.04C180.458 615.85 182.108 611.45 182.108 606.06ZM190.718 639.17V650.72H224.268V667H240.438V650.72H249.898V637.85H240.438V588.46H225.148L190.718 639.17ZM205.348 637.85L219.758 616.07C221.628 613.1 223.168 610.46 224.488 607.49H224.928C224.708 609.25 224.268 619.7 224.268 624.54V637.85H205.348ZM284.797 616.84C279.627 616.84 277.317 617.5 274.787 617.94L276.217 602.54H304.267V588.46H261.697L258.727 628.5L265.327 632.02C268.297 631.25 273.137 630.26 277.207 630.26C287.657 630.26 292.937 634.22 292.937 642.14C292.937 650.61 287.547 654.57 277.757 654.57C271.047 654.57 262.577 652.26 257.187 649.51V663.81C262.577 666.56 270.057 668.1 278.307 668.1C298.987 668.1 309.657 657.76 309.657 640.71C309.657 625.2 299.097 616.84 284.797 616.84ZM318.596 633.67C318.596 657.32 331.356 668.1 347.306 668.1C355.556 668.1 362.046 665.68 366.886 660.84C371.616 656 374.036 649.29 374.036 640.82C374.036 624.98 365.346 615.96 351.596 615.96C342.796 615.96 337.516 619.92 334.546 625.09H333.886C334.546 610.46 339.496 600.56 359.076 600.56C362.266 600.56 365.786 601.11 368.536 601.66V588.35C365.786 587.8 361.056 587.58 357.976 587.58C325.306 587.58 318.596 611.23 318.596 633.67ZM346.976 654.79C339.166 654.79 335.096 646.87 335.096 639.61C335.096 634.44 339.936 628.72 347.306 628.72C354.456 628.72 357.976 633.45 357.976 641.04C357.976 650.39 353.466 654.79 346.976 654.79ZM407.285 667L436.985 598.91V588.46H380.665V602.43H419.385L389.905 667H407.285ZM472.105 587.47C458.905 587.47 446.915 593.85 446.915 606.28C446.915 615.63 452.525 621.57 459.565 625.97C455.385 628.06 451.865 630.7 448.895 634C445.925 637.41 444.495 641.7 444.495 647.09C444.495 660.18 454.505 668.1 472.105 668.1C488.385 668.1 499.605 659.63 499.605 646.65C499.605 636.2 491.465 629.93 483.105 625.53C491.135 621.57 497.185 615.96 497.185 606.39C497.185 593.74 485.635 587.47 472.105 587.47ZM471.995 599.57C477.385 599.57 481.565 602.65 481.565 607.6C481.565 613.32 477.055 616.29 472.105 618.6C466.935 616.07 462.535 612.99 462.535 607.6C462.535 602.65 466.605 599.57 471.995 599.57ZM459.895 646.1C459.895 640.05 464.405 635.98 471.335 632.79L472.765 633.56C478.045 636.64 484.205 640.27 484.205 646.21C484.205 652.04 480.135 655.89 471.885 655.89C463.965 655.89 459.895 651.82 459.895 646.1ZM562.554 622.01C562.554 598.36 549.794 587.58 533.844 587.58C525.594 587.58 519.104 590 514.374 594.84C509.534 599.68 507.114 606.39 507.114 614.86C507.114 630.7 515.914 639.72 529.224 639.72C534.174 639.72 538.024 638.84 540.554 637.08C543.084 635.32 545.064 633.12 546.604 630.59H547.264C546.604 645.22 541.654 655.12 522.074 655.12C518.884 655.12 515.584 654.57 512.614 654.02V667.33C515.364 667.88 520.094 668.1 523.174 668.1C555.844 668.1 562.554 644.45 562.554 622.01ZM534.174 600.89C542.094 600.89 546.054 608.81 546.054 616.07C546.054 621.24 541.104 626.96 533.844 626.96C526.694 626.96 523.174 622.23 523.174 614.64C523.174 605.29 527.684 600.89 534.174 600.89ZM625.393 627.73C625.393 602.21 616.703 587.25 597.893 587.25C577.763 587.25 570.503 602.43 570.503 627.73C570.503 640.38 572.703 650.28 577.103 657.43C581.503 664.58 588.433 668.1 597.893 668.1C617.913 668.1 625.393 652.92 625.393 627.73ZM587.003 627.73C587.003 609.8 589.533 600.67 597.893 600.67C606.143 600.67 608.893 609.8 608.893 627.73C608.893 645.77 606.143 654.68 597.893 654.68C589.533 654.68 587.003 645.66 587.003 627.73Z" fill="white"/>
<path d="M78 2.49999C101.667 2.49999 119.583 5.83332 131.75 12.5C144.083 19.1667 150.25 30.9167 150.25 47.75C150.25 57.9167 147.917 66.5 143.25 73.5C138.583 80.5 131.75 84.75 122.75 86.25V87.5C127.25 88.5 131.417 89.9167 135.25 91.75C139.083 93.5833 142.417 96.0833 145.25 99.25C148.25 102.417 150.583 106.5 152.25 111.5C153.917 116.333 154.75 122.25 154.75 129.25C154.75 145.417 148.833 158.083 137 167.25C125.333 176.417 109.417 181 89.25 181H22.5V2.49999H78ZM60.25 103.25V149.75H85C96.5 149.75 104.417 147.583 108.75 143.25C113.25 138.917 115.5 133 115.5 125.5C115.5 118.833 113.167 113.5 108.5 109.5C104 105.333 95.75 103.25 83.75 103.25H60.25ZM82.25 73.25C93.25 73.25 100.833 71.5833 105 68.25C109.333 64.9167 111.5 59.75 111.5 52.75C111.5 45.75 109 40.8333 104 38C99.1667 35 91.25 33.5 80.25 33.5H60.25V73.25H82.25ZM266.219 31.5C251.719 31.5 240.635 36.9167 232.969 47.75C225.302 58.5833 221.469 73.4167 221.469 92.25C221.469 111.25 224.969 126 231.969 136.5C239.135 146.833 250.552 152 266.219 152C273.385 152 280.635 151.167 287.969 149.5C295.302 147.833 303.219 145.5 311.719 142.5V174.25C303.885 177.417 296.135 179.75 288.469 181.25C280.802 182.75 272.219 183.5 262.719 183.5C244.219 183.5 229.052 179.75 217.219 172.25C205.385 164.583 196.635 153.917 190.969 140.25C185.302 126.417 182.469 110.333 182.469 92C182.469 74 185.719 58.0833 192.219 44.25C198.719 30.4167 208.135 19.5833 220.469 11.75C232.969 3.91666 248.219 -9.17912e-06 266.219 -9.17912e-06C275.052 -9.17912e-06 283.885 1.16666 292.719 3.49999C301.719 5.66666 310.302 8.66666 318.469 12.5L306.219 43.25C299.552 40.0833 292.802 37.3333 285.969 35C279.302 32.6667 272.719 31.5 266.219 31.5ZM519.84 131.5C519.84 147.333 514.09 160 502.59 169.5C491.257 178.833 475.09 183.5 454.09 183.5C435.257 183.5 418.423 179.917 403.59 172.75V137.5C412.09 141.167 420.84 144.583 429.84 147.75C439.007 150.75 448.09 152.25 457.09 152.25C466.423 152.25 473.007 150.5 476.84 147C480.84 143.333 482.84 138.75 482.84 133.25C482.84 128.75 481.257 124.917 478.09 121.75C475.09 118.583 471.007 115.667 465.84 113C460.673 110.167 454.757 107.167 448.09 104C443.923 102 439.423 99.6667 434.59 97C429.757 94.1667 425.09 90.75 420.59 86.75C416.257 82.5833 412.673 77.5833 409.84 71.75C407.007 65.9167 405.59 58.9167 405.59 50.75C405.59 34.75 411.007 22.3333 421.84 13.5C432.673 4.49999 447.423 -9.17912e-06 466.09 -9.17912e-06C475.423 -9.17912e-06 484.257 1.08333 492.59 3.24999C500.923 5.41666 509.757 8.5 519.09 12.5L506.84 42C498.673 38.6667 491.34 36.0833 484.84 34.25C478.34 32.4167 471.673 31.5 464.84 31.5C457.673 31.5 452.173 33.1667 448.34 36.5C444.507 39.8333 442.59 44.1667 442.59 49.5C442.59 55.8333 445.423 60.8333 451.09 64.5C456.757 68.1667 465.173 72.6667 476.34 78C485.507 82.3333 493.257 86.8333 499.59 91.5C506.09 96.1667 511.09 101.667 514.59 108C518.09 114.333 519.84 122.167 519.84 131.5ZM601.285 96.75L625.035 96V90C625.035 82.8333 623.118 77.5833 619.285 74.25C615.618 70.9167 610.452 69.25 603.785 69.25C597.118 69.25 590.618 70.25 584.285 72.25C577.952 74.0833 571.618 76.4167 565.285 79.25L553.035 54C560.202 50.3333 568.285 47.4167 577.285 45.25C586.285 42.9167 595.618 41.75 605.285 41.75C623.785 41.75 637.868 45.6667 647.535 53.5C657.202 61.3333 662.035 73.5 662.035 90V181H636.035L628.785 162.5H627.785C621.952 169.833 615.785 175.167 609.285 178.5C602.785 181.833 593.868 183.5 582.535 183.5C570.368 183.5 560.285 180 552.285 173C544.285 166 540.285 155.083 540.285 140.25C540.285 125.583 545.285 114.917 555.285 108.25C565.452 101.417 580.785 97.5833 601.285 96.75ZM578.535 140.5C578.535 146.167 580.202 150.25 583.535 152.75C586.868 155.083 591.202 156.25 596.535 156.25C604.535 156.25 611.285 153.917 616.785 149.25C622.285 144.417 625.035 137.667 625.035 129V117.75L610.535 118.25C598.535 118.583 590.202 120.75 585.535 124.75C580.868 128.75 578.535 134 578.535 140.5ZM700.164 44.5H728.664L733.664 62H735.664C739.997 55 745.914 49.9167 753.414 46.75C761.081 43.5833 769.164 42 777.664 42C792.331 42 804.081 46 812.914 54C821.747 61.8333 826.164 74.5 826.164 92V181H788.914V101.25C788.914 91.25 787.164 83.8333 783.664 79C780.164 74.1667 774.581 71.75 766.914 71.75C755.581 71.75 747.831 75.6667 743.664 83.5C739.497 91.1667 737.414 102.25 737.414 116.75V181H700.164V44.5ZM959.721 140.5C959.721 154.333 954.804 165 944.971 172.5C935.304 179.833 920.804 183.5 901.471 183.5C891.971 183.5 883.804 182.833 876.971 181.5C870.137 180.333 863.304 178.333 856.471 175.5V144.75C863.804 148.083 871.721 150.833 880.221 153C888.721 155.167 896.221 156.25 902.721 156.25C909.887 156.25 915.054 155.167 918.221 153C921.387 150.833 922.971 148 922.971 144.5C922.971 142.167 922.304 140.083 920.971 138.25C919.804 136.417 917.137 134.333 912.971 132C908.804 129.667 902.304 126.667 893.471 123C884.804 119.333 877.721 115.75 872.221 112.25C866.887 108.583 862.887 104.25 860.221 99.25C857.554 94.0833 856.221 87.6667 856.221 80C856.221 67.3333 861.137 57.8333 870.971 51.5C880.804 45.1667 893.887 42 910.221 42C918.721 42 926.804 42.8333 934.471 44.5C942.137 46.1667 950.054 48.9167 958.221 52.75L946.971 79.5C940.304 76.6667 933.971 74.3333 927.971 72.5C921.971 70.5 915.887 69.5 909.721 69.5C898.721 69.5 893.221 72.5 893.221 78.5C893.221 80.6667 893.887 82.6667 895.221 84.5C896.721 86.1667 899.471 88 903.471 90C907.637 92 913.721 94.6667 921.721 98C929.554 101.167 936.304 104.5 941.971 108C947.637 111.333 951.971 115.583 954.971 120.75C958.137 125.917 959.721 132.5 959.721 140.5Z" fill="white"/>
</svg>
