<svg width="1840" height="600" viewBox="0 0 1840 600" fill="none" xmlns="http://www.w3.org/2000/svg">
<rect width="400" height="400" fill="white"/>
<rect x="40" y="40" width="320" height="320" fill="#003366"/>
<path d="M79.368 307.54H76.632L78.396 302.248C78.432 302.14 78.468 301.996 78.468 301.852C78.468 301.312 78 300.844 77.424 300.844C76.992 300.844 76.56 301.132 76.416 301.564L74.472 307.54H70.476L72.24 302.248C72.276 302.14 72.312 301.996 72.312 301.852C72.312 301.312 71.844 300.844 71.268 300.844C70.8 300.844 70.404 301.096 70.26 301.564L68.28 307.54H64.86C64.356 307.54 63.924 307.936 63.924 308.476C63.924 309.016 64.356 309.412 64.86 309.412H67.632L65.256 316.576H61.944C61.404 316.576 60.972 317.008 60.972 317.548C60.972 318.088 61.404 318.484 61.944 318.484H64.608L62.844 323.74C62.808 323.848 62.772 323.992 62.772 324.136C62.772 324.676 63.24 325.144 63.816 325.144C64.284 325.144 64.68 324.856 64.824 324.424L66.804 318.484H70.8L69.036 323.704C69 323.848 68.964 323.992 68.964 324.136C68.964 324.676 69.432 325.144 70.008 325.144C70.44 325.144 70.872 324.856 70.98 324.424L72.996 318.484H76.488C76.992 318.484 77.424 318.088 77.424 317.548C77.424 317.008 76.992 316.576 76.488 316.576H73.608L76.02 309.412H79.368C79.872 309.412 80.34 309.016 80.34 308.476C80.34 307.936 79.872 307.54 79.368 307.54ZM71.376 316.576H67.452L69.828 309.412H73.824L71.376 316.576ZM83.0704 313.012C83.0704 318.844 85.6624 325.432 92.2504 325.432C98.8024 325.432 101.43 318.844 101.43 313.012C101.43 307.144 98.8024 300.628 92.2504 300.628C85.6624 300.628 83.0704 307.144 83.0704 313.012ZM98.3704 313.012C98.3704 317.8 96.8224 322.768 92.2504 322.768C87.6784 322.768 86.1304 317.8 86.1304 313.012C86.1304 308.224 87.6784 303.292 92.2504 303.292C96.8224 303.292 98.3704 308.224 98.3704 313.012ZM105.113 313.012C105.113 318.844 107.705 325.432 114.293 325.432C120.845 325.432 123.473 318.844 123.473 313.012C123.473 307.144 120.845 300.628 114.293 300.628C107.705 300.628 105.113 307.144 105.113 313.012ZM120.413 313.012C120.413 317.8 118.865 322.768 114.293 322.768C109.721 322.768 108.173 317.8 108.173 313.012C108.173 308.224 109.721 303.292 114.293 303.292C118.865 303.292 120.413 308.224 120.413 313.012ZM134.896 325.432C140.188 325.432 143.392 322.516 143.392 318.52C143.392 314.668 140.044 312.796 137.848 312.616C140.116 312.22 143.032 310.492 143.032 307.036C143.032 302.968 139.504 300.628 134.896 300.628C131.728 300.628 129.28 301.816 127.48 303.508C127.228 303.76 127.012 304.084 127.012 304.48C127.012 305.2 127.588 305.776 128.308 305.776C128.632 305.776 128.92 305.668 129.136 305.488C130.72 304.048 132.448 303.292 134.68 303.292C137.596 303.292 140.044 304.732 140.044 307.396C140.044 310.168 137.488 311.356 134.464 311.356H133.168C132.448 311.356 131.836 311.968 131.836 312.688C131.836 313.444 132.448 314.02 133.168 314.02H134.464C137.992 314.02 140.44 315.28 140.44 318.268C140.44 321.04 138.316 322.768 134.824 322.768C132.412 322.768 130.396 321.832 128.92 320.392C128.668 320.176 128.38 320.068 128.056 320.068C127.3 320.068 126.688 320.644 126.688 321.4C126.688 321.796 126.868 322.156 127.12 322.408C128.812 324.136 131.476 325.432 134.896 325.432ZM154.935 325.432C160.227 325.432 163.431 322.516 163.431 318.52C163.431 314.668 160.083 312.796 157.887 312.616C160.155 312.22 163.071 310.492 163.071 307.036C163.071 302.968 159.543 300.628 154.935 300.628C151.767 300.628 149.319 301.816 147.519 303.508C147.267 303.76 147.051 304.084 147.051 304.48C147.051 305.2 147.627 305.776 148.347 305.776C148.671 305.776 148.959 305.668 149.175 305.488C150.759 304.048 152.487 303.292 154.719 303.292C157.635 303.292 160.083 304.732 160.083 307.396C160.083 310.168 157.527 311.356 154.503 311.356H153.207C152.487 311.356 151.875 311.968 151.875 312.688C151.875 313.444 152.487 314.02 153.207 314.02H154.503C158.031 314.02 160.479 315.28 160.479 318.268C160.479 321.04 158.355 322.768 154.863 322.768C152.451 322.768 150.435 321.832 148.959 320.392C148.707 320.176 148.419 320.068 148.095 320.068C147.339 320.068 146.727 320.644 146.727 321.4C146.727 321.796 146.907 322.156 147.159 322.408C148.851 324.136 151.515 325.432 154.935 325.432ZM167.234 313.048C167.234 319.564 169.79 325.432 176.486 325.432C181.742 325.432 184.91 321.76 184.91 317.584C184.91 312.472 181.382 309.916 177.062 309.916C173.966 309.916 171.302 312.004 170.258 313.66C170.222 313.336 170.222 313.048 170.222 312.724C170.222 308.008 172.346 303.292 176.99 303.292C178.898 303.292 180.158 303.94 181.238 304.912C181.454 305.092 181.742 305.164 182.03 305.164C182.75 305.164 183.362 304.552 183.362 303.832C183.362 303.4 183.146 302.968 182.822 302.752C181.346 301.456 179.546 300.628 176.99 300.628C170.258 300.628 167.234 306.532 167.234 313.048ZM181.886 317.692C181.886 319.996 180.086 322.768 176.378 322.768C172.202 322.768 170.618 319.096 170.33 316.108C171.662 313.984 173.966 312.508 176.342 312.508C179.438 312.508 181.886 314.164 181.886 317.692ZM188.504 313.048C188.504 319.564 191.06 325.432 197.756 325.432C203.012 325.432 206.18 321.76 206.18 317.584C206.18 312.472 202.652 309.916 198.332 309.916C195.236 309.916 192.572 312.004 191.528 313.66C191.492 313.336 191.492 313.048 191.492 312.724C191.492 308.008 193.616 303.292 198.26 303.292C200.168 303.292 201.428 303.94 202.508 304.912C202.724 305.092 203.012 305.164 203.3 305.164C204.02 305.164 204.632 304.552 204.632 303.832C204.632 303.4 204.416 302.968 204.092 302.752C202.616 301.456 200.816 300.628 198.26 300.628C191.528 300.628 188.504 306.532 188.504 313.048ZM203.156 317.692C203.156 319.996 201.356 322.768 197.648 322.768C193.472 322.768 191.888 319.096 191.6 316.108C192.932 313.984 195.236 312.508 197.612 312.508C200.708 312.508 203.156 314.164 203.156 317.692Z" fill="white"/>
<rect x="287" y="200" width="400" height="400" fill="white"/>
<rect x="327" y="240" width="320" height="320" fill="#FCBA19"/>
<path d="M366.368 507.54H363.632L365.396 502.248C365.432 502.14 365.468 501.996 365.468 501.852C365.468 501.312 365 500.844 364.424 500.844C363.992 500.844 363.56 501.132 363.416 501.564L361.472 507.54H357.476L359.24 502.248C359.276 502.14 359.312 501.996 359.312 501.852C359.312 501.312 358.844 500.844 358.268 500.844C357.8 500.844 357.404 501.096 357.26 501.564L355.28 507.54H351.86C351.356 507.54 350.924 507.936 350.924 508.476C350.924 509.016 351.356 509.412 351.86 509.412H354.632L352.256 516.576H348.944C348.404 516.576 347.972 517.008 347.972 517.548C347.972 518.088 348.404 518.484 348.944 518.484H351.608L349.844 523.74C349.808 523.848 349.772 523.992 349.772 524.136C349.772 524.676 350.24 525.144 350.816 525.144C351.284 525.144 351.68 524.856 351.824 524.424L353.804 518.484H357.8L356.036 523.704C356 523.848 355.964 523.992 355.964 524.136C355.964 524.676 356.432 525.144 357.008 525.144C357.44 525.144 357.872 524.856 357.98 524.424L359.996 518.484H363.488C363.992 518.484 364.424 518.088 364.424 517.548C364.424 517.008 363.992 516.576 363.488 516.576H360.608L363.02 509.412H366.368C366.872 509.412 367.34 509.016 367.34 508.476C367.34 507.936 366.872 507.54 366.368 507.54ZM358.376 516.576H354.452L356.828 509.412H360.824L358.376 516.576ZM372.554 525.144C373.346 525.144 374.03 524.46 374.03 523.668V514.056H385.334C386.054 514.056 386.702 513.444 386.702 512.724C386.702 512.004 386.054 511.392 385.334 511.392H374.03V503.652H385.586C386.306 503.652 386.954 503.04 386.954 502.32C386.954 501.6 386.306 500.988 385.586 500.988H372.626C371.618 500.988 371.042 501.564 371.042 502.572V523.668C371.042 524.46 371.69 525.144 372.554 525.144ZM402.103 525.432C405.703 525.432 408.295 524.1 410.347 521.94C410.599 521.688 410.707 521.328 410.707 520.968C410.707 520.176 410.059 519.564 409.303 519.564C408.835 519.564 408.475 519.744 408.223 520.032C406.747 521.724 404.551 522.768 402.103 522.768C396.955 522.768 392.959 518.7 392.959 513.012C392.959 507.288 396.955 503.256 402.103 503.256C404.551 503.256 406.711 504.336 408.223 505.992C408.475 506.28 408.835 506.46 409.303 506.46C410.059 506.46 410.707 505.812 410.707 505.056C410.707 504.696 410.599 504.336 410.347 504.084C408.367 501.96 405.667 500.592 402.103 500.592C395.299 500.592 389.863 505.632 389.863 513.012C389.863 520.392 395.299 525.432 402.103 525.432ZM416.537 525H425.897C430.289 525 432.845 522.372 432.845 518.52C432.845 515.64 430.721 513.012 428.165 512.616C430.361 512.148 432.377 510.132 432.377 507.108C432.377 503.508 429.821 500.988 425.645 500.988H416.537C415.529 500.988 414.953 501.564 414.953 502.572V523.416C414.953 524.424 415.529 525 416.537 525ZM417.941 511.392V503.652H425.141C427.841 503.652 429.281 505.38 429.281 507.54C429.281 509.736 427.841 511.392 425.141 511.392H417.941ZM417.941 522.336V514.056H425.285C428.237 514.056 429.749 516 429.749 518.196C429.749 520.752 428.093 522.336 425.285 522.336H417.941ZM457.357 523.02L449.041 502.5C448.681 501.528 447.745 500.844 446.629 500.844C445.513 500.844 444.577 501.528 444.181 502.5L435.901 523.02C435.829 523.236 435.757 523.452 435.757 523.632C435.757 524.46 436.441 525.144 437.305 525.144C437.953 525.144 438.529 524.748 438.709 524.172L440.437 519.672H452.785L454.513 524.172C454.729 524.748 455.305 525.144 455.953 525.144C456.781 525.144 457.465 524.46 457.465 523.596C457.465 523.416 457.393 523.2 457.357 523.02ZM441.481 517.008L446.629 503.652L451.777 517.008H441.481ZM466.4 525.144C467.228 525.144 467.876 524.46 467.876 523.668V502.572C467.876 501.636 467.084 500.844 466.112 500.844C465.608 500.844 465.176 501.06 464.888 501.348L459.992 506.388C459.776 506.604 459.632 506.928 459.632 507.288C459.632 508.008 460.208 508.584 460.928 508.584C461.288 508.584 461.612 508.404 461.828 508.188L464.888 504.948V523.668C464.888 524.46 465.536 525.144 466.4 525.144ZM474.532 523.272C476.008 524.568 477.844 525.396 480.364 525.396C487.096 525.396 490.12 519.492 490.12 513.012C490.12 506.46 487.564 500.592 480.832 500.592C475.612 500.592 472.444 504.3 472.444 508.44C472.444 513.552 476.008 516.108 480.328 516.108C483.388 516.108 486.052 514.02 487.096 512.364C487.132 512.688 487.132 513.012 487.132 513.336C487.132 517.872 485.224 522.732 480.364 522.732C478.42 522.732 477.16 522.084 476.116 521.112C475.9 520.968 475.612 520.86 475.324 520.86C474.604 520.86 473.992 521.472 473.992 522.192C473.992 522.624 474.208 523.056 474.532 523.272ZM486.988 509.952C485.728 512.076 483.388 513.516 481.012 513.516C477.916 513.516 475.468 511.86 475.468 508.332C475.468 506.064 477.304 503.256 480.976 503.256C485.152 503.256 486.736 506.964 486.988 509.952Z" fill="white"/>
<rect x="576" width="400" height="400" fill="white"/>
<rect x="616" y="40" width="320" height="320" fill="#313132"/>
<path d="M655.368 307.54H652.632L654.396 302.248C654.432 302.14 654.468 301.996 654.468 301.852C654.468 301.312 654 300.844 653.424 300.844C652.992 300.844 652.56 301.132 652.416 301.564L650.472 307.54H646.476L648.24 302.248C648.276 302.14 648.312 301.996 648.312 301.852C648.312 301.312 647.844 300.844 647.268 300.844C646.8 300.844 646.404 301.096 646.26 301.564L644.28 307.54H640.86C640.356 307.54 639.924 307.936 639.924 308.476C639.924 309.016 640.356 309.412 640.86 309.412H643.632L641.256 316.576H637.944C637.404 316.576 636.972 317.008 636.972 317.548C636.972 318.088 637.404 318.484 637.944 318.484H640.608L638.844 323.74C638.808 323.848 638.772 323.992 638.772 324.136C638.772 324.676 639.24 325.144 639.816 325.144C640.284 325.144 640.68 324.856 640.824 324.424L642.804 318.484H646.8L645.036 323.704C645 323.848 644.964 323.992 644.964 324.136C644.964 324.676 645.432 325.144 646.008 325.144C646.44 325.144 646.872 324.856 646.98 324.424L648.996 318.484H652.488C652.992 318.484 653.424 318.088 653.424 317.548C653.424 317.008 652.992 316.576 652.488 316.576H649.608L652.02 309.412H655.368C655.872 309.412 656.34 309.016 656.34 308.476C656.34 307.936 655.872 307.54 655.368 307.54ZM647.376 316.576H643.452L645.828 309.412H649.824L647.376 316.576ZM666.81 325.432C672.102 325.432 675.306 322.516 675.306 318.52C675.306 314.668 671.958 312.796 669.762 312.616C672.03 312.22 674.946 310.492 674.946 307.036C674.946 302.968 671.418 300.628 666.81 300.628C663.642 300.628 661.194 301.816 659.394 303.508C659.142 303.76 658.926 304.084 658.926 304.48C658.926 305.2 659.502 305.776 660.222 305.776C660.546 305.776 660.834 305.668 661.05 305.488C662.634 304.048 664.362 303.292 666.594 303.292C669.51 303.292 671.958 304.732 671.958 307.396C671.958 310.168 669.402 311.356 666.378 311.356H665.082C664.362 311.356 663.75 311.968 663.75 312.688C663.75 313.444 664.362 314.02 665.082 314.02H666.378C669.906 314.02 672.354 315.28 672.354 318.268C672.354 321.04 670.23 322.768 666.738 322.768C664.326 322.768 662.31 321.832 660.834 320.392C660.582 320.176 660.294 320.068 659.97 320.068C659.214 320.068 658.602 320.644 658.602 321.4C658.602 321.796 658.782 322.156 659.034 322.408C660.726 324.136 663.39 325.432 666.81 325.432ZM685.193 325.144C686.021 325.144 686.669 324.46 686.669 323.668V302.572C686.669 301.636 685.877 300.844 684.905 300.844C684.401 300.844 683.969 301.06 683.681 301.348L678.785 306.388C678.569 306.604 678.425 306.928 678.425 307.288C678.425 308.008 679.001 308.584 679.721 308.584C680.081 308.584 680.405 308.404 680.621 308.188L683.681 304.948V323.668C683.681 324.46 684.329 325.144 685.193 325.144ZM699.049 325.432C704.341 325.432 707.545 322.516 707.545 318.52C707.545 314.668 704.197 312.796 702.001 312.616C704.269 312.22 707.185 310.492 707.185 307.036C707.185 302.968 703.657 300.628 699.049 300.628C695.881 300.628 693.433 301.816 691.633 303.508C691.381 303.76 691.165 304.084 691.165 304.48C691.165 305.2 691.741 305.776 692.461 305.776C692.785 305.776 693.073 305.668 693.289 305.488C694.873 304.048 696.601 303.292 698.833 303.292C701.749 303.292 704.197 304.732 704.197 307.396C704.197 310.168 701.641 311.356 698.617 311.356H697.321C696.601 311.356 695.989 311.968 695.989 312.688C695.989 313.444 696.601 314.02 697.321 314.02H698.617C702.145 314.02 704.593 315.28 704.593 318.268C704.593 321.04 702.469 322.768 698.977 322.768C696.565 322.768 694.549 321.832 693.073 320.392C692.821 320.176 692.533 320.068 692.209 320.068C691.453 320.068 690.841 320.644 690.841 321.4C690.841 321.796 691.021 322.156 691.273 322.408C692.965 324.136 695.629 325.432 699.049 325.432ZM717.432 325.144C718.26 325.144 718.908 324.46 718.908 323.668V302.572C718.908 301.636 718.116 300.844 717.144 300.844C716.64 300.844 716.208 301.06 715.92 301.348L711.024 306.388C710.808 306.604 710.664 306.928 710.664 307.288C710.664 308.008 711.24 308.584 711.96 308.584C712.32 308.584 712.644 308.404 712.86 308.188L715.92 304.948V323.668C715.92 324.46 716.568 325.144 717.432 325.144ZM731.287 325.432C736.579 325.432 739.783 322.516 739.783 318.52C739.783 314.668 736.435 312.796 734.239 312.616C736.507 312.22 739.423 310.492 739.423 307.036C739.423 302.968 735.895 300.628 731.287 300.628C728.119 300.628 725.671 301.816 723.871 303.508C723.619 303.76 723.403 304.084 723.403 304.48C723.403 305.2 723.979 305.776 724.699 305.776C725.023 305.776 725.311 305.668 725.527 305.488C727.111 304.048 728.839 303.292 731.071 303.292C733.987 303.292 736.435 304.732 736.435 307.396C736.435 310.168 733.879 311.356 730.855 311.356H729.559C728.839 311.356 728.227 311.968 728.227 312.688C728.227 313.444 728.839 314.02 729.559 314.02H730.855C734.383 314.02 736.831 315.28 736.831 318.268C736.831 321.04 734.707 322.768 731.215 322.768C728.803 322.768 726.787 321.832 725.311 320.392C725.059 320.176 724.771 320.068 724.447 320.068C723.691 320.068 723.079 320.644 723.079 321.4C723.079 321.796 723.259 322.156 723.511 322.408C725.203 324.136 727.867 325.432 731.287 325.432ZM744.882 325H758.778C759.498 325 760.11 324.388 760.11 323.668C760.11 322.948 759.498 322.336 758.778 322.336H748.194C754.89 317.044 759.858 312.58 759.858 307.684C759.858 302.896 755.79 300.628 751.794 300.628C748.878 300.628 746.214 301.636 744.306 303.472C744.018 303.724 743.838 304.084 743.838 304.48C743.838 305.236 744.414 305.848 745.17 305.848C745.494 305.848 745.818 305.704 746.07 305.524C747.474 304.156 749.418 303.292 751.794 303.292C754.278 303.292 756.798 304.624 756.798 307.684C756.798 311.716 752.298 315.64 743.946 322.12C743.55 322.444 743.298 322.876 743.298 323.416C743.298 324.28 744.054 325 744.882 325Z" fill="white"/>
<rect x="865" y="200" width="400" height="400" fill="white"/>
<rect x="905" y="240" width="320" height="320" fill="#606060"/>
<path d="M944.368 507.54H941.632L943.396 502.248C943.432 502.14 943.468 501.996 943.468 501.852C943.468 501.312 943 500.844 942.424 500.844C941.992 500.844 941.56 501.132 941.416 501.564L939.472 507.54H935.476L937.24 502.248C937.276 502.14 937.312 501.996 937.312 501.852C937.312 501.312 936.844 500.844 936.268 500.844C935.8 500.844 935.404 501.096 935.26 501.564L933.28 507.54H929.86C929.356 507.54 928.924 507.936 928.924 508.476C928.924 509.016 929.356 509.412 929.86 509.412H932.632L930.256 516.576H926.944C926.404 516.576 925.972 517.008 925.972 517.548C925.972 518.088 926.404 518.484 926.944 518.484H929.608L927.844 523.74C927.808 523.848 927.772 523.992 927.772 524.136C927.772 524.676 928.24 525.144 928.816 525.144C929.284 525.144 929.68 524.856 929.824 524.424L931.804 518.484H935.8L934.036 523.704C934 523.848 933.964 523.992 933.964 524.136C933.964 524.676 934.432 525.144 935.008 525.144C935.44 525.144 935.872 524.856 935.98 524.424L937.996 518.484H941.488C941.992 518.484 942.424 518.088 942.424 517.548C942.424 517.008 941.992 516.576 941.488 516.576H938.608L941.02 509.412H944.368C944.872 509.412 945.34 509.016 945.34 508.476C945.34 507.936 944.872 507.54 944.368 507.54ZM936.376 516.576H932.452L934.828 509.412H938.824L936.376 516.576ZM948.07 513.048C948.07 519.564 950.626 525.432 957.322 525.432C962.578 525.432 965.746 521.76 965.746 517.584C965.746 512.472 962.218 509.916 957.898 509.916C954.802 509.916 952.138 512.004 951.094 513.66C951.058 513.336 951.058 513.048 951.058 512.724C951.058 508.008 953.182 503.292 957.826 503.292C959.734 503.292 960.994 503.94 962.074 504.912C962.29 505.092 962.578 505.164 962.866 505.164C963.586 505.164 964.198 504.552 964.198 503.832C964.198 503.4 963.982 502.968 963.658 502.752C962.182 501.456 960.382 500.628 957.826 500.628C951.094 500.628 948.07 506.532 948.07 513.048ZM962.722 517.692C962.722 519.996 960.922 522.768 957.214 522.768C953.038 522.768 951.454 519.096 951.166 516.108C952.498 513.984 954.802 512.508 957.178 512.508C960.274 512.508 962.722 514.164 962.722 517.692ZM969.34 513.012C969.34 518.844 971.932 525.432 978.52 525.432C985.072 525.432 987.7 518.844 987.7 513.012C987.7 507.144 985.072 500.628 978.52 500.628C971.932 500.628 969.34 507.144 969.34 513.012ZM984.64 513.012C984.64 517.8 983.092 522.768 978.52 522.768C973.948 522.768 972.4 517.8 972.4 513.012C972.4 508.224 973.948 503.292 978.52 503.292C983.092 503.292 984.64 508.224 984.64 513.012ZM991.383 513.048C991.383 519.564 993.939 525.432 1000.63 525.432C1005.89 525.432 1009.06 521.76 1009.06 517.584C1009.06 512.472 1005.53 509.916 1001.21 509.916C998.115 509.916 995.451 512.004 994.407 513.66C994.371 513.336 994.371 513.048 994.371 512.724C994.371 508.008 996.495 503.292 1001.14 503.292C1003.05 503.292 1004.31 503.94 1005.39 504.912C1005.6 505.092 1005.89 505.164 1006.18 505.164C1006.9 505.164 1007.51 504.552 1007.51 503.832C1007.51 503.4 1007.29 502.968 1006.97 502.752C1005.49 501.456 1003.69 500.628 1001.14 500.628C994.407 500.628 991.383 506.532 991.383 513.048ZM1006.03 517.692C1006.03 519.996 1004.23 522.768 1000.53 522.768C996.351 522.768 994.767 519.096 994.479 516.108C995.811 513.984 998.115 512.508 1000.49 512.508C1003.59 512.508 1006.03 514.164 1006.03 517.692ZM1012.65 513.012C1012.65 518.844 1015.24 525.432 1021.83 525.432C1028.38 525.432 1031.01 518.844 1031.01 513.012C1031.01 507.144 1028.38 500.628 1021.83 500.628C1015.24 500.628 1012.65 507.144 1012.65 513.012ZM1027.95 513.012C1027.95 517.8 1026.4 522.768 1021.83 522.768C1017.26 522.768 1015.71 517.8 1015.71 513.012C1015.71 508.224 1017.26 503.292 1021.83 503.292C1026.4 503.292 1027.95 508.224 1027.95 513.012ZM1034.7 513.048C1034.7 519.564 1037.25 525.432 1043.95 525.432C1049.2 525.432 1052.37 521.76 1052.37 517.584C1052.37 512.472 1048.84 509.916 1044.52 509.916C1041.43 509.916 1038.76 512.004 1037.72 513.66C1037.68 513.336 1037.68 513.048 1037.68 512.724C1037.68 508.008 1039.81 503.292 1044.45 503.292C1046.36 503.292 1047.62 503.94 1048.7 504.912C1048.92 505.092 1049.2 505.164 1049.49 505.164C1050.21 505.164 1050.82 504.552 1050.82 503.832C1050.82 503.4 1050.61 502.968 1050.28 502.752C1048.81 501.456 1047.01 500.628 1044.45 500.628C1037.72 500.628 1034.7 506.532 1034.7 513.048ZM1049.35 517.692C1049.35 519.996 1047.55 522.768 1043.84 522.768C1039.66 522.768 1038.08 519.096 1037.79 516.108C1039.12 513.984 1041.43 512.508 1043.8 512.508C1046.9 512.508 1049.35 514.164 1049.35 517.692ZM1055.96 513.012C1055.96 518.844 1058.56 525.432 1065.14 525.432C1071.7 525.432 1074.32 518.844 1074.32 513.012C1074.32 507.144 1071.7 500.628 1065.14 500.628C1058.56 500.628 1055.96 507.144 1055.96 513.012ZM1071.26 513.012C1071.26 517.8 1069.72 522.768 1065.14 522.768C1060.57 522.768 1059.02 517.8 1059.02 513.012C1059.02 508.224 1060.57 503.292 1065.14 503.292C1069.72 503.292 1071.26 508.224 1071.26 513.012Z" fill="white"/>
<rect x="1154" width="400" height="400" fill="white"/>
<rect x="1194" y="40" width="320" height="320" fill="#38598A"/>
<path d="M1233.37 307.54H1230.63L1232.4 302.248C1232.43 302.14 1232.47 301.996 1232.47 301.852C1232.47 301.312 1232 300.844 1231.42 300.844C1230.99 300.844 1230.56 301.132 1230.42 301.564L1228.47 307.54H1224.48L1226.24 302.248C1226.28 302.14 1226.31 301.996 1226.31 301.852C1226.31 301.312 1225.84 300.844 1225.27 300.844C1224.8 300.844 1224.4 301.096 1224.26 301.564L1222.28 307.54H1218.86C1218.36 307.54 1217.92 307.936 1217.92 308.476C1217.92 309.016 1218.36 309.412 1218.86 309.412H1221.63L1219.26 316.576H1215.94C1215.4 316.576 1214.97 317.008 1214.97 317.548C1214.97 318.088 1215.4 318.484 1215.94 318.484H1218.61L1216.84 323.74C1216.81 323.848 1216.77 323.992 1216.77 324.136C1216.77 324.676 1217.24 325.144 1217.82 325.144C1218.28 325.144 1218.68 324.856 1218.82 324.424L1220.8 318.484H1224.8L1223.04 323.704C1223 323.848 1222.96 323.992 1222.96 324.136C1222.96 324.676 1223.43 325.144 1224.01 325.144C1224.44 325.144 1224.87 324.856 1224.98 324.424L1227 318.484H1230.49C1230.99 318.484 1231.42 318.088 1231.42 317.548C1231.42 317.008 1230.99 316.576 1230.49 316.576H1227.61L1230.02 309.412H1233.37C1233.87 309.412 1234.34 309.016 1234.34 308.476C1234.34 307.936 1233.87 307.54 1233.37 307.54ZM1225.38 316.576H1221.45L1223.83 309.412H1227.82L1225.38 316.576ZM1244.81 325.432C1250.1 325.432 1253.31 322.516 1253.31 318.52C1253.31 314.668 1249.96 312.796 1247.76 312.616C1250.03 312.22 1252.95 310.492 1252.95 307.036C1252.95 302.968 1249.42 300.628 1244.81 300.628C1241.64 300.628 1239.19 301.816 1237.39 303.508C1237.14 303.76 1236.93 304.084 1236.93 304.48C1236.93 305.2 1237.5 305.776 1238.22 305.776C1238.55 305.776 1238.83 305.668 1239.05 305.488C1240.63 304.048 1242.36 303.292 1244.59 303.292C1247.51 303.292 1249.96 304.732 1249.96 307.396C1249.96 310.168 1247.4 311.356 1244.38 311.356H1243.08C1242.36 311.356 1241.75 311.968 1241.75 312.688C1241.75 313.444 1242.36 314.02 1243.08 314.02H1244.38C1247.91 314.02 1250.35 315.28 1250.35 318.268C1250.35 321.04 1248.23 322.768 1244.74 322.768C1242.33 322.768 1240.31 321.832 1238.83 320.392C1238.58 320.176 1238.29 320.068 1237.97 320.068C1237.21 320.068 1236.6 320.644 1236.6 321.4C1236.6 321.796 1236.78 322.156 1237.03 322.408C1238.73 324.136 1241.39 325.432 1244.81 325.432ZM1257.15 318.916C1257.15 323.02 1261 325.432 1265.75 325.432C1270.47 325.432 1274.35 322.984 1274.35 318.916C1274.35 315.712 1271.62 313.516 1268.63 312.616C1271.4 311.824 1273.99 310.024 1273.99 306.856C1273.99 302.536 1269.71 300.628 1265.75 300.628C1261.75 300.628 1257.54 302.536 1257.54 306.856C1257.54 310.024 1260.1 311.824 1262.87 312.616C1259.88 313.516 1257.15 315.712 1257.15 318.916ZM1270.97 307.252C1270.97 310.168 1267.23 311.14 1265.75 311.392C1264.31 311.14 1260.53 310.168 1260.53 307.252C1260.53 304.768 1262.83 303.292 1265.75 303.292C1268.63 303.292 1270.97 304.768 1270.97 307.252ZM1271.33 318.592C1271.33 321.184 1268.7 322.768 1265.75 322.768C1262.76 322.768 1260.13 321.184 1260.13 318.592C1260.13 315.46 1264.27 314.128 1265.75 313.948C1267.23 314.128 1271.33 315.46 1271.33 318.592ZM1279.4 322.516C1281.2 324.352 1283.57 325.432 1287.03 325.432C1291.85 325.432 1295.56 322.408 1295.56 317.512C1295.56 312.58 1291.92 309.844 1287.93 309.844C1285.52 309.844 1283.46 310.852 1282.31 312.004V303.652H1292.82C1293.54 303.652 1294.16 303.04 1294.16 302.32C1294.16 301.6 1293.54 300.988 1292.82 300.988H1280.91C1279.9 300.988 1279.32 301.564 1279.32 302.572V312.868C1279.32 313.804 1280.08 314.596 1281.05 314.596C1281.48 314.596 1281.84 314.452 1282.13 314.2C1283.64 312.976 1285.23 312.436 1287.06 312.436C1290.3 312.436 1292.57 314.452 1292.57 317.62C1292.57 320.536 1290.3 322.768 1287.03 322.768C1284.54 322.768 1282.71 321.976 1281.23 320.428C1280.98 320.212 1280.66 320.104 1280.33 320.104C1279.58 320.104 1278.93 320.716 1278.93 321.472C1278.93 321.868 1279.14 322.264 1279.4 322.516ZM1301.28 323.272C1302.75 324.568 1304.59 325.396 1307.11 325.396C1313.84 325.396 1316.87 319.492 1316.87 313.012C1316.87 306.46 1314.31 300.592 1307.58 300.592C1302.36 300.592 1299.19 304.3 1299.19 308.44C1299.19 313.552 1302.75 316.108 1307.07 316.108C1310.13 316.108 1312.8 314.02 1313.84 312.364C1313.88 312.688 1313.88 313.012 1313.88 313.336C1313.88 317.872 1311.97 322.732 1307.11 322.732C1305.17 322.732 1303.91 322.084 1302.86 321.112C1302.65 320.968 1302.36 320.86 1302.07 320.86C1301.35 320.86 1300.74 321.472 1300.74 322.192C1300.74 322.624 1300.95 323.056 1301.28 323.272ZM1313.73 309.952C1312.47 312.076 1310.13 313.516 1307.76 313.516C1304.66 313.516 1302.21 311.86 1302.21 308.332C1302.21 306.064 1304.05 303.256 1307.72 303.256C1311.9 303.256 1313.48 306.964 1313.73 309.952ZM1320.57 318.916C1320.57 323.02 1324.42 325.432 1329.17 325.432C1333.89 325.432 1337.78 322.984 1337.78 318.916C1337.78 315.712 1335.04 313.516 1332.05 312.616C1334.82 311.824 1337.42 310.024 1337.42 306.856C1337.42 302.536 1333.13 300.628 1329.17 300.628C1325.18 300.628 1320.96 302.536 1320.96 306.856C1320.96 310.024 1323.52 311.824 1326.29 312.616C1323.3 313.516 1320.57 315.712 1320.57 318.916ZM1334.39 307.252C1334.39 310.168 1330.65 311.14 1329.17 311.392C1327.73 311.14 1323.95 310.168 1323.95 307.252C1323.95 304.768 1326.26 303.292 1329.17 303.292C1332.05 303.292 1334.39 304.768 1334.39 307.252ZM1334.75 318.592C1334.75 321.184 1332.12 322.768 1329.17 322.768C1326.18 322.768 1323.56 321.184 1323.56 318.592C1323.56 315.46 1327.7 314.128 1329.17 313.948C1330.65 314.128 1334.75 315.46 1334.75 318.592ZM1362.19 323.02L1353.87 302.5C1353.51 301.528 1352.57 300.844 1351.46 300.844C1350.34 300.844 1349.41 301.528 1349.01 302.5L1340.73 323.02C1340.66 323.236 1340.59 323.452 1340.59 323.632C1340.59 324.46 1341.27 325.144 1342.13 325.144C1342.78 325.144 1343.36 324.748 1343.54 324.172L1345.27 319.672H1357.61L1359.34 324.172C1359.56 324.748 1360.13 325.144 1360.78 325.144C1361.61 325.144 1362.29 324.46 1362.29 323.596C1362.29 323.416 1362.22 323.2 1362.19 323.02ZM1346.31 317.008L1351.46 303.652L1356.61 317.008H1346.31Z" fill="white"/>
<rect x="1440" y="200" width="400" height="400" fill="white"/>
<rect x="1480" y="240" width="320" height="320" fill="#F2F2F2"/>
<path d="M1519.37 507.54H1516.63L1518.4 502.248C1518.43 502.14 1518.47 501.996 1518.47 501.852C1518.47 501.312 1518 500.844 1517.42 500.844C1516.99 500.844 1516.56 501.132 1516.42 501.564L1514.47 507.54H1510.48L1512.24 502.248C1512.28 502.14 1512.31 501.996 1512.31 501.852C1512.31 501.312 1511.84 500.844 1511.27 500.844C1510.8 500.844 1510.4 501.096 1510.26 501.564L1508.28 507.54H1504.86C1504.36 507.54 1503.92 507.936 1503.92 508.476C1503.92 509.016 1504.36 509.412 1504.86 509.412H1507.63L1505.26 516.576H1501.94C1501.4 516.576 1500.97 517.008 1500.97 517.548C1500.97 518.088 1501.4 518.484 1501.94 518.484H1504.61L1502.84 523.74C1502.81 523.848 1502.77 523.992 1502.77 524.136C1502.77 524.676 1503.24 525.144 1503.82 525.144C1504.28 525.144 1504.68 524.856 1504.82 524.424L1506.8 518.484H1510.8L1509.04 523.704C1509 523.848 1508.96 523.992 1508.96 524.136C1508.96 524.676 1509.43 525.144 1510.01 525.144C1510.44 525.144 1510.87 524.856 1510.98 524.424L1513 518.484H1516.49C1516.99 518.484 1517.42 518.088 1517.42 517.548C1517.42 517.008 1516.99 516.576 1516.49 516.576H1513.61L1516.02 509.412H1519.37C1519.87 509.412 1520.34 509.016 1520.34 508.476C1520.34 507.936 1519.87 507.54 1519.37 507.54ZM1511.38 516.576H1507.45L1509.83 509.412H1513.82L1511.38 516.576ZM1525.55 525.144C1526.35 525.144 1527.03 524.46 1527.03 523.668V514.056H1538.33C1539.05 514.056 1539.7 513.444 1539.7 512.724C1539.7 512.004 1539.05 511.392 1538.33 511.392H1527.03V503.652H1538.59C1539.31 503.652 1539.95 503.04 1539.95 502.32C1539.95 501.6 1539.31 500.988 1538.59 500.988H1525.63C1524.62 500.988 1524.04 501.564 1524.04 502.572V523.668C1524.04 524.46 1524.69 525.144 1525.55 525.144ZM1544.16 525H1558.06C1558.78 525 1559.39 524.388 1559.39 523.668C1559.39 522.948 1558.78 522.336 1558.06 522.336H1547.47C1554.17 517.044 1559.14 512.58 1559.14 507.684C1559.14 502.896 1555.07 500.628 1551.07 500.628C1548.16 500.628 1545.49 501.636 1543.58 503.472C1543.3 503.724 1543.12 504.084 1543.12 504.48C1543.12 505.236 1543.69 505.848 1544.45 505.848C1544.77 505.848 1545.1 505.704 1545.35 505.524C1546.75 504.156 1548.7 503.292 1551.07 503.292C1553.56 503.292 1556.08 504.624 1556.08 507.684C1556.08 511.716 1551.58 515.64 1543.22 522.12C1542.83 522.444 1542.58 522.876 1542.58 523.416C1542.58 524.28 1543.33 525 1544.16 525ZM1566.3 525.144C1567.09 525.144 1567.78 524.46 1567.78 523.668V514.056H1579.08C1579.8 514.056 1580.45 513.444 1580.45 512.724C1580.45 512.004 1579.8 511.392 1579.08 511.392H1567.78V503.652H1579.33C1580.05 503.652 1580.7 503.04 1580.7 502.32C1580.7 501.6 1580.05 500.988 1579.33 500.988H1566.37C1565.36 500.988 1564.79 501.564 1564.79 502.572V523.668C1564.79 524.46 1565.44 525.144 1566.3 525.144ZM1584.91 525H1598.8C1599.52 525 1600.13 524.388 1600.13 523.668C1600.13 522.948 1599.52 522.336 1598.8 522.336H1588.22C1594.91 517.044 1599.88 512.58 1599.88 507.684C1599.88 502.896 1595.81 500.628 1591.82 500.628C1588.9 500.628 1586.24 501.636 1584.33 503.472C1584.04 503.724 1583.86 504.084 1583.86 504.48C1583.86 505.236 1584.44 505.848 1585.19 505.848C1585.52 505.848 1585.84 505.704 1586.09 505.524C1587.5 504.156 1589.44 503.292 1591.82 503.292C1594.3 503.292 1596.82 504.624 1596.82 507.684C1596.82 511.716 1592.32 515.64 1583.97 522.12C1583.57 522.444 1583.32 522.876 1583.32 523.416C1583.32 524.28 1584.08 525 1584.91 525ZM1607.05 525.144C1607.84 525.144 1608.52 524.46 1608.52 523.668V514.056H1619.83C1620.55 514.056 1621.19 513.444 1621.19 512.724C1621.19 512.004 1620.55 511.392 1619.83 511.392H1608.52V503.652H1620.08C1620.8 503.652 1621.45 503.04 1621.45 502.32C1621.45 501.6 1620.8 500.988 1620.08 500.988H1607.12C1606.11 500.988 1605.53 501.564 1605.53 502.572V523.668C1605.53 524.46 1606.18 525.144 1607.05 525.144ZM1625.65 525H1639.55C1640.27 525 1640.88 524.388 1640.88 523.668C1640.88 522.948 1640.27 522.336 1639.55 522.336H1628.96C1635.66 517.044 1640.63 512.58 1640.63 507.684C1640.63 502.896 1636.56 500.628 1632.56 500.628C1629.65 500.628 1626.98 501.636 1625.08 503.472C1624.79 503.724 1624.61 504.084 1624.61 504.48C1624.61 505.236 1625.18 505.848 1625.94 505.848C1626.26 505.848 1626.59 505.704 1626.84 505.524C1628.24 504.156 1630.19 503.292 1632.56 503.292C1635.05 503.292 1637.57 504.624 1637.57 507.684C1637.57 511.716 1633.07 515.64 1624.72 522.12C1624.32 522.444 1624.07 522.876 1624.07 523.416C1624.07 524.28 1624.82 525 1625.65 525Z" fill="#333333"/>
</svg>
