<svg width="1932" height="962" viewBox="0 0 1932 962" fill="none" xmlns="http://www.w3.org/2000/svg">
<rect y="79" width="1932" height="4" fill="#084785"/>
<rect y="480" width="1932" height="4" fill="#084785"/>
<rect y="880" width="1932" height="4" fill="#084785"/>
<path d="M147.516 450.875H180.875V529.625H67.125V450.875H100.211L106.773 433.375H140.953L147.516 450.875ZM142.594 420.25H106.773C101.305 420.25 96.3828 423.805 94.4688 429L91.1875 437.75H67.125C59.7422 437.75 54 443.766 54 450.875V529.625C54 537.008 59.7422 542.75 67.125 542.75H180.875C187.984 542.75 194 537.008 194 529.625V450.875C194 443.766 187.984 437.75 180.875 437.75H156.812L152.711 427.359C151.07 423.258 147.242 420.25 142.594 420.25ZM124 523.062C142.047 523.062 156.812 508.57 156.812 490.25C156.812 472.203 142.047 457.438 124 457.438C105.68 457.438 91.1875 472.203 91.1875 490.25C91.1875 508.57 105.68 523.062 124 523.062ZM124 470.562C134.664 470.562 143.688 479.586 143.688 490.25C143.688 501.188 134.664 509.938 124 509.938C113.062 509.938 104.312 501.188 104.312 490.25C104.312 479.586 113.062 470.562 124 470.562Z" fill="white"/>
<path d="M1443.4 429.547L1429.45 415.602C1427.27 413.414 1423.16 411.5 1420.16 411.5H1373.12C1365.74 411.5 1360 417.516 1360 424.625V437.75H1338.12C1330.74 437.75 1325 443.766 1325 450.875V538.375C1325 545.758 1330.74 551.5 1338.12 551.5H1399.38C1406.48 551.5 1412.5 545.758 1412.5 538.375V525.25H1434.38C1441.48 525.25 1447.5 519.508 1447.5 512.125V438.844C1447.5 435.836 1445.59 431.734 1443.4 429.547ZM1397.73 538.375H1339.77C1338.67 538.375 1338.12 537.828 1338.12 536.734V452.516C1338.12 451.695 1338.67 450.875 1339.77 450.875H1360V512.125C1360 519.508 1365.74 525.25 1373.12 525.25H1399.38V536.734C1399.38 537.828 1398.55 538.375 1397.73 538.375ZM1432.73 512.125H1374.77C1373.67 512.125 1373.12 511.578 1373.12 510.484V426.266C1373.12 425.445 1373.67 424.625 1374.77 424.625H1403.75V448.688C1403.75 452.516 1406.48 455.25 1410.31 455.25H1434.38V510.484C1434.38 511.578 1433.55 512.125 1432.73 512.125ZM1434.38 442.125H1416.88V424.625H1419.34C1419.88 424.625 1420.16 424.898 1420.43 425.172L1433.83 438.57C1434.1 438.844 1434.38 439.117 1434.38 439.664V442.125Z" fill="white"/>
<path d="M1850.9 438.297L1828.2 415.328C1825.74 412.867 1822.19 411.5 1818.91 411.5H1763.12C1755.74 411.5 1750 417.516 1750 424.625V538.375C1750 545.758 1755.74 551.5 1763.12 551.5H1841.88C1848.98 551.5 1855 545.758 1855 538.375V447.594C1855 444.312 1853.36 440.758 1850.9 438.297ZM1840.78 446.5H1820V425.719L1840.78 446.5ZM1763.12 538.375V424.625H1806.88V453.062C1806.88 456.891 1809.61 459.625 1813.44 459.625H1841.88V538.375H1763.12ZM1771.88 525.25H1833.12V490.25L1826.56 483.961C1825.2 482.594 1823.28 482.594 1821.91 483.961L1798.12 507.75L1787.19 497.086C1785.82 495.719 1783.91 495.719 1782.54 497.086L1771.88 507.75V525.25ZM1785 459.625C1777.62 459.625 1771.88 465.641 1771.88 472.75C1771.88 480.133 1777.62 485.875 1785 485.875C1792.11 485.875 1798.12 480.133 1798.12 472.75C1798.12 465.641 1792.11 459.625 1785 459.625Z" fill="white"/>
<path d="M1036.31 432.5H987.562L973.598 418.789C972.074 417.266 970.043 416.25 967.758 416.25H930.688C923.832 416.25 918.5 421.836 918.5 428.438V448.75H898.188C891.332 448.75 886 454.336 886 460.938V534.062C886 540.918 891.332 546.25 898.188 546.25H1003.81C1010.41 546.25 1016 540.918 1016 534.062V513.75H1036.31C1042.91 513.75 1048.5 508.418 1048.5 501.562V444.688C1048.5 438.086 1042.91 432.5 1036.31 432.5ZM1003.81 534.062H898.188V460.938H918.5V501.562C918.5 508.418 923.832 513.75 930.688 513.75H1003.81V534.062ZM1036.31 501.562H930.688V428.438H966.234L979.945 442.402C981.469 443.926 983.5 444.688 985.785 444.688H1036.31V501.562Z" fill="white"/>
<path d="M1821.29 885.297L1796.16 860.16C1794.89 858.891 1793.11 858.891 1791.84 860.16L1766.7 885.297C1764.67 887.328 1766.2 890.375 1768.99 890.375H1786V911.703C1786 913.48 1787.27 914.75 1789.05 914.75H1799.2C1800.73 914.75 1802.25 913.48 1802.25 911.703V890.375H1819.26C1821.8 890.375 1823.32 887.328 1821.29 885.297ZM1858.87 868.285C1857.86 853.559 1845.67 841.625 1830.69 841.625C1828.66 841.625 1826.62 841.879 1824.85 842.387C1816.72 832.23 1804.28 825.375 1790.06 825.375C1768.48 825.375 1750.45 840.609 1746.14 860.922C1730.9 867.27 1721 881.996 1721 898.5C1721 921.098 1739.03 939.125 1761.62 939.125H1846.94C1867 939.125 1883.5 922.875 1883.5 902.562C1883.5 887.074 1873.34 873.363 1858.87 868.285ZM1846.94 926.938H1761.62C1745.88 926.938 1733.19 914.242 1733.19 898.5C1733.19 884.281 1743.6 872.348 1757.56 870.57V870.062C1757.56 852.289 1772.04 837.562 1790.06 837.562C1803.52 837.562 1815.2 845.941 1820.02 857.875C1822.82 855.336 1826.62 853.812 1830.69 853.812C1839.57 853.812 1846.94 861.176 1846.94 870.062C1846.94 873.109 1845.92 875.902 1844.65 878.441C1845.41 878.441 1846.18 878.188 1846.94 878.188C1860.39 878.188 1871.31 889.105 1871.31 902.562C1871.31 916.02 1860.39 926.938 1846.94 926.938Z" fill="white"/>
<path d="M602.422 876.184L611.797 870.91C614.434 869.445 615.898 866.223 615.02 863C611.797 850.695 605.059 839.562 596.27 830.48C593.926 828.43 590.41 827.844 587.773 829.309L578.398 834.875C576.055 833.117 571.66 830.48 568.73 829.309V818.469C568.73 815.539 566.387 812.316 563.457 811.73C551.445 808.508 538.262 808.508 526.25 811.73C523.027 812.609 520.977 815.246 520.977 818.469V829.309C518.047 830.48 513.652 833.117 511.309 834.875L501.934 829.309C499.297 827.844 495.781 828.43 493.438 830.48C484.648 839.562 477.91 850.695 474.688 863C473.809 866.223 475.273 869.445 477.91 870.91L487.285 876.184C486.992 877.941 486.992 880.285 486.992 881.75C486.992 883.508 486.992 885.852 487.285 887.316L477.91 892.883C475.273 894.348 473.809 897.57 474.688 900.793C477.91 913.098 484.648 924.23 493.438 933.312C495.781 935.363 499.297 935.949 501.934 934.484L511.309 928.918C513.652 930.676 518.047 933.312 520.977 934.484V945.324C520.977 948.254 523.32 951.477 526.25 952.062C538.262 955.285 551.445 955.285 563.457 952.062C566.68 951.184 568.73 948.547 568.73 945.324V934.484C571.66 933.312 576.055 930.676 578.398 928.918L587.773 934.484C590.41 935.949 593.926 935.363 596.27 933.312C605.059 924.23 611.797 913.098 615.02 900.793C615.898 897.57 614.434 894.348 611.797 892.883L602.422 887.316C602.715 883.801 602.715 879.992 602.422 876.184ZM586.895 894.934L599.785 902.258C598.027 907.531 593.34 915.148 589.824 919.25L576.934 911.926C567.559 919.836 566.387 920.715 554.668 924.816V939.758C552.031 940.051 547.637 940.637 545 940.637C542.07 940.637 537.676 940.051 535.039 939.758V924.816C523.32 920.715 521.855 919.836 512.773 911.926L499.883 919.25C496.367 915.148 491.68 907.531 489.922 902.258L502.812 894.934C500.469 882.629 500.469 881.164 502.812 868.859L489.922 861.535C492.266 855.383 495.488 849.523 499.883 844.543L512.773 851.867C522.148 843.957 523.32 843.078 535.039 838.977V824.035C537.676 823.742 542.07 823.156 545 823.156C547.637 823.156 552.031 823.742 554.668 824.035V838.977C566.387 843.078 567.852 843.957 576.934 851.867L589.824 844.543C593.34 848.645 598.027 856.262 599.785 861.535L586.895 868.859C589.238 881.164 589.238 882.629 586.895 894.934ZM545 853.625C529.473 853.625 516.875 866.516 516.875 881.75C516.875 897.277 529.473 909.875 545 909.875C560.234 909.875 573.125 897.277 573.125 881.75C573.125 866.516 560.234 853.625 545 853.625ZM545 895.812C537.09 895.812 530.938 889.66 530.938 881.75C530.938 874.133 537.09 867.688 545 867.688C552.617 867.688 559.062 874.133 559.062 881.75C559.062 889.66 552.617 895.812 545 895.812Z" fill="white"/>
<path d="M967.625 820.812C996.043 820.812 1019.19 829.016 1019.19 838.977V840.441C1019.19 850.402 996.043 858.312 967.625 858.312C938.914 858.312 916.062 850.402 916.062 840.441V838.977C916.062 829.016 938.914 820.812 967.625 820.812ZM1019.19 860.656V868.273C1019.19 878.234 996.043 886.438 967.625 886.438C938.914 886.438 916.062 878.234 916.062 868.273V860.656C926.902 868.566 947.41 872.375 967.625 872.375C987.547 872.375 1008.05 868.566 1019.19 860.656ZM1019.19 888.781V896.398C1019.19 906.359 996.043 914.562 967.625 914.562C938.914 914.562 916.062 906.359 916.062 896.398V888.781C926.902 896.691 947.41 900.5 967.625 900.5C987.547 900.5 1008.05 896.691 1019.19 888.781ZM1019.19 916.906V924.816C1019.19 934.777 996.043 942.688 967.625 942.688C938.914 942.688 916.062 934.777 916.062 924.816V916.906C926.902 924.816 947.41 928.625 967.625 928.625C987.547 928.625 1008.05 924.816 1019.19 916.906ZM967.625 806.75C942.137 806.75 902 813.781 902 838.977V924.816C902 950.012 942.137 956.75 967.625 956.75C992.82 956.75 1033.25 950.012 1033.25 924.816V838.977C1033.25 813.781 992.82 806.75 967.625 806.75Z" fill="white"/>
<path d="M1324.81 820.812H1427.94V834.875H1442V816.125C1441.71 811.145 1437.61 807.043 1432.62 806.75H1320.12C1314.85 807.043 1310.75 811.145 1310.75 816.125V891.125H1296.69C1294.05 891.125 1292 893.469 1292 895.812V900.5C1292 911.047 1300.2 919.25 1310.46 919.25H1395.12V891.125H1324.81V820.812ZM1468.95 844.25H1415.05C1409.19 844.25 1404.5 849.23 1404.5 854.797V946.203C1404.5 952.062 1409.19 956.75 1415.05 956.75H1468.95C1474.52 956.75 1479.5 952.062 1479.5 946.203V854.797C1479.5 849.23 1474.52 844.25 1468.95 844.25ZM1465.44 942.688H1418.56V858.312H1465.44V942.688Z" fill="white"/>
<path d="M124 930.75C128.688 930.75 132.75 927 132.75 922V902C132.75 897.312 128.688 893.25 124 893.25C119 893.25 115.25 897.312 115.25 902V922C115.25 927 119 930.75 124 930.75ZM194 877C194 868.875 187.125 862 179 862H169V847.625C169 822.625 149 802.312 124 802C99 802 79 822.312 79 847V862H69C60.5625 862 54 868.875 54 877V947C54 955.438 60.5625 962 69 962H179C187.125 962 194 955.438 194 947V877ZM94 862V847C94 830.75 107.438 817 124 817C140.25 817 154 830.75 154 847V862H94ZM179 877V947H69V877H179Z" fill="white"/>
<path d="M1754.62 23.625H1833.38V36.75H1846.5V23.625C1846.5 16.5156 1840.48 10.5 1833.38 10.5H1754.62C1747.24 10.5 1741.5 16.5156 1741.5 23.625V63H1754.62V23.625ZM1815.88 71.75H1737.12C1729.74 71.75 1724 77.7656 1724 84.875V137.375C1724 144.758 1729.74 150.5 1737.12 150.5H1815.88C1822.98 150.5 1829 144.758 1829 137.375V84.875C1829 77.7656 1822.98 71.75 1815.88 71.75ZM1815.88 137.375H1737.12V104.562C1740.95 107.57 1759 120.695 1759 120.695C1762.83 123.703 1769.39 128.625 1776.5 128.625C1783.34 128.625 1789.9 123.703 1794 120.695C1794 120.695 1811.77 107.57 1815.88 104.562V137.375ZM1815.88 88.7031C1815.05 89.25 1785.25 111.125 1783.61 111.945C1781.42 113.586 1778.41 115.5 1776.5 115.5C1773.77 115.5 1770.21 112.766 1767.75 110.852C1766.93 110.031 1737.67 88.4297 1737.12 87.8828V84.875H1815.88V88.7031ZM1868.38 45.5H1789.62C1782.24 45.5 1776.5 51.5156 1776.5 58.625V63H1789.62V58.625H1868.38V111.125H1837.75V124.25H1868.38C1875.48 124.25 1881.5 118.508 1881.5 111.125V58.625C1881.5 51.5156 1875.48 45.5 1868.38 45.5ZM1842.12 67.375V84.875H1859.62V67.375H1842.12Z" fill="white"/>
<path d="M1438.25 124.25H1425.12V126.984C1425.12 128.078 1424.3 128.625 1423.48 128.625H1321.77C1320.67 128.625 1320.12 128.078 1320.12 126.984V60.2656C1320.12 59.4453 1320.67 58.625 1321.77 58.625H1324.5V45.5H1320.12C1312.74 45.5 1307 51.5156 1307 58.625V128.625C1307 136.008 1312.74 141.75 1320.12 141.75H1425.12C1432.23 141.75 1438.25 136.008 1438.25 128.625V124.25ZM1449.73 32.375C1450.55 32.375 1451.38 33.1953 1451.38 34.0156V100.734C1451.38 101.828 1450.55 102.375 1449.73 102.375H1348.02C1346.92 102.375 1346.38 101.828 1346.38 100.734V34.0156C1346.38 33.1953 1346.92 32.375 1348.02 32.375H1449.73ZM1451.38 19.25H1346.38C1338.99 19.25 1333.25 25.2656 1333.25 32.375V102.375C1333.25 109.758 1338.99 115.5 1346.38 115.5H1451.38C1458.48 115.5 1464.5 109.758 1464.5 102.375V32.375C1464.5 25.2656 1458.48 19.25 1451.38 19.25ZM1379.19 49.875C1379.19 43.8594 1374.27 38.9375 1368.25 38.9375C1361.96 38.9375 1357.31 43.8594 1357.31 49.875C1357.31 56.1641 1361.96 60.8125 1368.25 60.8125C1374.27 60.8125 1379.19 56.1641 1379.19 49.875ZM1359.5 76.125V89.25H1438.25V67.375L1418.56 47.9609C1417.2 46.5938 1415.28 46.5938 1413.91 47.9609L1385.75 76.125L1374.81 65.4609C1373.45 64.0938 1371.53 64.0938 1370.16 65.4609L1359.5 76.125Z" fill="white"/>
<path d="M968 2.5C925.188 2.5 890.5 37.1875 890.5 80C890.5 122.812 925.188 157.5 968 157.5C1010.81 157.5 1045.5 122.812 1045.5 80C1045.5 37.1875 1010.81 2.5 968 2.5ZM968 142.5C933.312 142.5 905.5 114.688 905.5 80C905.5 45.625 933.312 17.5 968 17.5C1002.38 17.5 1030.5 45.625 1030.5 80C1030.5 114.688 1002.38 142.5 968 142.5ZM999.562 60.625C1001.12 59.375 1001.12 56.875 999.562 55.3125L992.688 48.4375C991.125 46.875 988.625 46.875 987.375 48.4375L968 67.8125L948.312 48.4375C947.062 46.875 944.562 46.875 943 48.4375L936.125 55.3125C934.562 56.875 934.562 59.375 936.125 60.625L955.5 80L936.125 99.6875C934.562 100.938 934.562 103.438 936.125 105L943 111.875C944.562 113.438 947.062 113.438 948.312 111.875L968 92.5L987.375 111.875C988.625 113.438 991.125 113.438 992.688 111.875L999.562 105C1001.12 103.438 1001.12 100.938 999.562 99.6875L980.188 80L999.562 60.625Z" fill="white"/>
<path d="M545 2.5C502.188 2.5 467.5 37.5 467.5 80C467.5 122.812 502.188 157.5 545 157.5C587.5 157.5 622.5 122.812 622.5 80C622.5 37.5 587.5 2.5 545 2.5ZM545 142.5C510.312 142.5 482.5 114.688 482.5 80C482.5 45.625 510.312 17.5 545 17.5C579.375 17.5 607.5 45.625 607.5 80C607.5 114.688 579.375 142.5 545 142.5ZM558.125 110C558.125 102.812 552.188 96.875 545 96.875C537.5 96.875 531.875 102.812 531.875 110C531.875 117.5 537.5 123.125 545 123.125C552.188 123.125 558.125 117.5 558.125 110ZM532.5 44.0625L534.688 86.5625C534.688 88.4375 536.562 90 538.438 90H551.25C553.125 90 555 88.4375 555 86.5625L557.188 44.0625C557.188 41.875 555.625 40 553.438 40H536.25C534.062 40 532.5 41.875 532.5 44.0625Z" fill="white"/>
<path d="M124 2.5C81.1875 2.5 46.5 37.5 46.5 80C46.5 122.812 81.1875 157.5 124 157.5C166.5 157.5 201.5 122.812 201.5 80C201.5 37.5 166.5 2.5 124 2.5ZM124 17.5C158.375 17.5 186.5 45.625 186.5 80C186.5 114.688 158.375 142.5 124 142.5C89.3125 142.5 61.5 114.688 61.5 80C61.5 45.625 89.3125 17.5 124 17.5ZM167.75 58.4375L160.562 51.25C159.312 49.6875 156.812 49.6875 155.25 51.25L111.188 95L92.4375 76.25C90.875 74.6875 88.6875 74.6875 87.125 76.25L79.9375 83.125C78.6875 84.6875 78.6875 87.1875 79.9375 88.4375L108.375 117.188C109.938 118.75 112.125 118.75 113.688 117.188L167.75 63.75C169 62.1875 169 59.6875 167.75 58.4375Z" fill="white"/>
<path d="M621.039 476.031L592.328 434.742C590.141 431.734 585.219 429 581.391 429H507.836C504.008 429 499.086 431.734 496.898 434.742L468.188 476.031C466.82 477.945 466 481.227 466 483.688V520.875C466 528.258 471.742 534 479.125 534H610.375C617.484 534 623.5 528.258 623.5 520.875V483.688C623.5 480.953 622.68 478.219 621.039 476.031ZM507.836 442.125H581.391L602.719 472.75H569.359L560.609 490.25H528.617L519.867 472.75H486.508L507.836 442.125ZM610.375 520.875H479.125V485.875H511.938L520.688 503.375H568.812L577.562 485.875H610.375V520.875Z" fill="white"/>
</svg>
