<?xml version="1.0" encoding="UTF-8"?>
<svg width="100px" height="53px" viewBox="0 0 100 53" version="1.1" xmlns="http://www.w3.org/2000/svg" xmlns:xlink="http://www.w3.org/1999/xlink">
    <!-- Generator: Sketch 46.2 (44496) - http://www.bohemiancoding.com/sketch -->
    <title>Logo</title>
    <desc>Created with Sketch.</desc>
    <defs></defs>
    <g id="Page-1" stroke="none" stroke-width="1" fill="none" fill-rule="evenodd">
        <g id="Desktop" transform="translate(-80.000000, -80.000000)" fill-rule="nonzero">
            <g id="Logo" transform="translate(80.000000, 80.000000)">
                <path d="M73.2481291,41.5146277 C82.8344302,52 96.2703482,51.8989362 99.8683563,52 C99.9941607,47.8816489 101.327688,34.9707447 91.7413871,24.4853723 C82.155086,14 67.9643411,14.1010638 65.1211599,14 C65.0205164,17.0824468 63.661828,31.0292553 73.2481291,41.5146277 Z" id="Wing_4_" fill="#FF0099"></path>
                <path d="M62,43 C62,48.5263158 56.6224066,53 50,53 C43.3775934,53 38,48.5263158 38,43" id="Body_8_" fill="#00CC00"></path>
                <rect id="Body_3_" fill="#00CC00" x="38" y="32" width="24" height="8"></rect>
                <rect id="Body_2_" fill="#00CC00" x="38" y="21" width="24" height="8"></rect>
                <path d="M38,18 C38,12.4827586 43.3775934,8 50,8 C56.6224066,8 62,12.4827586 62,18" id="Body_1_" fill="#00CC00"></path>
                <circle id="Eye_4_" fill="#00CC00" cx="57.5" cy="3.5" r="3.5"></circle>
                <circle id="Eye_1_" fill="#00CC00" cx="42.5" cy="3.5" r="3.5"></circle>
                <path d="M8.24812909,24.4853723 C17.8344302,14 31.2703482,14.1010638 34.8683563,14 C34.9941607,18.1183511 36.3276882,31.0292553 26.7413871,41.5146277 C17.155086,52 2.96434109,51.8989362 0.121159931,52 C0.0205163503,48.9175532 -1.33817199,34.9707447 8.24812909,24.4853723 Z" id="Wing_1_" fill="#FF0099"></path>
            </g>
        </g>
    </g>
</svg>