<?xml version="1.0" encoding="UTF-8"?>
<svg width="180px" height="98px" viewBox="0 0 180 98" version="1.1" xmlns="http://www.w3.org/2000/svg" xmlns:xlink="http://www.w3.org/1999/xlink">
    <!-- Generator: Sketch 58 (84663) - https://sketch.com -->
    <title>Logo</title>
    <desc>Created with Sketch.</desc>
    <g id="Page-1" stroke="none" stroke-width="1" fill="none" fill-rule="evenodd">
        <g id="Front" transform="translate(-70.000000, -70.000000)" fill-rule="nonzero">
            <g id="Logo" transform="translate(70.000000, 70.000000)">
                <path d="M131.846632,74.9607713 C149.101974,94 173.286627,93.8164894 179.763041,94 C179.989489,86.5219415 182.389839,63.0784574 165.134497,44.0392287 C147.879155,25 122.335814,25.1835106 117.218088,25 C117.036929,30.5970745 114.59129,55.9215426 131.846632,74.9607713 Z" id="Wing_4_" fill="#FF0099"></path>
                <path d="M111,79 C111,89.5 101.365145,98 89.5,98 C77.6348548,98 68,89.5 68,79" id="Body_8_" fill="#00CC00"></path>
                <polygon id="Body_3_" fill="#00CC00" points="68 58 111 58 111 72 68 72"></polygon>
                <polygon id="Body_2_" fill="#00CC00" points="68 37 111 37 111 51 68 51"></polygon>
                <path d="M68,32 C68,22.0689655 77.6348548,14 89.5,14 C101.365145,14 111,22.0689655 111,32" id="Body_1_" fill="#00CC00"></path>
                <circle id="Eye_4_" fill="#00CC00" cx="104" cy="6" r="6"></circle>
                <circle id="Eye_1_" fill="#00CC00" cx="75" cy="6" r="6"></circle>
                <path d="M14.8466324,44.0392287 C32.1019743,25 56.2866268,25.1835106 62.7630413,25 C62.9894893,32.4780585 65.3898387,55.9215426 48.1344968,74.9607713 C30.8791548,94 5.33581397,93.8164894 0.218087876,94 C0.0369294305,88.4029255 -2.40870959,63.0784574 14.8466324,44.0392287 Z" id="Wing_1_" fill="#FF0099"></path>
            </g>
        </g>
    </g>
</svg>